<?xml version="1.0" encoding="UTF-8" standalone="no"?>
<!-- Created with Inkscape (http://www.inkscape.org/) -->

<svg
   xmlns:dc="http://purl.org/dc/elements/1.1/"
   xmlns:cc="http://creativecommons.org/ns#"
   xmlns:rdf="http://www.w3.org/1999/02/22-rdf-syntax-ns#"
   xmlns:svg="http://www.w3.org/2000/svg"
   xmlns="http://www.w3.org/2000/svg"
   xmlns:sodipodi="http://sodipodi.sourceforge.net/DTD/sodipodi-0.dtd"
   xmlns:inkscape="http://www.inkscape.org/namespaces/inkscape"
   width="6in"
   height="9in"
   viewBox="0 0 540.00001 810.00002"
   id="svg4171"
   version="1.1"
   inkscape:version="0.91 r13725"
   sodipodi:docname="jollyrogger.svg">
  <defs
     id="defs4173" />
  <sodipodi:namedview
     id="base"
     pagecolor="#ffffff"
     bordercolor="#666666"
     borderopacity="1.0"
     inkscape:pageopacity="0.0"
     inkscape:pageshadow="2"
     inkscape:zoom="0.40126953"
     inkscape:cx="279.98049"
     inkscape:cy="408.6223"
     inkscape:document-units="px"
     inkscape:current-layer="layer1"
     showgrid="false"
     units="in"
     inkscape:window-width="1366"
     inkscape:window-height="719"
     inkscape:window-x="0"
     inkscape:window-y="1"
     inkscape:window-maximized="1" />
  <metadata
     id="metadata4176">
    <rdf:RDF>
      <cc:Work
         rdf:about="">
        <dc:format>image/svg+xml</dc:format>
        <dc:type
           rdf:resource="http://purl.org/dc/dcmitype/StillImage" />
        <dc:title></dc:title>
      </cc:Work>
    </rdf:RDF>
  </metadata>
  <g
     inkscape:label="Layer 1"
     inkscape:groupmode="layer"
     id="layer1"
     transform="translate(0,-242.36215)">
    <path
       style="fill:#000000"
       d="m 317.18796,496.08924 c -1.16377,-0.41848 -2.1482,-0.76087 -2.18763,-0.76087 -0.25884,0 -6.30294,-4.87428 -8.86873,-7.15221 -4.5163,-4.00962 -7.93575,-6.32024 -10.69248,-7.22523 -3.26289,-1.07115 -8.75631,-3.86121 -21.67574,-11.00888 -27.60236,-15.27105 -46.71096,-23.1126 -62.2121,-25.52981 -6.71217,-1.0467 -9.25403,-2.37113 -10.42246,-5.43062 -0.92879,-2.43198 -0.51786,-4.66168 1.38405,-7.5098 1.62059,-2.42684 3.54003,-3.96222 5.87555,-4.69987 0.90238,-0.28502 1.72156,-0.91269 2.20327,-1.68818 2.0185,-3.24953 5.94815,-5.73784 9.13763,-5.78607 2.16175,-0.0328 3.85991,1.03889 5.79005,3.65354 4.68587,6.34776 5.89429,7.80038 8.08239,9.71574 3.3183,2.90467 7.13622,5.45211 11.29115,7.53387 6.20091,3.10681 15.97992,8.53127 38.96202,21.61233 7.8583,4.47282 15.97629,8.53421 19.35609,9.68374 4.18467,1.42331 8.15178,2.056 17.01053,2.71286 12.40745,0.91998 14.90397,1.50434 17.29111,4.04716 1.0738,1.14384 1.16226,1.45492 1.16226,4.08708 0,2.50399 -0.11728,2.97463 -0.96854,3.88648 -1.40398,1.50386 -3.62677,2.52412 -5.71018,2.62093 -1.78381,0.0829 -1.8607,0.1408 -4.04023,3.04293 -1.70776,2.27396 -2.69197,3.19272 -4.2539,3.97107 -2.40975,1.20083 -3.67606,1.24433 -6.51411,0.22381 z m 3.58121,-5.1562 c 0.68567,-0.28659 1.50819,-0.83643 1.82781,-1.22183 0.55456,-0.6687 0.45369,-0.68817 -2.20573,-0.42615 -3.24497,0.31974 -3.85819,0.0857 -7.09237,-2.70739 -3.42605,-2.95874 -9.69015,-7.52095 -10.32657,-7.52095 -1.08054,0 -0.28605,0.94211 1.84416,2.18686 1.16183,0.67889 3.23697,2.23774 4.61141,3.46413 4.21825,3.76388 8.4361,6.66345 9.79161,6.73131 0.16665,0.008 0.86401,-0.21934 1.54968,-0.50598 z m 9.71405,-9.35218 c 0.2646,-0.68957 -0.84278,-1.36188 -2.24317,-1.36188 -1.22243,0 -1.27562,0.53367 -0.13298,1.334 1.0862,0.7608 2.09038,0.77259 2.37615,0.0279 z m -99.90397,-38.1755 c -0.43612,-0.70563 -4.63736,-2.63032 -8.95369,-4.1019 -4.95927,-1.6908 -5.30564,-1.91189 -5.05504,-3.22686 0.18881,-0.99077 0.18781,-0.99054 -0.74176,0.17016 -1.82906,2.28382 -1.40318,2.62024 6.03889,4.7703 2.23735,0.64638 4.93961,1.51947 6.00501,1.94019 2.22065,0.8769 3.0572,1.01541 2.70659,0.44811 z m -15.49146,49.64543 c -2.14971,-0.98612 -3.5856,-2.54365 -4.92933,-5.34691 -1.1758,-2.45291 -1.39404,-2.63017 -5.13831,-4.17341 -2.93366,-1.20913 -4.46064,-3.31121 -4.46064,-6.14061 0,-2.37717 1.23615,-4.05367 4.04991,-5.49268 l 2.2852,-1.16869 11.65129,0.11647 c 14.46202,0.14459 17.10706,-0.21767 25.59841,-3.50601 1.91773,-0.74265 5.41004,-2.31496 7.76069,-3.49402 l 4.27389,-2.14377 5.79904,3.48045 c 3.18948,1.91426 6.01931,3.69218 6.28854,3.95095 0.38752,0.37245 -2.07475,1.58937 -11.81632,5.83999 -14.99331,6.54216 -17.30237,7.70647 -22.50085,11.3458 -9.8693,6.90926 -14.7097,8.637 -18.86152,6.73244 z m 8.42002,-5.82623 c 1.42407,-1.27241 1.31189,-1.80111 -0.25569,-1.20512 -2.59619,0.98708 -3.98197,0.25286 -5.59685,-2.96537 -0.96594,-1.92503 -1.83126,-2.65128 -1.47697,-1.23961 0.12924,0.51492 0.43701,1.89205 0.68394,3.06029 0.70124,3.31767 0.8538,3.48006 3.26953,3.48006 1.78499,0 2.30646,-0.17457 3.37604,-1.13025 z m -11.28694,-10.53111 c 1.13249,-1.13249 0.43572,-1.80148 -1.17944,-1.13244 -1.12696,0.4668 -1.48804,1.12524 -0.92554,1.68773 0.47733,0.47734 1.28556,0.26413 2.10498,-0.55529 z m 67.98358,-18.85143 c -3.17971,-1.86259 -5.79352,-3.56085 -5.80847,-3.77393 -0.0386,-0.5509 2.56481,-1.90214 13.13943,-6.81959 20.04167,-9.31987 22.93264,-11.21838 29.41839,-19.31914 4.83266,-6.03606 5.24151,-6.34626 8.03687,-6.09763 3.67476,0.32685 7.67924,3.0319 7.67924,5.18738 0,1.19482 1.07784,2.37571 3.81339,4.17789 3.10468,2.04538 3.93973,2.90275 5.25732,5.39802 1.77729,3.36576 1.18841,7.30075 -1.38648,9.26473 -1.51878,1.15841 -2.99482,1.52733 -9.62134,2.40474 -11.60332,1.53635 -23.87492,4.9783 -38.54833,10.81208 -2.98314,1.18601 -5.59822,2.15539 -5.81132,2.15417 -0.21306,-0.003 -2.98899,-1.52615 -6.1687,-3.38872 z m 39.26126,-12.94817 c 1.58056,-0.41231 3.74959,-0.91579 4.82007,-1.11879 2.86284,-0.54292 3.73631,-1.2421 3.72915,-2.98506 -0.004,-0.79413 -0.17493,-1.7054 -0.38148,-2.02501 -0.2937,-0.45445 -0.37685,-0.35357 -0.38149,0.46267 -0.0122,2.13386 -1.29166,2.89383 -7.34545,4.36283 -3.07785,0.74685 -5.86729,1.63998 -6.19872,1.9847 -0.55291,0.57507 -0.45881,0.60373 1.14078,0.34757 0.95886,-0.15357 3.03658,-0.61657 4.61714,-1.02891 z m -54.02143,-1.45765 c -2.87798,-0.44879 -4.7969,-1.59979 -7.51955,-4.51032 -2.90097,-3.10113 -4.91032,-6.1373 -5.85134,-8.84143 -1.31812,-3.78774 -1.99684,-14.86931 -0.93219,-15.21984 0.6983,-0.22991 4.04683,2.65098 5.01047,4.31075 0.5028,0.86602 1.12198,2.70779 1.37597,4.09281 0.98995,5.3985 1.81674,7.56514 3.44996,9.04066 2.3878,2.15722 4.84137,2.69694 11.40081,2.50783 5.9098,-0.17039 7.49157,-0.631 9.47839,-2.76009 1.11563,-1.1955 2.77297,-5.63956 2.77297,-7.43553 0,-2.21689 1.43653,-5.42212 3.10617,-6.93053 1.45409,-1.31368 3.27062,-2.12182 3.73211,-1.66035 0.35191,0.35193 0.16531,7.5701 -0.28227,10.9185 -0.22787,1.70465 -0.74087,3.84149 -1.14001,4.74853 -0.88795,2.01785 -3.66415,5.67087 -6.55186,8.6212 -2.13348,2.17972 -2.19132,2.20865 -5.25658,2.62873 -4.44575,0.6093 -10.53052,0.84191 -12.79305,0.48908 z m 4.95178,-9.80454 c -1.34087,-1.70237 -0.73809,-4.29396 0.95153,-4.09113 1.57848,0.18948 1.92712,1.14364 1.09345,2.99241 -0.72936,1.61745 -1.3667,1.95987 -2.04498,1.09872 z m -3.89757,-0.75547 c -0.86759,-0.86758 -0.45407,-3.4093 0.55469,-3.4093 0.72799,0 1.36656,1.75035 1.06985,2.93255 -0.25686,1.02342 -0.89161,1.20969 -1.62454,0.47675 z m 9.25852,-0.40679 c -0.59464,-1.59714 0.68363,-3.40319 2.04024,-2.88261 0.86383,0.33148 0.81644,2.30666 -0.0747,3.11313 -0.96819,0.87621 -1.58022,0.80444 -1.96553,-0.23052 z m -13.13273,-0.36805 c -0.81574,-0.81572 -0.29022,-2.63446 0.76121,-2.63446 0.54175,0 1.14494,1.56762 0.90005,2.33915 -0.27299,0.86012 -0.97216,0.98441 -1.66126,0.29531 z m -0.38258,-7.74356 c -0.60534,-0.60534 -0.60861,-3.12031 -0.005,-3.72408 1.43716,-1.43715 2.81485,0.78086 1.79051,2.88262 -0.60286,1.23696 -1.13798,1.48913 -1.78565,0.84146 z m 3.79188,-0.84495 c 0,-1.80191 0.61749,-3.34403 1.33901,-3.34403 0.69852,0 1.08946,1.3394 0.9172,3.14261 -0.1057,1.10659 -0.29269,1.33197 -1.1908,1.43531 -0.98275,0.11308 -1.06541,0.0175 -1.06541,-1.23389 z m 7.73822,0.71159 c -0.39148,-0.47169 -0.39675,-0.91301 -0.0257,-2.15129 0.80694,-2.6934 2.34225,-2.40677 2.35452,0.43956 0.009,2.06361 -1.26166,2.99753 -2.32879,1.71173 z m -3.86401,-1.525 c 0,-2.06338 0.74397,-2.64184 1.97032,-1.53201 0.52695,0.47688 0.74177,1.08788 0.66356,1.88724 -0.0999,1.02146 -0.28671,1.19855 -1.37476,1.30346 -1.25547,0.12106 -1.25912,0.11624 -1.25912,-1.65869 z m 8.22462,1.27741 c -0.50588,-0.50587 -0.63192,-2.17665 -0.24105,-3.19521 0.36519,-0.9517 1.6657,-0.72884 2.16697,0.37134 0.84627,1.85736 -0.66965,4.0801 -1.92592,2.82387 z m -11.13028,-4.97198 c -4.6557,-0.29807 -6.42184,-1.07277 -8.58662,-3.76647 -2.05473,-2.55675 -2.18433,-2.65111 -6.32906,-4.60803 -6.01018,-2.83771 -6.26692,-2.98618 -8.01147,-4.63284 -1.36942,-1.2926 -1.67405,-1.83321 -1.67405,-2.97083 0,-2.09014 0.31146,-2.56479 2.36629,-3.60605 1.21643,-0.6164 1.94657,-1.26096 2.06423,-1.82228 0.10012,-0.47766 0.25305,-3.83227 0.33985,-7.45463 0.11025,-4.60101 0.33436,-7.05327 0.74353,-8.13584 0.32214,-0.85233 1.557,-3.93637 2.74415,-6.8534 1.18715,-2.91705 2.28012,-5.96797 2.42882,-6.77986 l 0.27038,-1.47614 -0.85229,0.75859 c -1.24671,1.10962 -4.17658,5.95787 -5.5629,9.20523 -1.18213,2.76906 -1.2093,2.97455 -1.47432,11.1506 -0.1485,4.58124 -0.2893,8.39447 -0.31291,8.47382 -0.14085,0.47385 -1.4423,-1.20542 -2.49589,-3.22047 l -1.22749,-2.3477 0,-9.13359 0,-9.13359 1.6235,-3.26387 c 2.77335,-5.57549 8.48826,-11.05917 14.39354,-13.81114 4.32662,-2.01632 7.35748,-2.52349 15.36402,-2.57098 6.27868,-0.0373 7.26311,0.0484 9.87923,0.86005 9.43045,2.92552 16.62232,9.85622 18.78753,18.10524 1.24353,4.73766 1.13559,15.19272 -0.20652,20.00158 -0.22123,0.79262 -1.01074,2.08635 -1.75451,2.87498 -1.89523,2.00952 -2.25355,1.46908 -2.49194,-3.7584 -0.10914,-2.39301 -0.36287,-4.26879 -0.58113,-4.29624 -0.99107,-0.12465 -1.35426,1.89449 -1.25912,6.99985 l 0.0968,5.19843 2.24331,0.74723 c 2.82515,0.94107 3.63571,1.99933 3.002,3.91948 -0.6786,2.05613 -3.49777,4.35357 -7.88416,6.42505 -3.46396,1.63587 -4.34933,2.27248 -7.23062,5.19909 -2.35298,2.39 -3.61539,3.38438 -4.45533,3.50943 -2.27362,0.33844 -10.12962,0.45872 -13.9569,0.2137 z m 2.00252,-10.49911 c 1.46047,-0.90261 3.54251,-0.78692 4.39843,0.2444 0.26059,0.31399 0.62678,0.57088 0.81376,0.57088 1.32803,0 -1.24336,-12.21497 -2.67159,-12.69104 -0.71765,-0.23923 -3.03018,5.01431 -3.9571,8.98956 -0.42885,1.83925 -0.77973,3.42447 -0.77973,3.52277 0,0.40624 0.95839,0.12846 2.19623,-0.63657 z m -8.58868,-8.82458 c 4.01093,-1.92563 6.75304,-5.67801 6.77135,-9.26614 0.028,-5.48725 -6.52633,-8.56513 -11.2575,-5.2864 -1.04719,0.72568 -1.91363,1.84771 -2.76973,3.5867 -1.05248,2.13787 -1.2443,2.95618 -1.23597,5.27258 0.0221,6.15541 3.15474,8.25562 8.49185,5.69326 z m 27.56704,0.0935 c 0.73675,-0.34962 1.79011,-1.22639 2.34081,-1.94838 0.9226,-1.20959 0.98216,-1.51831 0.75808,-3.92941 -0.59557,-6.40789 -3.5365,-10.14564 -7.98276,-10.14564 -3.53657,0 -7.38003,3.39951 -7.38003,6.52756 0,1.31095 1.77125,4.86613 3.53202,7.08929 2.23978,2.82796 5.78488,3.80502 8.73188,2.40658 z"
       id="path4800"
       inkscape:connector-curvature="0"
       inkscape:export-xdpi="100"
       inkscape:export-ydpi="100" />
  </g>
</svg>
