G75*
%MOIN*%
%OFA0B0*%
%FSLAX24Y24*%
%IPPOS*%
%LPD*%
%AMOC8*
5,1,8,0,0,1.08239X$1,22.5*
%
%ADD10C,0.0080*%
%ADD11C,0.0000*%
%ADD12R,0.0600X0.0240*%
%ADD13C,0.0740*%
%ADD14R,0.0394X0.0433*%
%ADD15C,0.0740*%
%ADD16C,0.1500*%
%ADD17C,0.0100*%
%ADD18C,0.0160*%
%ADD19C,0.0320*%
%ADD20C,0.0240*%
%ADD21R,0.0436X0.0436*%
D10*
X003400Y002400D02*
X033400Y002400D01*
X033400Y037900D01*
X003400Y037900D01*
X003400Y002400D01*
D11*
X005270Y004900D02*
X005272Y004950D01*
X005278Y005000D01*
X005288Y005049D01*
X005302Y005097D01*
X005319Y005144D01*
X005340Y005189D01*
X005365Y005233D01*
X005393Y005274D01*
X005425Y005313D01*
X005459Y005350D01*
X005496Y005384D01*
X005536Y005414D01*
X005578Y005441D01*
X005622Y005465D01*
X005668Y005486D01*
X005715Y005502D01*
X005763Y005515D01*
X005813Y005524D01*
X005862Y005529D01*
X005913Y005530D01*
X005963Y005527D01*
X006012Y005520D01*
X006061Y005509D01*
X006109Y005494D01*
X006155Y005476D01*
X006200Y005454D01*
X006243Y005428D01*
X006284Y005399D01*
X006323Y005367D01*
X006359Y005332D01*
X006391Y005294D01*
X006421Y005254D01*
X006448Y005211D01*
X006471Y005167D01*
X006490Y005121D01*
X006506Y005073D01*
X006518Y005024D01*
X006526Y004975D01*
X006530Y004925D01*
X006530Y004875D01*
X006526Y004825D01*
X006518Y004776D01*
X006506Y004727D01*
X006490Y004679D01*
X006471Y004633D01*
X006448Y004589D01*
X006421Y004546D01*
X006391Y004506D01*
X006359Y004468D01*
X006323Y004433D01*
X006284Y004401D01*
X006243Y004372D01*
X006200Y004346D01*
X006155Y004324D01*
X006109Y004306D01*
X006061Y004291D01*
X006012Y004280D01*
X005963Y004273D01*
X005913Y004270D01*
X005862Y004271D01*
X005813Y004276D01*
X005763Y004285D01*
X005715Y004298D01*
X005668Y004314D01*
X005622Y004335D01*
X005578Y004359D01*
X005536Y004386D01*
X005496Y004416D01*
X005459Y004450D01*
X005425Y004487D01*
X005393Y004526D01*
X005365Y004567D01*
X005340Y004611D01*
X005319Y004656D01*
X005302Y004703D01*
X005288Y004751D01*
X005278Y004800D01*
X005272Y004850D01*
X005270Y004900D01*
X008770Y005150D02*
X008772Y005200D01*
X008778Y005250D01*
X008788Y005299D01*
X008802Y005347D01*
X008819Y005394D01*
X008840Y005439D01*
X008865Y005483D01*
X008893Y005524D01*
X008925Y005563D01*
X008959Y005600D01*
X008996Y005634D01*
X009036Y005664D01*
X009078Y005691D01*
X009122Y005715D01*
X009168Y005736D01*
X009215Y005752D01*
X009263Y005765D01*
X009313Y005774D01*
X009362Y005779D01*
X009413Y005780D01*
X009463Y005777D01*
X009512Y005770D01*
X009561Y005759D01*
X009609Y005744D01*
X009655Y005726D01*
X009700Y005704D01*
X009743Y005678D01*
X009784Y005649D01*
X009823Y005617D01*
X009859Y005582D01*
X009891Y005544D01*
X009921Y005504D01*
X009948Y005461D01*
X009971Y005417D01*
X009990Y005371D01*
X010006Y005323D01*
X010018Y005274D01*
X010026Y005225D01*
X010030Y005175D01*
X010030Y005125D01*
X010026Y005075D01*
X010018Y005026D01*
X010006Y004977D01*
X009990Y004929D01*
X009971Y004883D01*
X009948Y004839D01*
X009921Y004796D01*
X009891Y004756D01*
X009859Y004718D01*
X009823Y004683D01*
X009784Y004651D01*
X009743Y004622D01*
X009700Y004596D01*
X009655Y004574D01*
X009609Y004556D01*
X009561Y004541D01*
X009512Y004530D01*
X009463Y004523D01*
X009413Y004520D01*
X009362Y004521D01*
X009313Y004526D01*
X009263Y004535D01*
X009215Y004548D01*
X009168Y004564D01*
X009122Y004585D01*
X009078Y004609D01*
X009036Y004636D01*
X008996Y004666D01*
X008959Y004700D01*
X008925Y004737D01*
X008893Y004776D01*
X008865Y004817D01*
X008840Y004861D01*
X008819Y004906D01*
X008802Y004953D01*
X008788Y005001D01*
X008778Y005050D01*
X008772Y005100D01*
X008770Y005150D01*
X030270Y004900D02*
X030272Y004950D01*
X030278Y005000D01*
X030288Y005049D01*
X030302Y005097D01*
X030319Y005144D01*
X030340Y005189D01*
X030365Y005233D01*
X030393Y005274D01*
X030425Y005313D01*
X030459Y005350D01*
X030496Y005384D01*
X030536Y005414D01*
X030578Y005441D01*
X030622Y005465D01*
X030668Y005486D01*
X030715Y005502D01*
X030763Y005515D01*
X030813Y005524D01*
X030862Y005529D01*
X030913Y005530D01*
X030963Y005527D01*
X031012Y005520D01*
X031061Y005509D01*
X031109Y005494D01*
X031155Y005476D01*
X031200Y005454D01*
X031243Y005428D01*
X031284Y005399D01*
X031323Y005367D01*
X031359Y005332D01*
X031391Y005294D01*
X031421Y005254D01*
X031448Y005211D01*
X031471Y005167D01*
X031490Y005121D01*
X031506Y005073D01*
X031518Y005024D01*
X031526Y004975D01*
X031530Y004925D01*
X031530Y004875D01*
X031526Y004825D01*
X031518Y004776D01*
X031506Y004727D01*
X031490Y004679D01*
X031471Y004633D01*
X031448Y004589D01*
X031421Y004546D01*
X031391Y004506D01*
X031359Y004468D01*
X031323Y004433D01*
X031284Y004401D01*
X031243Y004372D01*
X031200Y004346D01*
X031155Y004324D01*
X031109Y004306D01*
X031061Y004291D01*
X031012Y004280D01*
X030963Y004273D01*
X030913Y004270D01*
X030862Y004271D01*
X030813Y004276D01*
X030763Y004285D01*
X030715Y004298D01*
X030668Y004314D01*
X030622Y004335D01*
X030578Y004359D01*
X030536Y004386D01*
X030496Y004416D01*
X030459Y004450D01*
X030425Y004487D01*
X030393Y004526D01*
X030365Y004567D01*
X030340Y004611D01*
X030319Y004656D01*
X030302Y004703D01*
X030288Y004751D01*
X030278Y004800D01*
X030272Y004850D01*
X030270Y004900D01*
X012270Y034400D02*
X012272Y034450D01*
X012278Y034500D01*
X012288Y034549D01*
X012302Y034597D01*
X012319Y034644D01*
X012340Y034689D01*
X012365Y034733D01*
X012393Y034774D01*
X012425Y034813D01*
X012459Y034850D01*
X012496Y034884D01*
X012536Y034914D01*
X012578Y034941D01*
X012622Y034965D01*
X012668Y034986D01*
X012715Y035002D01*
X012763Y035015D01*
X012813Y035024D01*
X012862Y035029D01*
X012913Y035030D01*
X012963Y035027D01*
X013012Y035020D01*
X013061Y035009D01*
X013109Y034994D01*
X013155Y034976D01*
X013200Y034954D01*
X013243Y034928D01*
X013284Y034899D01*
X013323Y034867D01*
X013359Y034832D01*
X013391Y034794D01*
X013421Y034754D01*
X013448Y034711D01*
X013471Y034667D01*
X013490Y034621D01*
X013506Y034573D01*
X013518Y034524D01*
X013526Y034475D01*
X013530Y034425D01*
X013530Y034375D01*
X013526Y034325D01*
X013518Y034276D01*
X013506Y034227D01*
X013490Y034179D01*
X013471Y034133D01*
X013448Y034089D01*
X013421Y034046D01*
X013391Y034006D01*
X013359Y033968D01*
X013323Y033933D01*
X013284Y033901D01*
X013243Y033872D01*
X013200Y033846D01*
X013155Y033824D01*
X013109Y033806D01*
X013061Y033791D01*
X013012Y033780D01*
X012963Y033773D01*
X012913Y033770D01*
X012862Y033771D01*
X012813Y033776D01*
X012763Y033785D01*
X012715Y033798D01*
X012668Y033814D01*
X012622Y033835D01*
X012578Y033859D01*
X012536Y033886D01*
X012496Y033916D01*
X012459Y033950D01*
X012425Y033987D01*
X012393Y034026D01*
X012365Y034067D01*
X012340Y034111D01*
X012319Y034156D01*
X012302Y034203D01*
X012288Y034251D01*
X012278Y034300D01*
X012272Y034350D01*
X012270Y034400D01*
X005270Y034900D02*
X005272Y034950D01*
X005278Y035000D01*
X005288Y035049D01*
X005302Y035097D01*
X005319Y035144D01*
X005340Y035189D01*
X005365Y035233D01*
X005393Y035274D01*
X005425Y035313D01*
X005459Y035350D01*
X005496Y035384D01*
X005536Y035414D01*
X005578Y035441D01*
X005622Y035465D01*
X005668Y035486D01*
X005715Y035502D01*
X005763Y035515D01*
X005813Y035524D01*
X005862Y035529D01*
X005913Y035530D01*
X005963Y035527D01*
X006012Y035520D01*
X006061Y035509D01*
X006109Y035494D01*
X006155Y035476D01*
X006200Y035454D01*
X006243Y035428D01*
X006284Y035399D01*
X006323Y035367D01*
X006359Y035332D01*
X006391Y035294D01*
X006421Y035254D01*
X006448Y035211D01*
X006471Y035167D01*
X006490Y035121D01*
X006506Y035073D01*
X006518Y035024D01*
X006526Y034975D01*
X006530Y034925D01*
X006530Y034875D01*
X006526Y034825D01*
X006518Y034776D01*
X006506Y034727D01*
X006490Y034679D01*
X006471Y034633D01*
X006448Y034589D01*
X006421Y034546D01*
X006391Y034506D01*
X006359Y034468D01*
X006323Y034433D01*
X006284Y034401D01*
X006243Y034372D01*
X006200Y034346D01*
X006155Y034324D01*
X006109Y034306D01*
X006061Y034291D01*
X006012Y034280D01*
X005963Y034273D01*
X005913Y034270D01*
X005862Y034271D01*
X005813Y034276D01*
X005763Y034285D01*
X005715Y034298D01*
X005668Y034314D01*
X005622Y034335D01*
X005578Y034359D01*
X005536Y034386D01*
X005496Y034416D01*
X005459Y034450D01*
X005425Y034487D01*
X005393Y034526D01*
X005365Y034567D01*
X005340Y034611D01*
X005319Y034656D01*
X005302Y034703D01*
X005288Y034751D01*
X005278Y034800D01*
X005272Y034850D01*
X005270Y034900D01*
X030270Y034900D02*
X030272Y034950D01*
X030278Y035000D01*
X030288Y035049D01*
X030302Y035097D01*
X030319Y035144D01*
X030340Y035189D01*
X030365Y035233D01*
X030393Y035274D01*
X030425Y035313D01*
X030459Y035350D01*
X030496Y035384D01*
X030536Y035414D01*
X030578Y035441D01*
X030622Y035465D01*
X030668Y035486D01*
X030715Y035502D01*
X030763Y035515D01*
X030813Y035524D01*
X030862Y035529D01*
X030913Y035530D01*
X030963Y035527D01*
X031012Y035520D01*
X031061Y035509D01*
X031109Y035494D01*
X031155Y035476D01*
X031200Y035454D01*
X031243Y035428D01*
X031284Y035399D01*
X031323Y035367D01*
X031359Y035332D01*
X031391Y035294D01*
X031421Y035254D01*
X031448Y035211D01*
X031471Y035167D01*
X031490Y035121D01*
X031506Y035073D01*
X031518Y035024D01*
X031526Y034975D01*
X031530Y034925D01*
X031530Y034875D01*
X031526Y034825D01*
X031518Y034776D01*
X031506Y034727D01*
X031490Y034679D01*
X031471Y034633D01*
X031448Y034589D01*
X031421Y034546D01*
X031391Y034506D01*
X031359Y034468D01*
X031323Y034433D01*
X031284Y034401D01*
X031243Y034372D01*
X031200Y034346D01*
X031155Y034324D01*
X031109Y034306D01*
X031061Y034291D01*
X031012Y034280D01*
X030963Y034273D01*
X030913Y034270D01*
X030862Y034271D01*
X030813Y034276D01*
X030763Y034285D01*
X030715Y034298D01*
X030668Y034314D01*
X030622Y034335D01*
X030578Y034359D01*
X030536Y034386D01*
X030496Y034416D01*
X030459Y034450D01*
X030425Y034487D01*
X030393Y034526D01*
X030365Y034567D01*
X030340Y034611D01*
X030319Y034656D01*
X030302Y034703D01*
X030288Y034751D01*
X030278Y034800D01*
X030272Y034850D01*
X030270Y034900D01*
D12*
X018830Y024900D03*
X018830Y024400D03*
X018830Y023900D03*
X018830Y023400D03*
X016670Y023400D03*
X016670Y023900D03*
X016670Y024400D03*
X016670Y024900D03*
X016520Y027200D03*
X016520Y027700D03*
X016520Y028200D03*
X016520Y028700D03*
X015480Y030600D03*
X015480Y031100D03*
X015480Y031600D03*
X015480Y032100D03*
X013320Y032100D03*
X013320Y031600D03*
X013320Y031100D03*
X013320Y030600D03*
X018680Y028700D03*
X018680Y028200D03*
X018680Y027700D03*
X018680Y027200D03*
X016630Y021650D03*
X016630Y021150D03*
X016630Y020650D03*
X016630Y020150D03*
X014470Y020150D03*
X014470Y020650D03*
X014470Y021150D03*
X014470Y021650D03*
X014820Y017150D03*
X014820Y016650D03*
X014820Y016150D03*
X014820Y015650D03*
X016980Y015650D03*
X016980Y016150D03*
X016980Y016650D03*
X016980Y017150D03*
X018070Y012650D03*
X018070Y012150D03*
X018070Y011650D03*
X018070Y011150D03*
X018070Y008650D03*
X018070Y008150D03*
X018070Y007650D03*
X018070Y007150D03*
X016980Y005400D03*
X016980Y004900D03*
X016980Y004400D03*
X016980Y003900D03*
X014820Y003900D03*
X014820Y004400D03*
X014820Y004900D03*
X014820Y005400D03*
X020230Y007150D03*
X020230Y007650D03*
X020230Y008150D03*
X020230Y008650D03*
X020230Y011150D03*
X020230Y011650D03*
X020230Y012150D03*
X020230Y012650D03*
D13*
X031380Y014000D02*
X032120Y014000D01*
X032120Y015000D02*
X031380Y015000D01*
X031380Y016000D02*
X032120Y016000D01*
X032120Y017000D02*
X031380Y017000D01*
D14*
X031150Y022565D03*
X031150Y023235D03*
X013000Y025915D03*
X013000Y026585D03*
X010400Y029165D03*
X010400Y029835D03*
X012900Y014235D03*
X012900Y013565D03*
X011650Y003735D03*
X011650Y003065D03*
D15*
X010400Y007400D03*
X008150Y007400D03*
X004400Y016900D03*
X004400Y017900D03*
X004400Y018900D03*
X004400Y019900D03*
X004400Y020900D03*
X009400Y034400D03*
X010550Y034350D03*
X015850Y034350D03*
X017400Y034400D03*
X021400Y032150D03*
X024150Y030400D03*
X021400Y028150D03*
X024150Y026400D03*
X025900Y026150D03*
X025900Y022150D03*
X023650Y022150D03*
X023650Y018150D03*
X022150Y017650D03*
X022150Y013650D03*
X026150Y012150D03*
X026150Y009900D03*
X026150Y005900D03*
X022650Y007150D03*
X022650Y003150D03*
X026150Y016150D03*
X031150Y025150D03*
X031150Y026150D03*
D16*
X022940Y034400D03*
X020860Y034400D03*
D17*
X021780Y034413D02*
X022020Y034413D01*
X022020Y034511D02*
X021780Y034511D01*
X021780Y034583D02*
X021640Y034921D01*
X021381Y035180D01*
X021043Y035320D01*
X020677Y035320D01*
X020339Y035180D01*
X020080Y034921D01*
X019940Y034583D01*
X019940Y034217D01*
X020080Y033879D01*
X020339Y033620D01*
X020677Y033480D01*
X021043Y033480D01*
X021381Y033620D01*
X021640Y033879D01*
X021780Y034217D01*
X021780Y034583D01*
X021769Y034610D02*
X022031Y034610D01*
X022020Y034583D02*
X022020Y034217D01*
X022160Y033879D01*
X022419Y033620D01*
X022757Y033480D01*
X023123Y033480D01*
X023461Y033620D01*
X023720Y033879D01*
X023860Y034217D01*
X023860Y034583D01*
X023720Y034921D01*
X023461Y035180D01*
X023123Y035320D01*
X022757Y035320D01*
X022419Y035180D01*
X022160Y034921D01*
X022020Y034583D01*
X022072Y034708D02*
X021728Y034708D01*
X021687Y034807D02*
X022113Y034807D01*
X022153Y034905D02*
X021647Y034905D01*
X021557Y035004D02*
X022243Y035004D01*
X022341Y035102D02*
X021459Y035102D01*
X021331Y035201D02*
X022469Y035201D01*
X022707Y035299D02*
X021093Y035299D01*
X020627Y035299D02*
X006601Y035299D01*
X006578Y035353D02*
X006353Y035578D01*
X006059Y035700D01*
X005741Y035700D01*
X005447Y035578D01*
X005222Y035353D01*
X005100Y035059D01*
X005100Y034741D01*
X005222Y034447D01*
X005447Y034222D01*
X005741Y034100D01*
X006059Y034100D01*
X006353Y034222D01*
X006578Y034447D01*
X006700Y034741D01*
X006700Y035059D01*
X006578Y035353D01*
X006534Y035398D02*
X030266Y035398D01*
X030222Y035353D02*
X030100Y035059D01*
X030100Y034741D01*
X030222Y034447D01*
X030447Y034222D01*
X030741Y034100D01*
X031059Y034100D01*
X031353Y034222D01*
X031578Y034447D01*
X031700Y034741D01*
X031700Y035059D01*
X031578Y035353D01*
X031353Y035578D01*
X031059Y035700D01*
X030741Y035700D01*
X030447Y035578D01*
X030222Y035353D01*
X030199Y035299D02*
X023173Y035299D01*
X023411Y035201D02*
X030159Y035201D01*
X030118Y035102D02*
X023539Y035102D01*
X023637Y035004D02*
X030100Y035004D01*
X030100Y034905D02*
X023727Y034905D01*
X023767Y034807D02*
X030100Y034807D01*
X030114Y034708D02*
X023808Y034708D01*
X023849Y034610D02*
X030154Y034610D01*
X030195Y034511D02*
X023860Y034511D01*
X023860Y034413D02*
X030256Y034413D01*
X030355Y034314D02*
X023860Y034314D01*
X023859Y034216D02*
X030462Y034216D01*
X030700Y034117D02*
X023819Y034117D01*
X023778Y034019D02*
X033190Y034019D01*
X033190Y034117D02*
X031100Y034117D01*
X031338Y034216D02*
X033190Y034216D01*
X033190Y034314D02*
X031445Y034314D01*
X031544Y034413D02*
X033190Y034413D01*
X033190Y034511D02*
X031605Y034511D01*
X031646Y034610D02*
X033190Y034610D01*
X033190Y034708D02*
X031686Y034708D01*
X031700Y034807D02*
X033190Y034807D01*
X033190Y034905D02*
X031700Y034905D01*
X031700Y035004D02*
X033190Y035004D01*
X033190Y035102D02*
X031682Y035102D01*
X031641Y035201D02*
X033190Y035201D01*
X033190Y035299D02*
X031601Y035299D01*
X031534Y035398D02*
X033190Y035398D01*
X033190Y035496D02*
X031435Y035496D01*
X031313Y035595D02*
X033190Y035595D01*
X033190Y035693D02*
X031076Y035693D01*
X030724Y035693D02*
X006076Y035693D01*
X006313Y035595D02*
X030487Y035595D01*
X030365Y035496D02*
X006435Y035496D01*
X006641Y035201D02*
X020389Y035201D01*
X020261Y035102D02*
X013295Y035102D01*
X013353Y035078D02*
X013059Y035200D01*
X012741Y035200D01*
X012447Y035078D01*
X012222Y034853D01*
X012100Y034559D01*
X012100Y034241D01*
X012222Y033947D01*
X012447Y033722D01*
X012741Y033600D01*
X013059Y033600D01*
X013353Y033722D01*
X013578Y033947D01*
X013700Y034241D01*
X013700Y034559D01*
X013578Y034853D01*
X013353Y035078D01*
X013428Y035004D02*
X020163Y035004D01*
X020073Y034905D02*
X017592Y034905D01*
X017507Y034940D02*
X017293Y034940D01*
X017094Y034858D01*
X016942Y034706D01*
X016878Y034551D01*
X016390Y034453D01*
X016390Y034457D01*
X016308Y034656D01*
X016156Y034808D01*
X015957Y034890D01*
X015743Y034890D01*
X015544Y034808D01*
X015392Y034656D01*
X015310Y034457D01*
X015310Y034243D01*
X015392Y034044D01*
X015544Y033892D01*
X015743Y033810D01*
X015957Y033810D01*
X016156Y033892D01*
X016161Y033897D01*
X016175Y033900D01*
X016200Y033900D01*
X016223Y033910D01*
X016976Y034060D01*
X017094Y033942D01*
X017293Y033860D01*
X017507Y033860D01*
X017706Y033942D01*
X017858Y034094D01*
X017940Y034293D01*
X017940Y034507D01*
X017858Y034706D01*
X017706Y034858D01*
X017507Y034940D01*
X017757Y034807D02*
X020033Y034807D01*
X019992Y034708D02*
X017856Y034708D01*
X017898Y034610D02*
X019951Y034610D01*
X019940Y034511D02*
X017938Y034511D01*
X017940Y034413D02*
X019940Y034413D01*
X019940Y034314D02*
X017940Y034314D01*
X017908Y034216D02*
X019941Y034216D01*
X019981Y034117D02*
X017867Y034117D01*
X017782Y034019D02*
X020022Y034019D01*
X020063Y033920D02*
X017652Y033920D01*
X017148Y033920D02*
X016275Y033920D01*
X015985Y033822D02*
X020137Y033822D01*
X020236Y033723D02*
X013354Y033723D01*
X013453Y033822D02*
X015715Y033822D01*
X015516Y033920D02*
X013551Y033920D01*
X013608Y034019D02*
X015418Y034019D01*
X015362Y034117D02*
X013649Y034117D01*
X013689Y034216D02*
X015321Y034216D01*
X015310Y034314D02*
X013700Y034314D01*
X013700Y034413D02*
X015310Y034413D01*
X015332Y034511D02*
X013700Y034511D01*
X013679Y034610D02*
X015373Y034610D01*
X015444Y034708D02*
X013638Y034708D01*
X013597Y034807D02*
X015543Y034807D01*
X016157Y034807D02*
X017043Y034807D01*
X016944Y034708D02*
X016256Y034708D01*
X016327Y034610D02*
X016902Y034610D01*
X016681Y034511D02*
X016368Y034511D01*
X016768Y034019D02*
X017018Y034019D01*
X017208Y034905D02*
X013526Y034905D01*
X012505Y035102D02*
X006682Y035102D01*
X006700Y035004D02*
X012372Y035004D01*
X012274Y034905D02*
X009528Y034905D01*
X009522Y034907D02*
X009450Y034919D01*
X009450Y034450D01*
X009350Y034450D01*
X009350Y034919D01*
X009278Y034907D01*
X009200Y034882D01*
X009127Y034845D01*
X009061Y034797D01*
X009003Y034739D01*
X008955Y034673D01*
X008918Y034600D01*
X008893Y034522D01*
X008881Y034450D01*
X009350Y034450D01*
X009350Y034350D01*
X008881Y034350D01*
X008893Y034278D01*
X008918Y034200D01*
X008955Y034127D01*
X009003Y034061D01*
X009061Y034003D01*
X009127Y033955D01*
X009200Y033918D01*
X009278Y033893D01*
X009350Y033881D01*
X009350Y034350D01*
X009450Y034350D01*
X009450Y034450D01*
X009919Y034450D01*
X009907Y034522D01*
X009882Y034600D01*
X009845Y034673D01*
X009797Y034739D01*
X009739Y034797D01*
X009673Y034845D01*
X009600Y034882D01*
X009522Y034907D01*
X009450Y034905D02*
X009350Y034905D01*
X009272Y034905D02*
X006700Y034905D01*
X006700Y034807D02*
X009075Y034807D01*
X008981Y034708D02*
X006686Y034708D01*
X006646Y034610D02*
X008923Y034610D01*
X008891Y034511D02*
X006605Y034511D01*
X006544Y034413D02*
X009350Y034413D01*
X009350Y034511D02*
X009450Y034511D01*
X009450Y034413D02*
X010033Y034413D01*
X010031Y034400D02*
X010500Y034400D01*
X010500Y034869D01*
X010428Y034857D01*
X010350Y034832D01*
X010277Y034795D01*
X010211Y034747D01*
X010153Y034689D01*
X010105Y034623D01*
X010068Y034550D01*
X010043Y034472D01*
X010031Y034400D01*
X010031Y034300D02*
X010043Y034228D01*
X010068Y034150D01*
X010105Y034077D01*
X010153Y034011D01*
X010211Y033953D01*
X010277Y033905D01*
X010350Y033868D01*
X010428Y033843D01*
X010500Y033831D01*
X010500Y034300D01*
X010031Y034300D01*
X010047Y034216D02*
X009887Y034216D01*
X009882Y034200D02*
X009907Y034278D01*
X009919Y034350D01*
X009450Y034350D01*
X009450Y033881D01*
X009522Y033893D01*
X009600Y033918D01*
X009673Y033955D01*
X009739Y034003D01*
X009797Y034061D01*
X009845Y034127D01*
X009882Y034200D01*
X009837Y034117D02*
X010085Y034117D01*
X010148Y034019D02*
X009754Y034019D01*
X009603Y033920D02*
X010257Y033920D01*
X010500Y033920D02*
X010600Y033920D01*
X010600Y033831D02*
X010672Y033843D01*
X010750Y033868D01*
X010823Y033905D01*
X010889Y033953D01*
X010947Y034011D01*
X010995Y034077D01*
X011032Y034150D01*
X011057Y034228D01*
X011069Y034300D01*
X010600Y034300D01*
X010600Y034400D01*
X010500Y034400D01*
X010500Y034300D01*
X010600Y034300D01*
X010600Y033831D01*
X010600Y034019D02*
X010500Y034019D01*
X010500Y034117D02*
X010600Y034117D01*
X010600Y034216D02*
X010500Y034216D01*
X010500Y034314D02*
X009913Y034314D01*
X009909Y034511D02*
X010056Y034511D01*
X010099Y034610D02*
X009877Y034610D01*
X009819Y034708D02*
X010173Y034708D01*
X010301Y034807D02*
X009725Y034807D01*
X009450Y034807D02*
X009350Y034807D01*
X009350Y034708D02*
X009450Y034708D01*
X009450Y034610D02*
X009350Y034610D01*
X009350Y034314D02*
X009450Y034314D01*
X009450Y034216D02*
X009350Y034216D01*
X009350Y034117D02*
X009450Y034117D01*
X009450Y034019D02*
X009350Y034019D01*
X009350Y033920D02*
X009450Y033920D01*
X009196Y033920D02*
X003610Y033920D01*
X003610Y033822D02*
X012347Y033822D01*
X012249Y033920D02*
X010843Y033920D01*
X010952Y034019D02*
X012192Y034019D01*
X012151Y034117D02*
X011015Y034117D01*
X011053Y034216D02*
X012111Y034216D01*
X012100Y034314D02*
X010600Y034314D01*
X010600Y034400D02*
X011069Y034400D01*
X011057Y034472D01*
X011032Y034550D01*
X010995Y034623D01*
X010947Y034689D01*
X010889Y034747D01*
X010823Y034795D01*
X010750Y034832D01*
X010672Y034857D01*
X010600Y034869D01*
X010600Y034400D01*
X010600Y034413D02*
X010500Y034413D01*
X010500Y034511D02*
X010600Y034511D01*
X010600Y034610D02*
X010500Y034610D01*
X010500Y034708D02*
X010600Y034708D01*
X010600Y034807D02*
X010500Y034807D01*
X010799Y034807D02*
X012203Y034807D01*
X012162Y034708D02*
X010927Y034708D01*
X011001Y034610D02*
X012121Y034610D01*
X012100Y034511D02*
X011044Y034511D01*
X011067Y034413D02*
X012100Y034413D01*
X012446Y033723D02*
X003610Y033723D01*
X003610Y033625D02*
X012682Y033625D01*
X013118Y033625D02*
X020334Y033625D01*
X020566Y033526D02*
X003610Y033526D01*
X003610Y033428D02*
X033190Y033428D01*
X033190Y033526D02*
X023234Y033526D01*
X023466Y033625D02*
X033190Y033625D01*
X033190Y033723D02*
X023564Y033723D01*
X023663Y033822D02*
X033190Y033822D01*
X033190Y033920D02*
X023737Y033920D01*
X022646Y033526D02*
X021154Y033526D01*
X021386Y033625D02*
X022414Y033625D01*
X022316Y033723D02*
X021484Y033723D01*
X021583Y033822D02*
X022217Y033822D01*
X022143Y033920D02*
X021657Y033920D01*
X021698Y034019D02*
X022102Y034019D01*
X022061Y034117D02*
X021739Y034117D01*
X021779Y034216D02*
X022021Y034216D01*
X022020Y034314D02*
X021780Y034314D01*
X021522Y032657D02*
X021450Y032669D01*
X021450Y032200D01*
X021350Y032200D01*
X021350Y032669D01*
X021278Y032657D01*
X021200Y032632D01*
X021127Y032595D01*
X021061Y032547D01*
X021003Y032489D01*
X020955Y032423D01*
X020918Y032350D01*
X020893Y032272D01*
X020881Y032200D01*
X021350Y032200D01*
X021350Y032100D01*
X020881Y032100D01*
X020893Y032028D01*
X020918Y031950D01*
X015950Y031950D01*
X015950Y031910D02*
X015950Y032290D01*
X015850Y032390D01*
X015110Y032390D01*
X015010Y032290D01*
X015010Y031910D01*
X015070Y031850D01*
X015010Y031790D01*
X015010Y031410D01*
X015070Y031350D01*
X015010Y031290D01*
X015010Y030910D01*
X015070Y030850D01*
X015010Y030790D01*
X015010Y030410D01*
X015110Y030310D01*
X015230Y030310D01*
X015230Y028650D01*
X015268Y028558D01*
X015338Y028488D01*
X015430Y028450D01*
X016110Y028450D01*
X016050Y028390D01*
X016050Y028010D01*
X008650Y028010D01*
X008650Y027912D02*
X016071Y027912D01*
X016050Y027890D02*
X016050Y027510D01*
X016110Y027450D01*
X016110Y027450D01*
X010600Y027450D01*
X010508Y027412D01*
X010438Y027342D01*
X010400Y027250D01*
X010400Y020400D01*
X007350Y020400D01*
X007258Y020362D01*
X007188Y020292D01*
X007150Y020200D01*
X007150Y020150D01*
X004881Y020150D01*
X004858Y020206D01*
X004706Y020358D01*
X004604Y020400D01*
X004706Y020442D01*
X004858Y020594D01*
X004881Y020650D01*
X005950Y020650D01*
X006042Y020688D01*
X008504Y023150D01*
X009012Y023150D01*
X009012Y023111D01*
X009111Y023012D01*
X009689Y023012D01*
X009788Y023111D01*
X009788Y023689D01*
X009689Y023788D01*
X009111Y023788D01*
X009012Y023689D01*
X009012Y023650D01*
X008650Y023650D01*
X008650Y030150D01*
X010062Y030150D01*
X010033Y030122D01*
X010033Y029548D01*
X010095Y029486D01*
X010083Y029474D01*
X010063Y029440D01*
X010053Y029402D01*
X010053Y029214D01*
X010352Y029214D01*
X010352Y029117D01*
X010448Y029117D01*
X010448Y028799D01*
X010617Y028799D01*
X010655Y028809D01*
X010689Y028829D01*
X010717Y028857D01*
X010737Y028891D01*
X010747Y028929D01*
X010747Y029117D01*
X010448Y029117D01*
X010448Y029214D01*
X010747Y029214D01*
X010747Y029402D01*
X010737Y029440D01*
X010717Y029474D01*
X010705Y029486D01*
X010767Y029548D01*
X010767Y030122D01*
X010738Y030150D01*
X013170Y030150D01*
X013262Y030188D01*
X013384Y030310D01*
X013690Y030310D01*
X013790Y030410D01*
X013790Y030790D01*
X013716Y030864D01*
X013740Y030888D01*
X013760Y030922D01*
X013770Y030960D01*
X013770Y031090D01*
X013330Y031090D01*
X013330Y031110D01*
X013770Y031110D01*
X013770Y031240D01*
X013760Y031278D01*
X013740Y031312D01*
X013712Y031340D01*
X013695Y031350D01*
X013712Y031360D01*
X013740Y031388D01*
X013760Y031422D01*
X013770Y031460D01*
X013770Y031590D01*
X013330Y031590D01*
X013330Y031610D01*
X013770Y031610D01*
X013770Y031740D01*
X013760Y031778D01*
X013740Y031812D01*
X013712Y031840D01*
X013695Y031850D01*
X013712Y031860D01*
X013740Y031888D01*
X013760Y031922D01*
X013770Y031960D01*
X013770Y032090D01*
X013330Y032090D01*
X013330Y032110D01*
X013310Y032110D01*
X013310Y032370D01*
X013000Y032370D01*
X012962Y032360D01*
X012928Y032340D01*
X012900Y032312D01*
X012880Y032278D01*
X012870Y032240D01*
X012870Y032110D01*
X013310Y032110D01*
X013310Y032090D01*
X012870Y032090D01*
X012870Y031960D01*
X012880Y031922D01*
X012900Y031888D01*
X012928Y031860D01*
X012945Y031850D01*
X012928Y031840D01*
X012900Y031812D01*
X012880Y031778D01*
X012870Y031740D01*
X012870Y031610D01*
X013310Y031610D01*
X013310Y031870D01*
X013310Y032090D01*
X013330Y032090D01*
X013330Y031610D01*
X013310Y031610D01*
X013310Y031590D01*
X012870Y031590D01*
X012870Y031460D01*
X012880Y031422D01*
X012900Y031388D01*
X012928Y031360D01*
X012945Y031350D01*
X012928Y031340D01*
X012900Y031312D01*
X012880Y031278D01*
X012870Y031240D01*
X012870Y031110D01*
X013310Y031110D01*
X013310Y031370D01*
X013310Y031590D01*
X013330Y031590D01*
X013330Y031110D01*
X013310Y031110D01*
X013310Y031090D01*
X012870Y031090D01*
X012870Y030960D01*
X012880Y030922D01*
X012900Y030888D01*
X012924Y030864D01*
X012850Y030790D01*
X012850Y030650D01*
X008350Y030650D01*
X008258Y030612D01*
X008188Y030542D01*
X008150Y030450D01*
X008150Y023504D01*
X005796Y021150D01*
X004881Y021150D01*
X004858Y021206D01*
X004706Y021358D01*
X004507Y021440D01*
X004293Y021440D01*
X004094Y021358D01*
X003942Y021206D01*
X003860Y021007D01*
X003860Y020793D01*
X003942Y020594D01*
X004094Y020442D01*
X004196Y020400D01*
X004094Y020358D01*
X003942Y020206D01*
X003860Y020007D01*
X003860Y019793D01*
X003942Y019594D01*
X004094Y019442D01*
X004196Y019400D01*
X004094Y019358D01*
X003942Y019206D01*
X003860Y019007D01*
X003860Y018793D01*
X003942Y018594D01*
X004094Y018442D01*
X004196Y018400D01*
X004094Y018358D01*
X003942Y018206D01*
X003860Y018007D01*
X003860Y017793D01*
X003942Y017594D01*
X004094Y017442D01*
X004222Y017389D01*
X004200Y017382D01*
X004127Y017345D01*
X004061Y017297D01*
X004003Y017239D01*
X003955Y017173D01*
X003918Y017100D01*
X003893Y017022D01*
X003881Y016950D01*
X004350Y016950D01*
X004350Y016850D01*
X004450Y016850D01*
X004450Y016950D01*
X004919Y016950D01*
X004907Y017022D01*
X004882Y017100D01*
X004845Y017173D01*
X004797Y017239D01*
X004739Y017297D01*
X004673Y017345D01*
X004600Y017382D01*
X004578Y017389D01*
X004706Y017442D01*
X004858Y017594D01*
X004881Y017650D01*
X011400Y017650D01*
X011400Y011100D01*
X011400Y010950D01*
X011400Y004121D01*
X011383Y004121D01*
X011283Y004022D01*
X011283Y003448D01*
X011345Y003386D01*
X011333Y003374D01*
X011313Y003340D01*
X011303Y003302D01*
X011303Y003114D01*
X011602Y003114D01*
X011602Y003017D01*
X011698Y003017D01*
X011698Y002699D01*
X011867Y002699D01*
X011905Y002709D01*
X011939Y002729D01*
X011967Y002757D01*
X011987Y002791D01*
X011997Y002829D01*
X011997Y003017D01*
X011698Y003017D01*
X011698Y003114D01*
X011997Y003114D01*
X011997Y003302D01*
X011987Y003340D01*
X011967Y003374D01*
X011955Y003386D01*
X012017Y003448D01*
X012017Y003650D01*
X014410Y003650D01*
X014450Y003610D01*
X015190Y003610D01*
X015290Y003710D01*
X015290Y004090D01*
X015216Y004164D01*
X015240Y004188D01*
X015260Y004222D01*
X015270Y004260D01*
X015270Y004390D01*
X014830Y004390D01*
X014830Y004410D01*
X015270Y004410D01*
X015270Y004540D01*
X015260Y004578D01*
X015240Y004612D01*
X015212Y004640D01*
X015195Y004650D01*
X015212Y004660D01*
X015240Y004688D01*
X015260Y004722D01*
X015270Y004760D01*
X015270Y004890D01*
X014830Y004890D01*
X014830Y004910D01*
X015270Y004910D01*
X015270Y005040D01*
X015260Y005078D01*
X015240Y005112D01*
X015212Y005140D01*
X015195Y005150D01*
X015212Y005160D01*
X015240Y005188D01*
X015260Y005222D01*
X015270Y005260D01*
X015270Y005390D01*
X014830Y005390D01*
X014830Y005410D01*
X014810Y005410D01*
X014810Y005670D01*
X014500Y005670D01*
X014462Y005660D01*
X014428Y005640D01*
X014400Y005612D01*
X014380Y005578D01*
X014370Y005540D01*
X014370Y005410D01*
X014810Y005410D01*
X014810Y005390D01*
X014370Y005390D01*
X014370Y005260D01*
X014380Y005222D01*
X014400Y005188D01*
X014428Y005160D01*
X014445Y005150D01*
X014428Y005140D01*
X014400Y005112D01*
X014380Y005078D01*
X014370Y005040D01*
X014370Y004910D01*
X014810Y004910D01*
X014810Y005170D01*
X014810Y005390D01*
X014830Y005390D01*
X014830Y004910D01*
X014810Y004910D01*
X014810Y004890D01*
X014370Y004890D01*
X014370Y004760D01*
X014380Y004722D01*
X014400Y004688D01*
X014428Y004660D01*
X014445Y004650D01*
X014428Y004640D01*
X014400Y004612D01*
X014380Y004578D01*
X014370Y004540D01*
X014370Y004410D01*
X014810Y004410D01*
X014810Y004670D01*
X014810Y004890D01*
X014830Y004890D01*
X014830Y004410D01*
X014810Y004410D01*
X014810Y004390D01*
X014370Y004390D01*
X014370Y004260D01*
X014380Y004222D01*
X014400Y004188D01*
X014424Y004164D01*
X014410Y004150D01*
X011900Y004150D01*
X011900Y010900D01*
X017660Y010900D01*
X017700Y010860D01*
X018440Y010860D01*
X018540Y010960D01*
X018540Y011340D01*
X018480Y011400D01*
X018540Y011460D01*
X018540Y011840D01*
X018480Y011900D01*
X018540Y011960D01*
X018540Y012340D01*
X018480Y012400D01*
X018540Y012460D01*
X018540Y012840D01*
X018440Y012940D01*
X018320Y012940D01*
X018320Y013400D01*
X021669Y013400D01*
X021692Y013344D01*
X021844Y013192D01*
X022043Y013110D01*
X022257Y013110D01*
X022456Y013192D01*
X022608Y013344D01*
X022631Y013400D01*
X023700Y013400D01*
X023792Y013438D01*
X025987Y015633D01*
X026043Y015610D01*
X026257Y015610D01*
X026456Y015692D01*
X026480Y015716D01*
X027438Y014758D01*
X027508Y014688D01*
X027600Y014650D01*
X030966Y014650D01*
X031074Y014542D01*
X031176Y014500D01*
X031074Y014458D01*
X030922Y014306D01*
X030840Y014107D01*
X030840Y013893D01*
X030922Y013694D01*
X031074Y013542D01*
X031273Y013460D01*
X031400Y013460D01*
X031400Y010254D01*
X027296Y006150D01*
X026631Y006150D01*
X026608Y006206D01*
X026456Y006358D01*
X026257Y006440D01*
X026043Y006440D01*
X025844Y006358D01*
X025692Y006206D01*
X025669Y006150D01*
X021900Y006150D01*
X021900Y006900D01*
X022169Y006900D01*
X022192Y006844D01*
X022344Y006692D01*
X022543Y006610D01*
X022757Y006610D01*
X022956Y006692D01*
X023108Y006844D01*
X023190Y007043D01*
X023190Y007257D01*
X023108Y007456D01*
X022956Y007608D01*
X022757Y007690D01*
X022543Y007690D01*
X022344Y007608D01*
X022192Y007456D01*
X022169Y007400D01*
X021600Y007400D01*
X021508Y007362D01*
X021438Y007292D01*
X021400Y007200D01*
X021400Y006150D01*
X017230Y006150D01*
X017230Y007900D01*
X017660Y007900D01*
X017600Y007840D01*
X017600Y007460D01*
X017660Y007400D01*
X017600Y007340D01*
X017600Y007027D01*
X017512Y006939D01*
X017512Y006361D01*
X017611Y006262D01*
X018189Y006262D01*
X018288Y006361D01*
X018288Y006860D01*
X018440Y006860D01*
X018540Y006960D01*
X018540Y007340D01*
X018480Y007400D01*
X018540Y007460D01*
X018540Y007840D01*
X018480Y007900D01*
X018540Y007960D01*
X018540Y008340D01*
X018480Y008400D01*
X018540Y008460D01*
X018540Y008840D01*
X018440Y008940D01*
X017700Y008940D01*
X017600Y008840D01*
X017600Y008460D01*
X017660Y008400D01*
X016930Y008400D01*
X016838Y008362D01*
X016768Y008292D01*
X016730Y008200D01*
X016730Y005690D01*
X016610Y005690D01*
X016510Y005590D01*
X016510Y005210D01*
X016570Y005150D01*
X016510Y005090D01*
X016510Y004710D01*
X016570Y004650D01*
X016510Y004590D01*
X016510Y004210D01*
X016570Y004150D01*
X016570Y004150D01*
X016350Y004150D01*
X016258Y004112D01*
X016188Y004042D01*
X016150Y003950D01*
X016150Y003850D01*
X016188Y003758D01*
X016258Y003688D01*
X016350Y003650D01*
X016570Y003650D01*
X016610Y003610D01*
X017350Y003610D01*
X017450Y003710D01*
X017450Y004090D01*
X017390Y004150D01*
X017450Y004210D01*
X017450Y004590D01*
X017390Y004650D01*
X017450Y004710D01*
X017450Y005090D01*
X017390Y005150D01*
X017450Y005210D01*
X017450Y005590D01*
X017390Y005650D01*
X025669Y005650D01*
X025692Y005594D01*
X025844Y005442D01*
X026043Y005360D01*
X026257Y005360D01*
X026456Y005442D01*
X026608Y005594D01*
X026631Y005650D01*
X027450Y005650D01*
X027542Y005688D01*
X031792Y009938D01*
X031862Y010008D01*
X031900Y010100D01*
X031900Y013460D01*
X032227Y013460D01*
X032426Y013542D01*
X032578Y013694D01*
X032660Y013893D01*
X032660Y014107D01*
X032578Y014306D01*
X032426Y014458D01*
X032324Y014500D01*
X032426Y014542D01*
X032578Y014694D01*
X032660Y014893D01*
X032660Y015107D01*
X032578Y015306D01*
X032426Y015458D01*
X032324Y015500D01*
X032426Y015542D01*
X032578Y015694D01*
X032660Y015893D01*
X032660Y016107D01*
X032578Y016306D01*
X032426Y016458D01*
X032324Y016500D01*
X032426Y016542D01*
X032578Y016694D01*
X032660Y016893D01*
X032660Y017107D01*
X032578Y017306D01*
X032426Y017458D01*
X032227Y017540D01*
X031564Y017540D01*
X029150Y019954D01*
X029150Y028200D01*
X029112Y028292D01*
X029042Y028362D01*
X026792Y030612D01*
X026700Y030650D01*
X024631Y030650D01*
X024608Y030706D01*
X024456Y030858D01*
X024257Y030940D01*
X024043Y030940D01*
X023844Y030858D01*
X023692Y030706D01*
X023610Y030507D01*
X023610Y030293D01*
X023614Y030284D01*
X021612Y028647D01*
X021507Y028690D01*
X021293Y028690D01*
X021237Y028667D01*
X019362Y030542D01*
X019292Y030612D01*
X019200Y030650D01*
X015950Y030650D01*
X015950Y030790D01*
X015890Y030850D01*
X015950Y030910D01*
X015950Y031290D01*
X015890Y031350D01*
X015950Y031410D01*
X015950Y031790D01*
X015890Y031850D01*
X015950Y031910D01*
X015892Y031852D02*
X020974Y031852D01*
X020955Y031877D02*
X021003Y031811D01*
X021061Y031753D01*
X021127Y031705D01*
X021200Y031668D01*
X021278Y031643D01*
X021350Y031631D01*
X021350Y032100D01*
X021450Y032100D01*
X021450Y032200D01*
X021919Y032200D01*
X021907Y032272D01*
X021882Y032350D01*
X021845Y032423D01*
X021797Y032489D01*
X021739Y032547D01*
X021673Y032595D01*
X021600Y032632D01*
X021522Y032657D01*
X021576Y032640D02*
X033190Y032640D01*
X033190Y032738D02*
X003610Y032738D01*
X003610Y032640D02*
X021224Y032640D01*
X021350Y032640D02*
X021450Y032640D01*
X021450Y032541D02*
X021350Y032541D01*
X021350Y032443D02*
X021450Y032443D01*
X021450Y032344D02*
X021350Y032344D01*
X021350Y032246D02*
X021450Y032246D01*
X021450Y032147D02*
X033190Y032147D01*
X033190Y032049D02*
X021910Y032049D01*
X021907Y032028D02*
X021919Y032100D01*
X021450Y032100D01*
X021450Y031631D01*
X021522Y031643D01*
X021600Y031668D01*
X021673Y031705D01*
X021739Y031753D01*
X021797Y031811D01*
X021845Y031877D01*
X021882Y031950D01*
X033190Y031950D01*
X033190Y031852D02*
X021826Y031852D01*
X021882Y031950D02*
X021907Y032028D01*
X021911Y032246D02*
X033190Y032246D01*
X033190Y032344D02*
X021884Y032344D01*
X021830Y032443D02*
X033190Y032443D01*
X033190Y032541D02*
X021744Y032541D01*
X021350Y032147D02*
X015950Y032147D01*
X015950Y032049D02*
X020890Y032049D01*
X020918Y031950D02*
X020955Y031877D01*
X021062Y031753D02*
X015950Y031753D01*
X015950Y031655D02*
X021242Y031655D01*
X021350Y031655D02*
X021450Y031655D01*
X021450Y031753D02*
X021350Y031753D01*
X021350Y031852D02*
X021450Y031852D01*
X021450Y031950D02*
X021350Y031950D01*
X021350Y032049D02*
X021450Y032049D01*
X021558Y031655D02*
X033190Y031655D01*
X033190Y031753D02*
X021738Y031753D01*
X020889Y032246D02*
X015950Y032246D01*
X015896Y032344D02*
X020916Y032344D01*
X020970Y032443D02*
X003610Y032443D01*
X003610Y032541D02*
X021056Y032541D01*
X019332Y030571D02*
X023636Y030571D01*
X023610Y030473D02*
X019431Y030473D01*
X019529Y030374D02*
X023610Y030374D01*
X023603Y030276D02*
X019628Y030276D01*
X019726Y030177D02*
X023483Y030177D01*
X023362Y030079D02*
X019825Y030079D01*
X019923Y029980D02*
X023242Y029980D01*
X023122Y029882D02*
X020022Y029882D01*
X020120Y029783D02*
X023001Y029783D01*
X022881Y029685D02*
X020219Y029685D01*
X020317Y029586D02*
X022760Y029586D01*
X022640Y029488D02*
X020416Y029488D01*
X020514Y029389D02*
X022520Y029389D01*
X022399Y029291D02*
X020613Y029291D01*
X020711Y029192D02*
X022279Y029192D01*
X022158Y029094D02*
X020810Y029094D01*
X020908Y028995D02*
X022038Y028995D01*
X021918Y028897D02*
X021007Y028897D01*
X021105Y028798D02*
X021797Y028798D01*
X021677Y028700D02*
X021204Y028700D01*
X020883Y028313D02*
X020860Y028257D01*
X020860Y028043D01*
X020942Y027844D01*
X021094Y027692D01*
X021293Y027610D01*
X021507Y027610D01*
X021706Y027692D01*
X021858Y027844D01*
X021940Y028043D01*
X021940Y028257D01*
X021936Y028266D01*
X023938Y029903D01*
X024043Y029860D01*
X024257Y029860D01*
X024456Y029942D01*
X024608Y030094D01*
X024631Y030150D01*
X026546Y030150D01*
X028650Y028046D01*
X028650Y019800D01*
X028688Y019708D01*
X031006Y017390D01*
X030922Y017306D01*
X030840Y017107D01*
X030840Y016893D01*
X030922Y016694D01*
X031074Y016542D01*
X031176Y016500D01*
X031074Y016458D01*
X030922Y016306D01*
X030899Y016250D01*
X029904Y016250D01*
X026400Y019754D01*
X026400Y021946D01*
X026440Y022043D01*
X026440Y022257D01*
X026358Y022456D01*
X026206Y022608D01*
X026007Y022690D01*
X025793Y022690D01*
X025594Y022608D01*
X025442Y022456D01*
X025419Y022400D01*
X024131Y022400D01*
X024108Y022456D01*
X023956Y022608D01*
X023757Y022690D01*
X023543Y022690D01*
X023344Y022608D01*
X023192Y022456D01*
X023169Y022400D01*
X017900Y022400D01*
X017900Y024450D01*
X017862Y024542D01*
X017792Y024612D01*
X017700Y024650D01*
X017080Y024650D01*
X017140Y024710D01*
X017140Y025090D01*
X017040Y025190D01*
X016300Y025190D01*
X016200Y025090D01*
X016200Y024710D01*
X016260Y024650D01*
X016200Y024590D01*
X016200Y024210D01*
X016260Y024150D01*
X016200Y024090D01*
X016200Y023710D01*
X016260Y023650D01*
X012288Y023650D01*
X012288Y023689D01*
X012189Y023788D01*
X011611Y023788D01*
X011512Y023689D01*
X011512Y023111D01*
X011611Y023012D01*
X012189Y023012D01*
X012288Y023111D01*
X012288Y023150D01*
X016260Y023150D01*
X016300Y023110D01*
X017040Y023110D01*
X017140Y023210D01*
X017140Y023590D01*
X017080Y023650D01*
X017140Y023710D01*
X017140Y024090D01*
X017080Y024150D01*
X017400Y024150D01*
X017400Y021900D01*
X017040Y021900D01*
X017000Y021940D01*
X016260Y021940D01*
X016160Y021840D01*
X016160Y021460D01*
X016220Y021400D01*
X016160Y021340D01*
X016160Y020960D01*
X016220Y020900D01*
X016160Y020840D01*
X016160Y020460D01*
X016220Y020400D01*
X016160Y020340D01*
X016160Y019960D01*
X016260Y019860D01*
X017000Y019860D01*
X017100Y019960D01*
X017100Y020340D01*
X017040Y020400D01*
X017100Y020460D01*
X017100Y020840D01*
X017040Y020900D01*
X017100Y020960D01*
X017100Y021340D01*
X017040Y021400D01*
X017700Y021400D01*
X017792Y021438D01*
X017862Y021508D01*
X017900Y021600D01*
X017900Y021900D01*
X023169Y021900D01*
X023192Y021844D01*
X023344Y021692D01*
X023543Y021610D01*
X023757Y021610D01*
X023956Y021692D01*
X024108Y021844D01*
X024131Y021900D01*
X025419Y021900D01*
X025442Y021844D01*
X025594Y021692D01*
X025793Y021610D01*
X025900Y021610D01*
X025900Y019600D01*
X025938Y019508D01*
X026008Y019438D01*
X026008Y019438D01*
X029658Y015788D01*
X029750Y015750D01*
X030899Y015750D01*
X030922Y015694D01*
X031074Y015542D01*
X031176Y015500D01*
X031074Y015458D01*
X030922Y015306D01*
X030858Y015150D01*
X027754Y015150D01*
X026690Y016214D01*
X026690Y016257D01*
X026608Y016456D01*
X026456Y016608D01*
X026257Y016690D01*
X026043Y016690D01*
X025844Y016608D01*
X025692Y016456D01*
X025610Y016257D01*
X025610Y016043D01*
X025633Y015987D01*
X023546Y013900D01*
X022631Y013900D01*
X022608Y013956D01*
X022456Y014108D01*
X022257Y014190D01*
X022043Y014190D01*
X021844Y014108D01*
X021692Y013956D01*
X021669Y013900D01*
X018004Y013900D01*
X017400Y014504D01*
X017400Y015410D01*
X017450Y015460D01*
X017450Y015840D01*
X017390Y015900D01*
X017450Y015960D01*
X017450Y016340D01*
X017390Y016400D01*
X017450Y016460D01*
X017450Y016840D01*
X017390Y016900D01*
X017450Y016960D01*
X017450Y017340D01*
X017350Y017440D01*
X016610Y017440D01*
X016510Y017340D01*
X016510Y016960D01*
X016570Y016900D01*
X016510Y016840D01*
X016510Y016460D01*
X016570Y016400D01*
X016510Y016340D01*
X016510Y015960D01*
X016570Y015900D01*
X016510Y015840D01*
X016510Y015460D01*
X016610Y015360D01*
X016900Y015360D01*
X016900Y014350D01*
X016938Y014258D01*
X017008Y014188D01*
X017758Y013438D01*
X017820Y013376D01*
X017820Y012940D01*
X017700Y012940D01*
X017600Y012840D01*
X017600Y012460D01*
X017660Y012400D01*
X017600Y012340D01*
X017600Y011960D01*
X017660Y011900D01*
X017600Y011840D01*
X017600Y011460D01*
X017660Y011400D01*
X017660Y011400D01*
X011900Y011400D01*
X011900Y017950D01*
X011862Y018042D01*
X011792Y018112D01*
X011700Y018150D01*
X004881Y018150D01*
X004858Y018206D01*
X004706Y018358D01*
X004604Y018400D01*
X004706Y018442D01*
X004858Y018594D01*
X004881Y018650D01*
X012400Y018650D01*
X012400Y015600D01*
X012438Y015508D01*
X012508Y015438D01*
X012600Y015400D01*
X012650Y015400D01*
X012650Y014621D01*
X012633Y014621D01*
X012533Y014522D01*
X012533Y013948D01*
X012595Y013886D01*
X012583Y013874D01*
X012563Y013840D01*
X012553Y013802D01*
X012553Y013614D01*
X012852Y013614D01*
X012852Y013517D01*
X012948Y013517D01*
X012948Y013199D01*
X013117Y013199D01*
X013155Y013209D01*
X013189Y013229D01*
X013217Y013257D01*
X013237Y013291D01*
X013247Y013329D01*
X013247Y013517D01*
X012948Y013517D01*
X012948Y013614D01*
X013247Y013614D01*
X013247Y013802D01*
X013237Y013840D01*
X013217Y013874D01*
X013205Y013886D01*
X013267Y013948D01*
X013267Y013985D01*
X014650Y013985D01*
X014650Y012788D01*
X014611Y012788D01*
X014512Y012689D01*
X014512Y012111D01*
X014611Y012012D01*
X015189Y012012D01*
X015288Y012111D01*
X015288Y012689D01*
X015189Y012788D01*
X015150Y012788D01*
X015150Y014284D01*
X015112Y014376D01*
X015042Y014447D01*
X014950Y014485D01*
X013267Y014485D01*
X013267Y014522D01*
X013167Y014621D01*
X013150Y014621D01*
X013150Y015400D01*
X014410Y015400D01*
X014450Y015360D01*
X015190Y015360D01*
X015290Y015460D01*
X015290Y015840D01*
X015216Y015914D01*
X015240Y015938D01*
X015260Y015972D01*
X015270Y016010D01*
X015270Y016140D01*
X014830Y016140D01*
X014830Y016160D01*
X015270Y016160D01*
X015270Y016290D01*
X015260Y016328D01*
X015240Y016362D01*
X015212Y016390D01*
X015195Y016400D01*
X015212Y016410D01*
X015240Y016438D01*
X015260Y016472D01*
X015270Y016510D01*
X015270Y016640D01*
X014830Y016640D01*
X014830Y016660D01*
X015270Y016660D01*
X015270Y016790D01*
X015260Y016828D01*
X015240Y016862D01*
X015212Y016890D01*
X015195Y016900D01*
X015212Y016910D01*
X015240Y016938D01*
X015260Y016972D01*
X015270Y017010D01*
X015270Y017140D01*
X014830Y017140D01*
X014830Y017160D01*
X014810Y017160D01*
X014810Y017420D01*
X014500Y017420D01*
X014462Y017410D01*
X014428Y017390D01*
X014400Y017362D01*
X014380Y017328D01*
X014370Y017290D01*
X014370Y017160D01*
X014810Y017160D01*
X014810Y017140D01*
X014370Y017140D01*
X014370Y017010D01*
X014380Y016972D01*
X014400Y016938D01*
X014428Y016910D01*
X014445Y016900D01*
X014428Y016890D01*
X014400Y016862D01*
X014380Y016828D01*
X014370Y016790D01*
X014370Y016660D01*
X014810Y016660D01*
X014810Y016920D01*
X014810Y017140D01*
X014830Y017140D01*
X014830Y016660D01*
X014810Y016660D01*
X014810Y016640D01*
X014370Y016640D01*
X014370Y016510D01*
X014380Y016472D01*
X014400Y016438D01*
X014428Y016410D01*
X014445Y016400D01*
X014428Y016390D01*
X014400Y016362D01*
X014380Y016328D01*
X014370Y016290D01*
X014370Y016160D01*
X014810Y016160D01*
X014810Y016420D01*
X014810Y016640D01*
X014830Y016640D01*
X014830Y016160D01*
X014810Y016160D01*
X014810Y016140D01*
X014370Y016140D01*
X014370Y016010D01*
X014380Y015972D01*
X014400Y015938D01*
X014424Y015914D01*
X014410Y015900D01*
X012900Y015900D01*
X012900Y018950D01*
X012862Y019042D01*
X012792Y019112D01*
X012700Y019150D01*
X004881Y019150D01*
X004858Y019206D01*
X004706Y019358D01*
X004604Y019400D01*
X004706Y019442D01*
X004858Y019594D01*
X004881Y019650D01*
X007450Y019650D01*
X007542Y019688D01*
X007612Y019758D01*
X007650Y019850D01*
X007650Y019900D01*
X014060Y019900D01*
X014100Y019860D01*
X014840Y019860D01*
X014940Y019960D01*
X014940Y020340D01*
X014866Y020414D01*
X014890Y020438D01*
X014910Y020472D01*
X014920Y020510D01*
X014920Y020640D01*
X014480Y020640D01*
X014480Y020660D01*
X014920Y020660D01*
X014920Y020790D01*
X014910Y020828D01*
X014890Y020862D01*
X014862Y020890D01*
X014845Y020900D01*
X014862Y020910D01*
X014890Y020938D01*
X014910Y020972D01*
X014920Y021010D01*
X014920Y021140D01*
X014480Y021140D01*
X014480Y021160D01*
X014920Y021160D01*
X014920Y021290D01*
X014910Y021328D01*
X014890Y021362D01*
X014862Y021390D01*
X014845Y021400D01*
X014862Y021410D01*
X014890Y021438D01*
X014910Y021472D01*
X014920Y021510D01*
X014920Y021640D01*
X014480Y021640D01*
X014480Y021660D01*
X014460Y021660D01*
X014460Y021920D01*
X014150Y021920D01*
X014112Y021910D01*
X014078Y021890D01*
X014050Y021862D01*
X014030Y021828D01*
X014020Y021790D01*
X014020Y021660D01*
X014460Y021660D01*
X014460Y021640D01*
X014020Y021640D01*
X014020Y021510D01*
X014030Y021472D01*
X014050Y021438D01*
X014078Y021410D01*
X014095Y021400D01*
X014078Y021390D01*
X014050Y021362D01*
X014030Y021328D01*
X014020Y021290D01*
X014020Y021160D01*
X014460Y021160D01*
X014460Y021420D01*
X014460Y021640D01*
X014480Y021640D01*
X014480Y021160D01*
X014460Y021160D01*
X014460Y021140D01*
X014020Y021140D01*
X014020Y021010D01*
X014030Y020972D01*
X014050Y020938D01*
X014078Y020910D01*
X014095Y020900D01*
X014078Y020890D01*
X014050Y020862D01*
X014030Y020828D01*
X014020Y020790D01*
X014020Y020660D01*
X014460Y020660D01*
X014460Y020920D01*
X014460Y021140D01*
X014480Y021140D01*
X014480Y020660D01*
X014460Y020660D01*
X014460Y020640D01*
X014020Y020640D01*
X014020Y020510D01*
X014030Y020472D01*
X014050Y020438D01*
X014074Y020414D01*
X014060Y020400D01*
X010900Y020400D01*
X010900Y026950D01*
X012712Y026950D01*
X012633Y026872D01*
X012633Y026298D01*
X012695Y026236D01*
X012683Y026224D01*
X012663Y026190D01*
X012653Y026152D01*
X012653Y025964D01*
X012952Y025964D01*
X012952Y025867D01*
X013048Y025867D01*
X013048Y025549D01*
X013217Y025549D01*
X013255Y025559D01*
X013289Y025579D01*
X013317Y025607D01*
X013337Y025641D01*
X013347Y025679D01*
X013347Y025867D01*
X013048Y025867D01*
X013048Y025964D01*
X013347Y025964D01*
X013347Y026152D01*
X013337Y026190D01*
X013317Y026224D01*
X013305Y026236D01*
X013367Y026298D01*
X013367Y026872D01*
X013288Y026950D01*
X016110Y026950D01*
X016150Y026910D01*
X016890Y026910D01*
X016990Y027010D01*
X016990Y027390D01*
X016930Y027450D01*
X016990Y027510D01*
X016990Y027890D01*
X016930Y027950D01*
X016990Y028010D01*
X018210Y028010D01*
X018270Y027950D01*
X018210Y027890D01*
X018210Y027510D01*
X018270Y027450D01*
X018210Y027390D01*
X018210Y027010D01*
X018310Y026910D01*
X018400Y026910D01*
X018400Y026406D01*
X018398Y026362D01*
X018400Y026356D01*
X018400Y026350D01*
X018417Y026310D01*
X018522Y026018D01*
X018500Y025966D01*
X018500Y025834D01*
X018550Y025713D01*
X018580Y025683D01*
X018580Y025190D01*
X018460Y025190D01*
X018360Y025090D01*
X018360Y024710D01*
X018420Y024650D01*
X018360Y024590D01*
X018360Y024210D01*
X018420Y024150D01*
X018360Y024090D01*
X018360Y023710D01*
X018420Y023650D01*
X018360Y023590D01*
X018360Y023210D01*
X018460Y023110D01*
X019200Y023110D01*
X019300Y023210D01*
X019300Y023590D01*
X019240Y023650D01*
X019300Y023710D01*
X019300Y024090D01*
X019240Y024150D01*
X019300Y024210D01*
X019300Y024590D01*
X019240Y024650D01*
X019300Y024710D01*
X019300Y025090D01*
X019200Y025190D01*
X019080Y025190D01*
X019080Y025570D01*
X024216Y025570D01*
X024337Y025620D01*
X024430Y025713D01*
X024480Y025834D01*
X024480Y025860D01*
X025436Y025860D01*
X025442Y025844D01*
X025594Y025692D01*
X025793Y025610D01*
X026007Y025610D01*
X026206Y025692D01*
X026358Y025844D01*
X026440Y026043D01*
X026440Y026257D01*
X026358Y026456D01*
X026206Y026608D01*
X026007Y026690D01*
X025793Y026690D01*
X025594Y026608D01*
X025442Y026456D01*
X025436Y026440D01*
X024690Y026440D01*
X024690Y026507D01*
X024608Y026706D01*
X024456Y026858D01*
X024257Y026940D01*
X024043Y026940D01*
X023844Y026858D01*
X023692Y026706D01*
X023610Y026507D01*
X023610Y026293D01*
X023636Y026230D01*
X018977Y026230D01*
X018900Y026444D01*
X018900Y026910D01*
X019050Y026910D01*
X019150Y027010D01*
X019150Y027390D01*
X019090Y027450D01*
X019150Y027510D01*
X019150Y027890D01*
X019090Y027950D01*
X019150Y028010D01*
X020873Y028010D01*
X020860Y028109D02*
X019150Y028109D01*
X019150Y028207D02*
X020860Y028207D01*
X020880Y028306D02*
X019150Y028306D01*
X019150Y028390D02*
X019090Y028450D01*
X019150Y028510D01*
X019150Y028890D01*
X019050Y028990D01*
X018310Y028990D01*
X018210Y028890D01*
X018210Y028510D01*
X018270Y028450D01*
X018210Y028390D01*
X018210Y028010D01*
X018210Y028109D02*
X016990Y028109D01*
X016990Y028207D02*
X018210Y028207D01*
X018210Y028306D02*
X016990Y028306D01*
X016990Y028390D02*
X016930Y028450D01*
X016990Y028510D01*
X016990Y028890D01*
X016890Y028990D01*
X016150Y028990D01*
X016110Y028950D01*
X015730Y028950D01*
X015730Y030150D01*
X019046Y030150D01*
X020883Y028313D01*
X020792Y028404D02*
X019136Y028404D01*
X019150Y028390D02*
X019150Y028010D01*
X019129Y027912D02*
X020914Y027912D01*
X020973Y027813D02*
X019150Y027813D01*
X019150Y027715D02*
X021072Y027715D01*
X021278Y027616D02*
X019150Y027616D01*
X019150Y027518D02*
X028650Y027518D01*
X028650Y027616D02*
X021522Y027616D01*
X021728Y027715D02*
X028650Y027715D01*
X028650Y027813D02*
X021827Y027813D01*
X021886Y027912D02*
X028650Y027912D01*
X028650Y028010D02*
X021927Y028010D01*
X021940Y028109D02*
X028588Y028109D01*
X028489Y028207D02*
X021940Y028207D01*
X021985Y028306D02*
X028391Y028306D01*
X028292Y028404D02*
X022105Y028404D01*
X022226Y028503D02*
X028194Y028503D01*
X028095Y028601D02*
X022346Y028601D01*
X022466Y028700D02*
X027997Y028700D01*
X027898Y028798D02*
X022587Y028798D01*
X022707Y028897D02*
X027800Y028897D01*
X027701Y028995D02*
X022828Y028995D01*
X022948Y029094D02*
X027603Y029094D01*
X027504Y029192D02*
X023068Y029192D01*
X023189Y029291D02*
X027406Y029291D01*
X027307Y029389D02*
X023309Y029389D01*
X023430Y029488D02*
X027209Y029488D01*
X027110Y029586D02*
X023550Y029586D01*
X023670Y029685D02*
X027012Y029685D01*
X026913Y029783D02*
X023791Y029783D01*
X023911Y029882D02*
X023991Y029882D01*
X024309Y029882D02*
X026815Y029882D01*
X026716Y029980D02*
X024494Y029980D01*
X024592Y030079D02*
X026618Y030079D01*
X026931Y030473D02*
X033190Y030473D01*
X033190Y030571D02*
X026832Y030571D01*
X027029Y030374D02*
X033190Y030374D01*
X033190Y030276D02*
X027128Y030276D01*
X027226Y030177D02*
X033190Y030177D01*
X033190Y030079D02*
X027325Y030079D01*
X027423Y029980D02*
X033190Y029980D01*
X033190Y029882D02*
X027522Y029882D01*
X027620Y029783D02*
X033190Y029783D01*
X033190Y029685D02*
X027719Y029685D01*
X027817Y029586D02*
X033190Y029586D01*
X033190Y029488D02*
X027916Y029488D01*
X028014Y029389D02*
X033190Y029389D01*
X033190Y029291D02*
X028113Y029291D01*
X028211Y029192D02*
X033190Y029192D01*
X033190Y029094D02*
X028310Y029094D01*
X028408Y028995D02*
X033190Y028995D01*
X033190Y028897D02*
X028507Y028897D01*
X028605Y028798D02*
X033190Y028798D01*
X033190Y028700D02*
X028704Y028700D01*
X028802Y028601D02*
X033190Y028601D01*
X033190Y028503D02*
X028901Y028503D01*
X028999Y028404D02*
X033190Y028404D01*
X033190Y028306D02*
X029098Y028306D01*
X029147Y028207D02*
X033190Y028207D01*
X033190Y028109D02*
X029150Y028109D01*
X029150Y028010D02*
X033190Y028010D01*
X033190Y027912D02*
X029150Y027912D01*
X029150Y027813D02*
X033190Y027813D01*
X033190Y027715D02*
X029150Y027715D01*
X029150Y027616D02*
X033190Y027616D01*
X033190Y027518D02*
X029150Y027518D01*
X029150Y027419D02*
X033190Y027419D01*
X033190Y027321D02*
X029150Y027321D01*
X029150Y027222D02*
X033190Y027222D01*
X033190Y027124D02*
X029150Y027124D01*
X029150Y027025D02*
X033190Y027025D01*
X033190Y026927D02*
X029150Y026927D01*
X029150Y026828D02*
X033190Y026828D01*
X033190Y026730D02*
X029150Y026730D01*
X029150Y026631D02*
X030900Y026631D01*
X030844Y026608D02*
X031043Y026690D01*
X031257Y026690D01*
X031456Y026608D01*
X031608Y026456D01*
X031690Y026257D01*
X031690Y026043D01*
X031608Y025844D01*
X031456Y025692D01*
X031354Y025650D01*
X031456Y025608D01*
X031608Y025456D01*
X031690Y025257D01*
X031690Y025043D01*
X031608Y024844D01*
X031480Y024716D01*
X031480Y023558D01*
X031517Y023522D01*
X031517Y022948D01*
X031455Y022886D01*
X031467Y022874D01*
X031487Y022840D01*
X031497Y022802D01*
X031497Y022614D01*
X031198Y022614D01*
X031198Y022517D01*
X031198Y022199D01*
X031367Y022199D01*
X031405Y022209D01*
X031439Y022229D01*
X031467Y022257D01*
X031487Y022291D01*
X031497Y022329D01*
X031497Y022517D01*
X031198Y022517D01*
X031102Y022517D01*
X031102Y022199D01*
X030933Y022199D01*
X030895Y022209D01*
X030861Y022229D01*
X030833Y022257D01*
X030813Y022291D01*
X030803Y022329D01*
X030803Y022517D01*
X031102Y022517D01*
X031102Y022614D01*
X030803Y022614D01*
X030803Y022802D01*
X030813Y022840D01*
X030833Y022874D01*
X030845Y022886D01*
X030783Y022948D01*
X030783Y023522D01*
X030820Y023558D01*
X030820Y024716D01*
X030692Y024844D01*
X030610Y025043D01*
X030610Y025257D01*
X030692Y025456D01*
X030844Y025608D01*
X030946Y025650D01*
X030844Y025692D01*
X030692Y025844D01*
X030610Y026043D01*
X030610Y026257D01*
X030692Y026456D01*
X030844Y026608D01*
X030769Y026533D02*
X029150Y026533D01*
X029150Y026434D02*
X030683Y026434D01*
X030642Y026336D02*
X029150Y026336D01*
X029150Y026237D02*
X030610Y026237D01*
X030610Y026139D02*
X029150Y026139D01*
X029150Y026040D02*
X030611Y026040D01*
X030652Y025942D02*
X029150Y025942D01*
X029150Y025843D02*
X030693Y025843D01*
X030792Y025745D02*
X029150Y025745D01*
X029150Y025646D02*
X030937Y025646D01*
X030784Y025548D02*
X029150Y025548D01*
X029150Y025449D02*
X030689Y025449D01*
X030649Y025351D02*
X029150Y025351D01*
X029150Y025252D02*
X030610Y025252D01*
X030610Y025154D02*
X029150Y025154D01*
X029150Y025055D02*
X030610Y025055D01*
X030646Y024957D02*
X029150Y024957D01*
X029150Y024858D02*
X030686Y024858D01*
X030777Y024760D02*
X029150Y024760D01*
X029150Y024661D02*
X030820Y024661D01*
X030820Y024563D02*
X029150Y024563D01*
X029150Y024464D02*
X030820Y024464D01*
X030820Y024366D02*
X029150Y024366D01*
X029150Y024267D02*
X030820Y024267D01*
X030820Y024169D02*
X029150Y024169D01*
X029150Y024070D02*
X030820Y024070D01*
X030820Y023972D02*
X029150Y023972D01*
X029150Y023873D02*
X030820Y023873D01*
X030820Y023775D02*
X029150Y023775D01*
X029150Y023676D02*
X030820Y023676D01*
X030820Y023578D02*
X029150Y023578D01*
X029150Y023479D02*
X030783Y023479D01*
X030783Y023381D02*
X029150Y023381D01*
X029150Y023282D02*
X030783Y023282D01*
X030783Y023184D02*
X029150Y023184D01*
X029150Y023085D02*
X030783Y023085D01*
X030783Y022987D02*
X029150Y022987D01*
X029150Y022888D02*
X030843Y022888D01*
X030803Y022790D02*
X029150Y022790D01*
X029150Y022691D02*
X030803Y022691D01*
X030803Y022494D02*
X029150Y022494D01*
X029150Y022396D02*
X030803Y022396D01*
X030812Y022297D02*
X029150Y022297D01*
X029150Y022199D02*
X033190Y022199D01*
X033190Y022297D02*
X031488Y022297D01*
X031497Y022396D02*
X033190Y022396D01*
X033190Y022494D02*
X031497Y022494D01*
X031497Y022691D02*
X033190Y022691D01*
X033190Y022593D02*
X031198Y022593D01*
X031102Y022593D02*
X029150Y022593D01*
X029150Y022100D02*
X033190Y022100D01*
X033190Y022002D02*
X029150Y022002D01*
X029150Y021903D02*
X033190Y021903D01*
X033190Y021805D02*
X029150Y021805D01*
X029150Y021706D02*
X033190Y021706D01*
X033190Y021608D02*
X029150Y021608D01*
X029150Y021509D02*
X033190Y021509D01*
X033190Y021411D02*
X029150Y021411D01*
X029150Y021312D02*
X033190Y021312D01*
X033190Y021214D02*
X029150Y021214D01*
X029150Y021115D02*
X033190Y021115D01*
X033190Y021017D02*
X029150Y021017D01*
X029150Y020918D02*
X033190Y020918D01*
X033190Y020820D02*
X029150Y020820D01*
X029150Y020721D02*
X033190Y020721D01*
X033190Y020623D02*
X029150Y020623D01*
X029150Y020524D02*
X033190Y020524D01*
X033190Y020426D02*
X029150Y020426D01*
X029150Y020327D02*
X033190Y020327D01*
X033190Y020229D02*
X029150Y020229D01*
X029150Y020130D02*
X033190Y020130D01*
X033190Y020032D02*
X029150Y020032D01*
X029171Y019933D02*
X033190Y019933D01*
X033190Y019835D02*
X029269Y019835D01*
X029368Y019736D02*
X033190Y019736D01*
X033190Y019638D02*
X029466Y019638D01*
X029565Y019539D02*
X033190Y019539D01*
X033190Y019441D02*
X029663Y019441D01*
X029762Y019342D02*
X033190Y019342D01*
X033190Y019244D02*
X029860Y019244D01*
X029959Y019145D02*
X033190Y019145D01*
X033190Y019047D02*
X030057Y019047D01*
X030156Y018948D02*
X033190Y018948D01*
X033190Y018850D02*
X030254Y018850D01*
X030353Y018751D02*
X033190Y018751D01*
X033190Y018653D02*
X030451Y018653D01*
X030550Y018554D02*
X033190Y018554D01*
X033190Y018456D02*
X030648Y018456D01*
X030747Y018357D02*
X033190Y018357D01*
X033190Y018259D02*
X030845Y018259D01*
X030944Y018160D02*
X033190Y018160D01*
X033190Y018062D02*
X031042Y018062D01*
X031141Y017963D02*
X033190Y017963D01*
X033190Y017865D02*
X031239Y017865D01*
X031338Y017766D02*
X033190Y017766D01*
X033190Y017668D02*
X031436Y017668D01*
X031535Y017569D02*
X033190Y017569D01*
X033190Y017471D02*
X032395Y017471D01*
X032512Y017372D02*
X033190Y017372D01*
X033190Y017274D02*
X032591Y017274D01*
X032632Y017175D02*
X033190Y017175D01*
X033190Y017077D02*
X032660Y017077D01*
X032660Y016978D02*
X033190Y016978D01*
X033190Y016880D02*
X032655Y016880D01*
X032614Y016781D02*
X033190Y016781D01*
X033190Y016683D02*
X032566Y016683D01*
X032468Y016584D02*
X033190Y016584D01*
X033190Y016486D02*
X032359Y016486D01*
X032497Y016387D02*
X033190Y016387D01*
X033190Y016289D02*
X032585Y016289D01*
X032626Y016190D02*
X033190Y016190D01*
X033190Y016092D02*
X032660Y016092D01*
X032660Y015993D02*
X033190Y015993D01*
X033190Y015895D02*
X032660Y015895D01*
X032620Y015796D02*
X033190Y015796D01*
X033190Y015698D02*
X032579Y015698D01*
X032483Y015599D02*
X033190Y015599D01*
X033190Y015501D02*
X032325Y015501D01*
X032482Y015402D02*
X033190Y015402D01*
X033190Y015304D02*
X032579Y015304D01*
X032620Y015205D02*
X033190Y015205D01*
X033190Y015107D02*
X032660Y015107D01*
X032660Y015008D02*
X033190Y015008D01*
X033190Y014910D02*
X032660Y014910D01*
X032626Y014811D02*
X033190Y014811D01*
X033190Y014713D02*
X032585Y014713D01*
X032498Y014614D02*
X033190Y014614D01*
X033190Y014516D02*
X032361Y014516D01*
X032467Y014417D02*
X033190Y014417D01*
X033190Y014319D02*
X032565Y014319D01*
X032613Y014220D02*
X033190Y014220D01*
X033190Y014122D02*
X032654Y014122D01*
X032660Y014023D02*
X033190Y014023D01*
X033190Y013925D02*
X032660Y013925D01*
X032632Y013826D02*
X033190Y013826D01*
X033190Y013728D02*
X032592Y013728D01*
X032513Y013629D02*
X033190Y013629D01*
X033190Y013531D02*
X032398Y013531D01*
X031900Y013432D02*
X033190Y013432D01*
X033190Y013334D02*
X031900Y013334D01*
X031900Y013235D02*
X033190Y013235D01*
X033190Y013137D02*
X031900Y013137D01*
X031900Y013038D02*
X033190Y013038D01*
X033190Y012940D02*
X031900Y012940D01*
X031900Y012841D02*
X033190Y012841D01*
X033190Y012743D02*
X031900Y012743D01*
X031900Y012644D02*
X033190Y012644D01*
X033190Y012546D02*
X031900Y012546D01*
X031900Y012447D02*
X033190Y012447D01*
X033190Y012349D02*
X031900Y012349D01*
X031900Y012250D02*
X033190Y012250D01*
X033190Y012152D02*
X031900Y012152D01*
X031900Y012053D02*
X033190Y012053D01*
X033190Y011955D02*
X031900Y011955D01*
X031900Y011856D02*
X033190Y011856D01*
X033190Y011758D02*
X031900Y011758D01*
X031900Y011659D02*
X033190Y011659D01*
X033190Y011561D02*
X031900Y011561D01*
X031900Y011462D02*
X033190Y011462D01*
X033190Y011364D02*
X031900Y011364D01*
X031900Y011265D02*
X033190Y011265D01*
X033190Y011167D02*
X031900Y011167D01*
X031900Y011068D02*
X033190Y011068D01*
X033190Y010970D02*
X031900Y010970D01*
X031900Y010871D02*
X033190Y010871D01*
X033190Y010773D02*
X031900Y010773D01*
X031900Y010674D02*
X033190Y010674D01*
X033190Y010576D02*
X031900Y010576D01*
X031900Y010477D02*
X033190Y010477D01*
X033190Y010379D02*
X031900Y010379D01*
X031900Y010280D02*
X033190Y010280D01*
X033190Y010182D02*
X031900Y010182D01*
X031893Y010083D02*
X033190Y010083D01*
X033190Y009985D02*
X031838Y009985D01*
X031740Y009886D02*
X033190Y009886D01*
X033190Y009788D02*
X031641Y009788D01*
X031543Y009689D02*
X033190Y009689D01*
X033190Y009591D02*
X031444Y009591D01*
X031346Y009492D02*
X033190Y009492D01*
X033190Y009394D02*
X031247Y009394D01*
X031149Y009295D02*
X033190Y009295D01*
X033190Y009197D02*
X031050Y009197D01*
X030952Y009098D02*
X033190Y009098D01*
X033190Y009000D02*
X030853Y009000D01*
X030755Y008901D02*
X033190Y008901D01*
X033190Y008803D02*
X030656Y008803D01*
X030558Y008704D02*
X033190Y008704D01*
X033190Y008606D02*
X030459Y008606D01*
X030361Y008507D02*
X033190Y008507D01*
X033190Y008409D02*
X030262Y008409D01*
X030164Y008310D02*
X033190Y008310D01*
X033190Y008212D02*
X030065Y008212D01*
X029967Y008113D02*
X033190Y008113D01*
X033190Y008015D02*
X029868Y008015D01*
X029770Y007916D02*
X033190Y007916D01*
X033190Y007818D02*
X029671Y007818D01*
X029573Y007719D02*
X033190Y007719D01*
X033190Y007621D02*
X029474Y007621D01*
X029376Y007522D02*
X033190Y007522D01*
X033190Y007424D02*
X029277Y007424D01*
X029179Y007325D02*
X033190Y007325D01*
X033190Y007227D02*
X029080Y007227D01*
X028982Y007128D02*
X033190Y007128D01*
X033190Y007030D02*
X028883Y007030D01*
X028785Y006931D02*
X033190Y006931D01*
X033190Y006833D02*
X028686Y006833D01*
X028588Y006734D02*
X033190Y006734D01*
X033190Y006636D02*
X028489Y006636D01*
X028391Y006537D02*
X033190Y006537D01*
X033190Y006439D02*
X028292Y006439D01*
X028194Y006340D02*
X033190Y006340D01*
X033190Y006242D02*
X028095Y006242D01*
X027997Y006143D02*
X033190Y006143D01*
X033190Y006045D02*
X027898Y006045D01*
X027800Y005946D02*
X033190Y005946D01*
X033190Y005848D02*
X027701Y005848D01*
X027603Y005749D02*
X033190Y005749D01*
X033190Y005651D02*
X031178Y005651D01*
X031059Y005700D02*
X030741Y005700D01*
X030447Y005578D01*
X030222Y005353D01*
X030100Y005059D01*
X030100Y004741D01*
X030222Y004447D01*
X030447Y004222D01*
X030741Y004100D01*
X031059Y004100D01*
X031353Y004222D01*
X031578Y004447D01*
X031700Y004741D01*
X031700Y005059D01*
X031578Y005353D01*
X031353Y005578D01*
X031059Y005700D01*
X031379Y005552D02*
X033190Y005552D01*
X033190Y005454D02*
X031478Y005454D01*
X031576Y005355D02*
X033190Y005355D01*
X033190Y005257D02*
X031618Y005257D01*
X031659Y005158D02*
X033190Y005158D01*
X033190Y005060D02*
X031700Y005060D01*
X031700Y004961D02*
X033190Y004961D01*
X033190Y004863D02*
X031700Y004863D01*
X031700Y004764D02*
X033190Y004764D01*
X033190Y004666D02*
X031669Y004666D01*
X031628Y004567D02*
X033190Y004567D01*
X033190Y004469D02*
X031587Y004469D01*
X031501Y004370D02*
X033190Y004370D01*
X033190Y004272D02*
X031403Y004272D01*
X031235Y004173D02*
X033190Y004173D01*
X033190Y004075D02*
X017450Y004075D01*
X017450Y003976D02*
X033190Y003976D01*
X033190Y003878D02*
X017450Y003878D01*
X017450Y003779D02*
X033190Y003779D01*
X033190Y003681D02*
X017421Y003681D01*
X017413Y004173D02*
X030565Y004173D01*
X030397Y004272D02*
X017450Y004272D01*
X017450Y004370D02*
X030299Y004370D01*
X030213Y004469D02*
X017450Y004469D01*
X017450Y004567D02*
X030172Y004567D01*
X030131Y004666D02*
X017406Y004666D01*
X017450Y004764D02*
X030100Y004764D01*
X030100Y004863D02*
X017450Y004863D01*
X017450Y004961D02*
X030100Y004961D01*
X030100Y005060D02*
X017450Y005060D01*
X017398Y005158D02*
X030141Y005158D01*
X030182Y005257D02*
X017450Y005257D01*
X017450Y005355D02*
X030224Y005355D01*
X030322Y005454D02*
X026467Y005454D01*
X026566Y005552D02*
X030421Y005552D01*
X030622Y005651D02*
X027451Y005651D01*
X027388Y006242D02*
X026572Y006242D01*
X026474Y006340D02*
X027486Y006340D01*
X027585Y006439D02*
X026261Y006439D01*
X026039Y006439D02*
X021900Y006439D01*
X021900Y006537D02*
X027683Y006537D01*
X027782Y006636D02*
X022819Y006636D01*
X022998Y006734D02*
X027880Y006734D01*
X027979Y006833D02*
X023096Y006833D01*
X023144Y006931D02*
X028077Y006931D01*
X028176Y007030D02*
X023185Y007030D01*
X023190Y007128D02*
X028274Y007128D01*
X028373Y007227D02*
X023190Y007227D01*
X023162Y007325D02*
X028471Y007325D01*
X028570Y007424D02*
X023121Y007424D01*
X023042Y007522D02*
X028668Y007522D01*
X028767Y007621D02*
X022925Y007621D01*
X022375Y007621D02*
X020700Y007621D01*
X020700Y007719D02*
X028865Y007719D01*
X028964Y007818D02*
X020700Y007818D01*
X020700Y007840D02*
X020650Y007890D01*
X020650Y007910D01*
X020700Y007960D01*
X020700Y008340D01*
X020650Y008390D01*
X020650Y008410D01*
X020700Y008460D01*
X020700Y008840D01*
X020650Y008890D01*
X020650Y009570D01*
X025716Y009570D01*
X025844Y009442D01*
X026043Y009360D01*
X026257Y009360D01*
X026456Y009442D01*
X026608Y009594D01*
X026690Y009793D01*
X026690Y010007D01*
X026608Y010206D01*
X026480Y010334D01*
X026480Y011716D01*
X026608Y011844D01*
X026690Y012043D01*
X026690Y012257D01*
X026608Y012456D01*
X026456Y012608D01*
X026257Y012690D01*
X026043Y012690D01*
X025844Y012608D01*
X025692Y012456D01*
X025610Y012257D01*
X025610Y012043D01*
X025692Y011844D01*
X025820Y011716D01*
X025820Y010334D01*
X025716Y010230D01*
X020650Y010230D01*
X020650Y010910D01*
X020700Y010960D01*
X020700Y011340D01*
X020640Y011400D01*
X020700Y011460D01*
X020700Y011840D01*
X020640Y011900D01*
X020700Y011960D01*
X020700Y012340D01*
X020640Y012400D01*
X020700Y012460D01*
X020700Y012840D01*
X020600Y012940D01*
X019860Y012940D01*
X019760Y012840D01*
X019760Y012460D01*
X019820Y012400D01*
X019760Y012340D01*
X019760Y011960D01*
X019820Y011900D01*
X019760Y011840D01*
X019760Y011460D01*
X019820Y011400D01*
X019760Y011340D01*
X019760Y010960D01*
X019860Y010860D01*
X020150Y010860D01*
X020150Y010117D01*
X020120Y010087D01*
X020070Y009966D01*
X020070Y009834D01*
X020120Y009713D01*
X020150Y009683D01*
X020150Y008940D01*
X019860Y008940D01*
X019760Y008840D01*
X019760Y008460D01*
X019820Y008400D01*
X019760Y008340D01*
X019760Y007960D01*
X019820Y007900D01*
X019760Y007840D01*
X019760Y007613D01*
X019758Y007612D01*
X019688Y007542D01*
X019650Y007450D01*
X019650Y007100D01*
X019688Y007008D01*
X019758Y006938D01*
X019798Y006922D01*
X019860Y006860D01*
X020600Y006860D01*
X020700Y006960D01*
X020700Y007340D01*
X020650Y007390D01*
X020650Y007410D01*
X020700Y007460D01*
X020700Y007840D01*
X020656Y007916D02*
X029062Y007916D01*
X029161Y008015D02*
X020700Y008015D01*
X020700Y008113D02*
X029259Y008113D01*
X029358Y008212D02*
X020700Y008212D01*
X020700Y008310D02*
X029456Y008310D01*
X029555Y008409D02*
X020650Y008409D01*
X020700Y008507D02*
X029653Y008507D01*
X029752Y008606D02*
X020700Y008606D01*
X020700Y008704D02*
X029850Y008704D01*
X029949Y008803D02*
X020700Y008803D01*
X020650Y008901D02*
X030047Y008901D01*
X030146Y009000D02*
X020650Y009000D01*
X020650Y009098D02*
X030244Y009098D01*
X030343Y009197D02*
X020650Y009197D01*
X020650Y009295D02*
X030441Y009295D01*
X030540Y009394D02*
X026338Y009394D01*
X026506Y009492D02*
X030638Y009492D01*
X030737Y009591D02*
X026604Y009591D01*
X026647Y009689D02*
X030835Y009689D01*
X030934Y009788D02*
X026688Y009788D01*
X026690Y009886D02*
X031032Y009886D01*
X031131Y009985D02*
X026690Y009985D01*
X026659Y010083D02*
X031229Y010083D01*
X031328Y010182D02*
X026618Y010182D01*
X026534Y010280D02*
X031400Y010280D01*
X031400Y010379D02*
X026480Y010379D01*
X026480Y010477D02*
X031400Y010477D01*
X031400Y010576D02*
X026480Y010576D01*
X026480Y010674D02*
X031400Y010674D01*
X031400Y010773D02*
X026480Y010773D01*
X026480Y010871D02*
X031400Y010871D01*
X031400Y010970D02*
X026480Y010970D01*
X026480Y011068D02*
X031400Y011068D01*
X031400Y011167D02*
X026480Y011167D01*
X026480Y011265D02*
X031400Y011265D01*
X031400Y011364D02*
X026480Y011364D01*
X026480Y011462D02*
X031400Y011462D01*
X031400Y011561D02*
X026480Y011561D01*
X026480Y011659D02*
X031400Y011659D01*
X031400Y011758D02*
X026521Y011758D01*
X026613Y011856D02*
X031400Y011856D01*
X031400Y011955D02*
X026654Y011955D01*
X026690Y012053D02*
X031400Y012053D01*
X031400Y012152D02*
X026690Y012152D01*
X026690Y012250D02*
X031400Y012250D01*
X031400Y012349D02*
X026652Y012349D01*
X026611Y012447D02*
X031400Y012447D01*
X031400Y012546D02*
X026518Y012546D01*
X026368Y012644D02*
X031400Y012644D01*
X031400Y012743D02*
X020700Y012743D01*
X020699Y012841D02*
X031400Y012841D01*
X031400Y012940D02*
X020601Y012940D01*
X020700Y012644D02*
X025932Y012644D01*
X025782Y012546D02*
X020700Y012546D01*
X020687Y012447D02*
X025689Y012447D01*
X025648Y012349D02*
X020692Y012349D01*
X020700Y012250D02*
X025610Y012250D01*
X025610Y012152D02*
X020700Y012152D01*
X020700Y012053D02*
X025610Y012053D01*
X025646Y011955D02*
X020695Y011955D01*
X020684Y011856D02*
X025687Y011856D01*
X025779Y011758D02*
X020700Y011758D01*
X020700Y011659D02*
X025820Y011659D01*
X025820Y011561D02*
X020700Y011561D01*
X020700Y011462D02*
X025820Y011462D01*
X025820Y011364D02*
X020677Y011364D01*
X020700Y011265D02*
X025820Y011265D01*
X025820Y011167D02*
X020700Y011167D01*
X020700Y011068D02*
X025820Y011068D01*
X025820Y010970D02*
X020700Y010970D01*
X020650Y010871D02*
X025820Y010871D01*
X025820Y010773D02*
X020650Y010773D01*
X020650Y010674D02*
X025820Y010674D01*
X025820Y010576D02*
X020650Y010576D01*
X020650Y010477D02*
X025820Y010477D01*
X025820Y010379D02*
X020650Y010379D01*
X020650Y010280D02*
X025766Y010280D01*
X025794Y009492D02*
X020650Y009492D01*
X020650Y009394D02*
X025962Y009394D01*
X025826Y006340D02*
X021900Y006340D01*
X021900Y006242D02*
X025728Y006242D01*
X025734Y005552D02*
X017450Y005552D01*
X017450Y005454D02*
X025833Y005454D01*
X023132Y003350D02*
X023157Y003272D01*
X023169Y003200D01*
X022700Y003200D01*
X022600Y003200D01*
X022600Y003669D01*
X022528Y003657D01*
X022450Y003632D01*
X022377Y003595D01*
X022311Y003547D01*
X022253Y003489D01*
X022205Y003423D01*
X022168Y003350D01*
X022143Y003272D01*
X022131Y003200D01*
X022600Y003200D01*
X022600Y003100D01*
X022131Y003100D01*
X022143Y003028D01*
X022168Y002950D01*
X022205Y002877D01*
X022253Y002811D01*
X022311Y002753D01*
X022377Y002705D01*
X022450Y002668D01*
X022528Y002643D01*
X022600Y002631D01*
X022600Y003100D01*
X022700Y003100D01*
X022700Y003200D01*
X022700Y003669D01*
X022772Y003657D01*
X022850Y003632D01*
X022923Y003595D01*
X022989Y003547D01*
X023047Y003489D01*
X023095Y003423D01*
X023132Y003350D01*
X023114Y003385D02*
X033190Y003385D01*
X033190Y003287D02*
X023152Y003287D01*
X023169Y003100D02*
X022700Y003100D01*
X022700Y002631D01*
X022772Y002643D01*
X022850Y002668D01*
X022923Y002705D01*
X022989Y002753D01*
X023047Y002811D01*
X023095Y002877D01*
X023132Y002950D01*
X023157Y003028D01*
X023169Y003100D01*
X023167Y003090D02*
X033190Y003090D01*
X033190Y003188D02*
X022700Y003188D01*
X022700Y003090D02*
X022600Y003090D01*
X022600Y003188D02*
X011997Y003188D01*
X011997Y003287D02*
X022148Y003287D01*
X022186Y003385D02*
X011956Y003385D01*
X012017Y003484D02*
X022250Y003484D01*
X022360Y003582D02*
X012017Y003582D01*
X011698Y003090D02*
X022133Y003090D01*
X022155Y002991D02*
X011997Y002991D01*
X011997Y002893D02*
X022198Y002893D01*
X022271Y002794D02*
X011987Y002794D01*
X011698Y002794D02*
X011602Y002794D01*
X011602Y002699D02*
X011602Y003017D01*
X011303Y003017D01*
X011303Y002829D01*
X011313Y002791D01*
X011333Y002757D01*
X011361Y002729D01*
X011395Y002709D01*
X011433Y002699D01*
X011602Y002699D01*
X011602Y002893D02*
X011698Y002893D01*
X011698Y002991D02*
X011602Y002991D01*
X011602Y003090D02*
X003610Y003090D01*
X003610Y003188D02*
X011303Y003188D01*
X011303Y003287D02*
X003610Y003287D01*
X003610Y003385D02*
X011344Y003385D01*
X011283Y003484D02*
X003610Y003484D01*
X003610Y003582D02*
X011283Y003582D01*
X011283Y003681D02*
X003610Y003681D01*
X003610Y003779D02*
X011283Y003779D01*
X011283Y003878D02*
X003610Y003878D01*
X003610Y003976D02*
X011283Y003976D01*
X011336Y004075D02*
X003610Y004075D01*
X003610Y004173D02*
X005565Y004173D01*
X005447Y004222D02*
X005741Y004100D01*
X006059Y004100D01*
X006353Y004222D01*
X006578Y004447D01*
X006700Y004741D01*
X006700Y005059D01*
X006578Y005353D01*
X006353Y005578D01*
X006059Y005700D01*
X005741Y005700D01*
X005447Y005578D01*
X005222Y005353D01*
X005100Y005059D01*
X005100Y004741D01*
X005222Y004447D01*
X005447Y004222D01*
X005397Y004272D02*
X003610Y004272D01*
X003610Y004370D02*
X005299Y004370D01*
X005213Y004469D02*
X003610Y004469D01*
X003610Y004567D02*
X005172Y004567D01*
X005131Y004666D02*
X003610Y004666D01*
X003610Y004764D02*
X005100Y004764D01*
X005100Y004863D02*
X003610Y004863D01*
X003610Y004961D02*
X005100Y004961D01*
X005100Y005060D02*
X003610Y005060D01*
X003610Y005158D02*
X005141Y005158D01*
X005182Y005257D02*
X003610Y005257D01*
X003610Y005355D02*
X005224Y005355D01*
X005322Y005454D02*
X003610Y005454D01*
X003610Y005552D02*
X005421Y005552D01*
X005622Y005651D02*
X003610Y005651D01*
X003610Y005749D02*
X008868Y005749D01*
X008947Y005828D02*
X008722Y005603D01*
X008600Y005309D01*
X008600Y004991D01*
X008722Y004697D01*
X008947Y004472D01*
X009241Y004350D01*
X009559Y004350D01*
X009853Y004472D01*
X010078Y004697D01*
X010200Y004991D01*
X010200Y005309D01*
X010078Y005603D01*
X009853Y005828D01*
X009559Y005950D01*
X009241Y005950D01*
X008947Y005828D01*
X008994Y005848D02*
X003610Y005848D01*
X003610Y005946D02*
X009231Y005946D01*
X009569Y005946D02*
X011400Y005946D01*
X011400Y005848D02*
X009806Y005848D01*
X009932Y005749D02*
X011400Y005749D01*
X011400Y005651D02*
X010031Y005651D01*
X010099Y005552D02*
X011400Y005552D01*
X011400Y005454D02*
X010140Y005454D01*
X010181Y005355D02*
X011400Y005355D01*
X011400Y005257D02*
X010200Y005257D01*
X010200Y005158D02*
X011400Y005158D01*
X011400Y005060D02*
X010200Y005060D01*
X010188Y004961D02*
X011400Y004961D01*
X011400Y004863D02*
X010147Y004863D01*
X010106Y004764D02*
X011400Y004764D01*
X011400Y004666D02*
X010047Y004666D01*
X009948Y004567D02*
X011400Y004567D01*
X011400Y004469D02*
X009845Y004469D01*
X009607Y004370D02*
X011400Y004370D01*
X011400Y004272D02*
X006403Y004272D01*
X006501Y004370D02*
X009193Y004370D01*
X008955Y004469D02*
X006587Y004469D01*
X006628Y004567D02*
X008852Y004567D01*
X008753Y004666D02*
X006669Y004666D01*
X006700Y004764D02*
X008694Y004764D01*
X008653Y004863D02*
X006700Y004863D01*
X006700Y004961D02*
X008612Y004961D01*
X008600Y005060D02*
X006700Y005060D01*
X006659Y005158D02*
X008600Y005158D01*
X008600Y005257D02*
X006618Y005257D01*
X006576Y005355D02*
X008619Y005355D01*
X008660Y005454D02*
X006478Y005454D01*
X006379Y005552D02*
X008701Y005552D01*
X008769Y005651D02*
X006178Y005651D01*
X006235Y004173D02*
X011400Y004173D01*
X011900Y004173D02*
X014415Y004173D01*
X014370Y004272D02*
X011900Y004272D01*
X011900Y004370D02*
X014370Y004370D01*
X014370Y004469D02*
X011900Y004469D01*
X011900Y004567D02*
X014377Y004567D01*
X014422Y004666D02*
X011900Y004666D01*
X011900Y004764D02*
X014370Y004764D01*
X014370Y004863D02*
X011900Y004863D01*
X011900Y004961D02*
X014370Y004961D01*
X014375Y005060D02*
X011900Y005060D01*
X011900Y005158D02*
X014431Y005158D01*
X014371Y005257D02*
X011900Y005257D01*
X011900Y005355D02*
X014370Y005355D01*
X014370Y005454D02*
X011900Y005454D01*
X011900Y005552D02*
X014373Y005552D01*
X014446Y005651D02*
X011900Y005651D01*
X011900Y005749D02*
X016730Y005749D01*
X016730Y005848D02*
X011900Y005848D01*
X011900Y005946D02*
X016730Y005946D01*
X016730Y006045D02*
X011900Y006045D01*
X011900Y006143D02*
X016730Y006143D01*
X016730Y006242D02*
X011900Y006242D01*
X011900Y006340D02*
X016730Y006340D01*
X016730Y006439D02*
X011900Y006439D01*
X011900Y006537D02*
X016730Y006537D01*
X016730Y006636D02*
X011900Y006636D01*
X011900Y006734D02*
X016730Y006734D01*
X016730Y006833D02*
X011900Y006833D01*
X011900Y006931D02*
X016730Y006931D01*
X016730Y007030D02*
X011900Y007030D01*
X011900Y007128D02*
X016730Y007128D01*
X016730Y007227D02*
X011900Y007227D01*
X011900Y007325D02*
X016730Y007325D01*
X016730Y007424D02*
X011900Y007424D01*
X011900Y007522D02*
X016730Y007522D01*
X016730Y007621D02*
X011900Y007621D01*
X011900Y007719D02*
X016730Y007719D01*
X016730Y007818D02*
X011900Y007818D01*
X011900Y007916D02*
X016730Y007916D01*
X016730Y008015D02*
X011900Y008015D01*
X011900Y008113D02*
X016730Y008113D01*
X016735Y008212D02*
X011900Y008212D01*
X011900Y008310D02*
X016786Y008310D01*
X017230Y007818D02*
X017600Y007818D01*
X017600Y007719D02*
X017230Y007719D01*
X017230Y007621D02*
X017600Y007621D01*
X017600Y007522D02*
X017230Y007522D01*
X017230Y007424D02*
X017636Y007424D01*
X017600Y007325D02*
X017230Y007325D01*
X017230Y007227D02*
X017600Y007227D01*
X017600Y007128D02*
X017230Y007128D01*
X017230Y007030D02*
X017600Y007030D01*
X017512Y006931D02*
X017230Y006931D01*
X017230Y006833D02*
X017512Y006833D01*
X017512Y006734D02*
X017230Y006734D01*
X017230Y006636D02*
X017512Y006636D01*
X017512Y006537D02*
X017230Y006537D01*
X017230Y006439D02*
X017512Y006439D01*
X017533Y006340D02*
X017230Y006340D01*
X017230Y006242D02*
X021400Y006242D01*
X021400Y006340D02*
X018267Y006340D01*
X018288Y006439D02*
X021400Y006439D01*
X021400Y006537D02*
X018288Y006537D01*
X018288Y006636D02*
X021400Y006636D01*
X021400Y006734D02*
X018288Y006734D01*
X018288Y006833D02*
X021400Y006833D01*
X021400Y006931D02*
X020671Y006931D01*
X020700Y007030D02*
X021400Y007030D01*
X021400Y007128D02*
X020700Y007128D01*
X020700Y007227D02*
X021411Y007227D01*
X021471Y007325D02*
X020700Y007325D01*
X020664Y007424D02*
X022179Y007424D01*
X022258Y007522D02*
X020700Y007522D01*
X019804Y007916D02*
X018496Y007916D01*
X018540Y007818D02*
X019760Y007818D01*
X019760Y007719D02*
X018540Y007719D01*
X018540Y007621D02*
X019760Y007621D01*
X019680Y007522D02*
X018540Y007522D01*
X018504Y007424D02*
X019650Y007424D01*
X019650Y007325D02*
X018540Y007325D01*
X018540Y007227D02*
X019650Y007227D01*
X019650Y007128D02*
X018540Y007128D01*
X018540Y007030D02*
X019679Y007030D01*
X019775Y006931D02*
X018511Y006931D01*
X018540Y008015D02*
X019760Y008015D01*
X019760Y008113D02*
X018540Y008113D01*
X018540Y008212D02*
X019760Y008212D01*
X019760Y008310D02*
X018540Y008310D01*
X018489Y008409D02*
X019811Y008409D01*
X019760Y008507D02*
X018540Y008507D01*
X018540Y008606D02*
X019760Y008606D01*
X019760Y008704D02*
X018540Y008704D01*
X018540Y008803D02*
X019760Y008803D01*
X019821Y008901D02*
X018479Y008901D01*
X017661Y008901D02*
X011900Y008901D01*
X011900Y008803D02*
X017600Y008803D01*
X017600Y008704D02*
X011900Y008704D01*
X011900Y008606D02*
X017600Y008606D01*
X017600Y008507D02*
X011900Y008507D01*
X011900Y008409D02*
X017651Y008409D01*
X017660Y008400D02*
X017660Y008400D01*
X017689Y010871D02*
X011900Y010871D01*
X011900Y010773D02*
X020150Y010773D01*
X020150Y010674D02*
X011900Y010674D01*
X011900Y010576D02*
X020150Y010576D01*
X020150Y010477D02*
X011900Y010477D01*
X011900Y010379D02*
X020150Y010379D01*
X020150Y010280D02*
X011900Y010280D01*
X011900Y010182D02*
X020150Y010182D01*
X020119Y010083D02*
X011900Y010083D01*
X011900Y009985D02*
X020078Y009985D01*
X020070Y009886D02*
X011900Y009886D01*
X011900Y009788D02*
X020089Y009788D01*
X020144Y009689D02*
X011900Y009689D01*
X011900Y009591D02*
X020150Y009591D01*
X020150Y009492D02*
X011900Y009492D01*
X011900Y009394D02*
X020150Y009394D01*
X020150Y009295D02*
X011900Y009295D01*
X011900Y009197D02*
X020150Y009197D01*
X020150Y009098D02*
X011900Y009098D01*
X011900Y009000D02*
X020150Y009000D01*
X019849Y010871D02*
X018451Y010871D01*
X018540Y010970D02*
X019760Y010970D01*
X019760Y011068D02*
X018540Y011068D01*
X018540Y011167D02*
X019760Y011167D01*
X019760Y011265D02*
X018540Y011265D01*
X018517Y011364D02*
X019783Y011364D01*
X019760Y011462D02*
X018540Y011462D01*
X018540Y011561D02*
X019760Y011561D01*
X019760Y011659D02*
X018540Y011659D01*
X018540Y011758D02*
X019760Y011758D01*
X019776Y011856D02*
X018524Y011856D01*
X018535Y011955D02*
X019765Y011955D01*
X019760Y012053D02*
X018540Y012053D01*
X018540Y012152D02*
X019760Y012152D01*
X019760Y012250D02*
X018540Y012250D01*
X018532Y012349D02*
X019768Y012349D01*
X019773Y012447D02*
X018527Y012447D01*
X018540Y012546D02*
X019760Y012546D01*
X019760Y012644D02*
X018540Y012644D01*
X018540Y012743D02*
X019760Y012743D01*
X019761Y012841D02*
X018539Y012841D01*
X018441Y012940D02*
X019859Y012940D01*
X018320Y013038D02*
X031400Y013038D01*
X031400Y013137D02*
X022321Y013137D01*
X022499Y013235D02*
X031400Y013235D01*
X031400Y013334D02*
X022597Y013334D01*
X022621Y013925D02*
X023571Y013925D01*
X023669Y014023D02*
X022541Y014023D01*
X022423Y014122D02*
X023768Y014122D01*
X023866Y014220D02*
X017684Y014220D01*
X017782Y014122D02*
X021877Y014122D01*
X021759Y014023D02*
X017881Y014023D01*
X017979Y013925D02*
X021679Y013925D01*
X021703Y013334D02*
X018320Y013334D01*
X018320Y013235D02*
X021801Y013235D01*
X021979Y013137D02*
X018320Y013137D01*
X017820Y013137D02*
X015150Y013137D01*
X015150Y013235D02*
X017820Y013235D01*
X017820Y013334D02*
X015150Y013334D01*
X015150Y013432D02*
X017764Y013432D01*
X017666Y013531D02*
X015150Y013531D01*
X015150Y013629D02*
X017567Y013629D01*
X017469Y013728D02*
X015150Y013728D01*
X015150Y013826D02*
X017370Y013826D01*
X017272Y013925D02*
X015150Y013925D01*
X015150Y014023D02*
X017173Y014023D01*
X017075Y014122D02*
X015150Y014122D01*
X015150Y014220D02*
X016976Y014220D01*
X016913Y014319D02*
X015136Y014319D01*
X015071Y014417D02*
X016900Y014417D01*
X016900Y014516D02*
X013267Y014516D01*
X013174Y014614D02*
X016900Y014614D01*
X016900Y014713D02*
X013150Y014713D01*
X013150Y014811D02*
X016900Y014811D01*
X016900Y014910D02*
X013150Y014910D01*
X013150Y015008D02*
X016900Y015008D01*
X016900Y015107D02*
X013150Y015107D01*
X013150Y015205D02*
X016900Y015205D01*
X016900Y015304D02*
X013150Y015304D01*
X012650Y015304D02*
X011900Y015304D01*
X011900Y015402D02*
X012595Y015402D01*
X012446Y015501D02*
X011900Y015501D01*
X011900Y015599D02*
X012401Y015599D01*
X012400Y015698D02*
X011900Y015698D01*
X011900Y015796D02*
X012400Y015796D01*
X012400Y015895D02*
X011900Y015895D01*
X011900Y015993D02*
X012400Y015993D01*
X012400Y016092D02*
X011900Y016092D01*
X011900Y016190D02*
X012400Y016190D01*
X012400Y016289D02*
X011900Y016289D01*
X011900Y016387D02*
X012400Y016387D01*
X012400Y016486D02*
X011900Y016486D01*
X011900Y016584D02*
X012400Y016584D01*
X012400Y016683D02*
X011900Y016683D01*
X011900Y016781D02*
X012400Y016781D01*
X012400Y016880D02*
X011900Y016880D01*
X011900Y016978D02*
X012400Y016978D01*
X012400Y017077D02*
X011900Y017077D01*
X011900Y017175D02*
X012400Y017175D01*
X012400Y017274D02*
X011900Y017274D01*
X011900Y017372D02*
X012400Y017372D01*
X012400Y017471D02*
X011900Y017471D01*
X011900Y017569D02*
X012400Y017569D01*
X012400Y017668D02*
X011900Y017668D01*
X011900Y017766D02*
X012400Y017766D01*
X012400Y017865D02*
X011900Y017865D01*
X011894Y017963D02*
X012400Y017963D01*
X012400Y018062D02*
X011842Y018062D01*
X012400Y018160D02*
X004877Y018160D01*
X004805Y018259D02*
X012400Y018259D01*
X012400Y018357D02*
X004707Y018357D01*
X004719Y018456D02*
X012400Y018456D01*
X012400Y018554D02*
X004818Y018554D01*
X004820Y019244D02*
X026203Y019244D01*
X026104Y019342D02*
X004722Y019342D01*
X004702Y019441D02*
X026006Y019441D01*
X025925Y019539D02*
X004803Y019539D01*
X004876Y019638D02*
X025900Y019638D01*
X025900Y019736D02*
X007590Y019736D01*
X007643Y019835D02*
X025900Y019835D01*
X025900Y019933D02*
X017073Y019933D01*
X017100Y020032D02*
X025900Y020032D01*
X025900Y020130D02*
X017100Y020130D01*
X017100Y020229D02*
X025900Y020229D01*
X025900Y020327D02*
X017100Y020327D01*
X017066Y020426D02*
X025900Y020426D01*
X025900Y020524D02*
X017100Y020524D01*
X017100Y020623D02*
X025900Y020623D01*
X025900Y020721D02*
X017100Y020721D01*
X017100Y020820D02*
X025900Y020820D01*
X025900Y020918D02*
X017058Y020918D01*
X017100Y021017D02*
X025900Y021017D01*
X025900Y021115D02*
X017100Y021115D01*
X017100Y021214D02*
X025900Y021214D01*
X025900Y021312D02*
X017100Y021312D01*
X017037Y021903D02*
X017400Y021903D01*
X017400Y022002D02*
X010900Y022002D01*
X010900Y022100D02*
X017400Y022100D01*
X017400Y022199D02*
X010900Y022199D01*
X010900Y022297D02*
X017400Y022297D01*
X017400Y022396D02*
X010900Y022396D01*
X010900Y022494D02*
X017400Y022494D01*
X017400Y022593D02*
X010900Y022593D01*
X010900Y022691D02*
X017400Y022691D01*
X017400Y022790D02*
X010900Y022790D01*
X010900Y022888D02*
X017400Y022888D01*
X017400Y022987D02*
X010900Y022987D01*
X010900Y023085D02*
X011538Y023085D01*
X011512Y023184D02*
X010900Y023184D01*
X010900Y023282D02*
X011512Y023282D01*
X011512Y023381D02*
X010900Y023381D01*
X010900Y023479D02*
X011512Y023479D01*
X011512Y023578D02*
X010900Y023578D01*
X010900Y023676D02*
X011512Y023676D01*
X011598Y023775D02*
X010900Y023775D01*
X010900Y023873D02*
X016200Y023873D01*
X016200Y023775D02*
X012202Y023775D01*
X012288Y023676D02*
X016234Y023676D01*
X016260Y023650D02*
X016260Y023650D01*
X016200Y023972D02*
X010900Y023972D01*
X010900Y024070D02*
X016200Y024070D01*
X016241Y024169D02*
X010900Y024169D01*
X010900Y024267D02*
X016200Y024267D01*
X016200Y024366D02*
X010900Y024366D01*
X010900Y024464D02*
X016200Y024464D01*
X016200Y024563D02*
X010900Y024563D01*
X010900Y024661D02*
X016249Y024661D01*
X016200Y024760D02*
X010900Y024760D01*
X010900Y024858D02*
X016200Y024858D01*
X016200Y024957D02*
X010900Y024957D01*
X010900Y025055D02*
X016200Y025055D01*
X016263Y025154D02*
X010900Y025154D01*
X010900Y025252D02*
X018580Y025252D01*
X018580Y025351D02*
X010900Y025351D01*
X010900Y025449D02*
X018580Y025449D01*
X018580Y025548D02*
X010900Y025548D01*
X010900Y025646D02*
X012662Y025646D01*
X012663Y025641D02*
X012683Y025607D01*
X012711Y025579D01*
X012745Y025559D01*
X012783Y025549D01*
X012952Y025549D01*
X012952Y025867D01*
X012653Y025867D01*
X012653Y025679D01*
X012663Y025641D01*
X012653Y025745D02*
X010900Y025745D01*
X010900Y025843D02*
X012653Y025843D01*
X012653Y026040D02*
X010900Y026040D01*
X010900Y025942D02*
X012952Y025942D01*
X013048Y025942D02*
X018500Y025942D01*
X018500Y025843D02*
X013347Y025843D01*
X013347Y025745D02*
X018537Y025745D01*
X018580Y025646D02*
X013338Y025646D01*
X013048Y025646D02*
X012952Y025646D01*
X012952Y025745D02*
X013048Y025745D01*
X013048Y025843D02*
X012952Y025843D01*
X012653Y026139D02*
X010900Y026139D01*
X010900Y026237D02*
X012694Y026237D01*
X012633Y026336D02*
X010900Y026336D01*
X010900Y026434D02*
X012633Y026434D01*
X012633Y026533D02*
X010900Y026533D01*
X010900Y026631D02*
X012633Y026631D01*
X012633Y026730D02*
X010900Y026730D01*
X010900Y026828D02*
X012633Y026828D01*
X012688Y026927D02*
X010900Y026927D01*
X010429Y027321D02*
X008650Y027321D01*
X008650Y027419D02*
X010526Y027419D01*
X010400Y027222D02*
X008650Y027222D01*
X008650Y027124D02*
X010400Y027124D01*
X010400Y027025D02*
X008650Y027025D01*
X008650Y026927D02*
X010400Y026927D01*
X010400Y026828D02*
X008650Y026828D01*
X008650Y026730D02*
X010400Y026730D01*
X010400Y026631D02*
X008650Y026631D01*
X008650Y026533D02*
X010400Y026533D01*
X010400Y026434D02*
X008650Y026434D01*
X008650Y026336D02*
X010400Y026336D01*
X010400Y026237D02*
X008650Y026237D01*
X008650Y026139D02*
X010400Y026139D01*
X010400Y026040D02*
X008650Y026040D01*
X008650Y025942D02*
X010400Y025942D01*
X010400Y025843D02*
X008650Y025843D01*
X008650Y025745D02*
X010400Y025745D01*
X010400Y025646D02*
X008650Y025646D01*
X008650Y025548D02*
X010400Y025548D01*
X010400Y025449D02*
X008650Y025449D01*
X008650Y025351D02*
X010400Y025351D01*
X010400Y025252D02*
X008650Y025252D01*
X008650Y025154D02*
X010400Y025154D01*
X010400Y025055D02*
X008650Y025055D01*
X008650Y024957D02*
X010400Y024957D01*
X010400Y024858D02*
X008650Y024858D01*
X008650Y024760D02*
X010400Y024760D01*
X010400Y024661D02*
X008650Y024661D01*
X008650Y024563D02*
X010400Y024563D01*
X010400Y024464D02*
X008650Y024464D01*
X008650Y024366D02*
X010400Y024366D01*
X010400Y024267D02*
X008650Y024267D01*
X008650Y024169D02*
X010400Y024169D01*
X010400Y024070D02*
X008650Y024070D01*
X008650Y023972D02*
X010400Y023972D01*
X010400Y023873D02*
X008650Y023873D01*
X008650Y023775D02*
X009098Y023775D01*
X009012Y023676D02*
X008650Y023676D01*
X008150Y023676D02*
X003610Y023676D01*
X003610Y023578D02*
X008150Y023578D01*
X008125Y023479D02*
X003610Y023479D01*
X003610Y023381D02*
X008027Y023381D01*
X007928Y023282D02*
X003610Y023282D01*
X003610Y023184D02*
X007830Y023184D01*
X007731Y023085D02*
X003610Y023085D01*
X003610Y022987D02*
X007633Y022987D01*
X007534Y022888D02*
X003610Y022888D01*
X003610Y022790D02*
X007436Y022790D01*
X007337Y022691D02*
X003610Y022691D01*
X003610Y022593D02*
X007239Y022593D01*
X007140Y022494D02*
X003610Y022494D01*
X003610Y022396D02*
X007042Y022396D01*
X006943Y022297D02*
X003610Y022297D01*
X003610Y022199D02*
X006845Y022199D01*
X006746Y022100D02*
X003610Y022100D01*
X003610Y022002D02*
X006648Y022002D01*
X006549Y021903D02*
X003610Y021903D01*
X003610Y021805D02*
X006451Y021805D01*
X006352Y021706D02*
X003610Y021706D01*
X003610Y021608D02*
X006254Y021608D01*
X006155Y021509D02*
X003610Y021509D01*
X003610Y021411D02*
X004221Y021411D01*
X004048Y021312D02*
X003610Y021312D01*
X003610Y021214D02*
X003950Y021214D01*
X003905Y021115D02*
X003610Y021115D01*
X003610Y021017D02*
X003864Y021017D01*
X003860Y020918D02*
X003610Y020918D01*
X003610Y020820D02*
X003860Y020820D01*
X003890Y020721D02*
X003610Y020721D01*
X003610Y020623D02*
X003930Y020623D01*
X004012Y020524D02*
X003610Y020524D01*
X003610Y020426D02*
X004134Y020426D01*
X004063Y020327D02*
X003610Y020327D01*
X003610Y020229D02*
X003965Y020229D01*
X003911Y020130D02*
X003610Y020130D01*
X003610Y020032D02*
X003870Y020032D01*
X003860Y019933D02*
X003610Y019933D01*
X003610Y019835D02*
X003860Y019835D01*
X003883Y019736D02*
X003610Y019736D01*
X003610Y019638D02*
X003924Y019638D01*
X003997Y019539D02*
X003610Y019539D01*
X003610Y019441D02*
X004098Y019441D01*
X004078Y019342D02*
X003610Y019342D01*
X003610Y019244D02*
X003980Y019244D01*
X003917Y019145D02*
X003610Y019145D01*
X003610Y019047D02*
X003876Y019047D01*
X003860Y018948D02*
X003610Y018948D01*
X003610Y018850D02*
X003860Y018850D01*
X003877Y018751D02*
X003610Y018751D01*
X003610Y018653D02*
X003918Y018653D01*
X003982Y018554D02*
X003610Y018554D01*
X003610Y018456D02*
X004081Y018456D01*
X004093Y018357D02*
X003610Y018357D01*
X003610Y018259D02*
X003995Y018259D01*
X003923Y018160D02*
X003610Y018160D01*
X003610Y018062D02*
X003882Y018062D01*
X003860Y017963D02*
X003610Y017963D01*
X003610Y017865D02*
X003860Y017865D01*
X003871Y017766D02*
X003610Y017766D01*
X003610Y017668D02*
X003912Y017668D01*
X003967Y017569D02*
X003610Y017569D01*
X003610Y017471D02*
X004066Y017471D01*
X004181Y017372D02*
X003610Y017372D01*
X003610Y017274D02*
X004038Y017274D01*
X003957Y017175D02*
X003610Y017175D01*
X003610Y017077D02*
X003911Y017077D01*
X003886Y016978D02*
X003610Y016978D01*
X003610Y016880D02*
X004350Y016880D01*
X004350Y016850D02*
X003881Y016850D01*
X003893Y016778D01*
X003918Y016700D01*
X003955Y016627D01*
X004003Y016561D01*
X004061Y016503D01*
X004127Y016455D01*
X004200Y016418D01*
X004278Y016393D01*
X004350Y016381D01*
X004350Y016850D01*
X004350Y016781D02*
X004450Y016781D01*
X004450Y016850D02*
X004450Y016381D01*
X004522Y016393D01*
X004600Y016418D01*
X004673Y016455D01*
X004739Y016503D01*
X004797Y016561D01*
X004845Y016627D01*
X004882Y016700D01*
X004907Y016778D01*
X004919Y016850D01*
X004450Y016850D01*
X004450Y016880D02*
X011400Y016880D01*
X011400Y016978D02*
X004914Y016978D01*
X004889Y017077D02*
X011400Y017077D01*
X011400Y017175D02*
X004843Y017175D01*
X004762Y017274D02*
X011400Y017274D01*
X011400Y017372D02*
X004619Y017372D01*
X004734Y017471D02*
X011400Y017471D01*
X011400Y017569D02*
X004833Y017569D01*
X004908Y016781D02*
X011400Y016781D01*
X011400Y016683D02*
X004873Y016683D01*
X004813Y016584D02*
X011400Y016584D01*
X011400Y016486D02*
X004714Y016486D01*
X004485Y016387D02*
X011400Y016387D01*
X011400Y016289D02*
X003610Y016289D01*
X003610Y016387D02*
X004315Y016387D01*
X004350Y016387D02*
X004450Y016387D01*
X004450Y016486D02*
X004350Y016486D01*
X004350Y016584D02*
X004450Y016584D01*
X004450Y016683D02*
X004350Y016683D01*
X004086Y016486D02*
X003610Y016486D01*
X003610Y016584D02*
X003987Y016584D01*
X003927Y016683D02*
X003610Y016683D01*
X003610Y016781D02*
X003892Y016781D01*
X003610Y016190D02*
X011400Y016190D01*
X011400Y016092D02*
X003610Y016092D01*
X003610Y015993D02*
X011400Y015993D01*
X011400Y015895D02*
X003610Y015895D01*
X003610Y015796D02*
X011400Y015796D01*
X011400Y015698D02*
X003610Y015698D01*
X003610Y015599D02*
X011400Y015599D01*
X011400Y015501D02*
X003610Y015501D01*
X003610Y015402D02*
X011400Y015402D01*
X011400Y015304D02*
X003610Y015304D01*
X003610Y015205D02*
X011400Y015205D01*
X011400Y015107D02*
X003610Y015107D01*
X003610Y015008D02*
X011400Y015008D01*
X011400Y014910D02*
X003610Y014910D01*
X003610Y014811D02*
X011400Y014811D01*
X011400Y014713D02*
X003610Y014713D01*
X003610Y014614D02*
X011400Y014614D01*
X011400Y014516D02*
X003610Y014516D01*
X003610Y014417D02*
X011400Y014417D01*
X011400Y014319D02*
X003610Y014319D01*
X003610Y014220D02*
X011400Y014220D01*
X011400Y014122D02*
X003610Y014122D01*
X003610Y014023D02*
X011400Y014023D01*
X011400Y013925D02*
X003610Y013925D01*
X003610Y013826D02*
X011400Y013826D01*
X011400Y013728D02*
X003610Y013728D01*
X003610Y013629D02*
X011400Y013629D01*
X011400Y013531D02*
X003610Y013531D01*
X003610Y013432D02*
X011400Y013432D01*
X011400Y013334D02*
X003610Y013334D01*
X003610Y013235D02*
X011400Y013235D01*
X011400Y013137D02*
X003610Y013137D01*
X003610Y013038D02*
X011400Y013038D01*
X011400Y012940D02*
X003610Y012940D01*
X003610Y012841D02*
X011400Y012841D01*
X011400Y012743D02*
X003610Y012743D01*
X003610Y012644D02*
X011400Y012644D01*
X011400Y012546D02*
X003610Y012546D01*
X003610Y012447D02*
X011400Y012447D01*
X011400Y012349D02*
X003610Y012349D01*
X003610Y012250D02*
X011400Y012250D01*
X011400Y012152D02*
X003610Y012152D01*
X003610Y012053D02*
X011400Y012053D01*
X011400Y011955D02*
X003610Y011955D01*
X003610Y011856D02*
X011400Y011856D01*
X011400Y011758D02*
X003610Y011758D01*
X003610Y011659D02*
X011400Y011659D01*
X011400Y011561D02*
X003610Y011561D01*
X003610Y011462D02*
X011400Y011462D01*
X011400Y011364D02*
X003610Y011364D01*
X003610Y011265D02*
X011400Y011265D01*
X011400Y011167D02*
X003610Y011167D01*
X003610Y011068D02*
X011400Y011068D01*
X011400Y010970D02*
X003610Y010970D01*
X003610Y010871D02*
X011400Y010871D01*
X011400Y010773D02*
X003610Y010773D01*
X003610Y010674D02*
X011400Y010674D01*
X011400Y010576D02*
X003610Y010576D01*
X003610Y010477D02*
X011400Y010477D01*
X011400Y010379D02*
X003610Y010379D01*
X003610Y010280D02*
X011400Y010280D01*
X011400Y010182D02*
X003610Y010182D01*
X003610Y010083D02*
X011400Y010083D01*
X011400Y009985D02*
X003610Y009985D01*
X003610Y009886D02*
X011400Y009886D01*
X011400Y009788D02*
X003610Y009788D01*
X003610Y009689D02*
X011400Y009689D01*
X011400Y009591D02*
X003610Y009591D01*
X003610Y009492D02*
X011400Y009492D01*
X011400Y009394D02*
X003610Y009394D01*
X003610Y009295D02*
X011400Y009295D01*
X011400Y009197D02*
X003610Y009197D01*
X003610Y009098D02*
X011400Y009098D01*
X011400Y009000D02*
X003610Y009000D01*
X003610Y008901D02*
X011400Y008901D01*
X011400Y008803D02*
X003610Y008803D01*
X003610Y008704D02*
X011400Y008704D01*
X011400Y008606D02*
X003610Y008606D01*
X003610Y008507D02*
X011400Y008507D01*
X011400Y008409D02*
X003610Y008409D01*
X003610Y008310D02*
X011400Y008310D01*
X011400Y008212D02*
X003610Y008212D01*
X003610Y008113D02*
X011400Y008113D01*
X011400Y008015D02*
X003610Y008015D01*
X003610Y007916D02*
X007985Y007916D01*
X008043Y007940D02*
X007844Y007858D01*
X007692Y007706D01*
X007610Y007507D01*
X007610Y007293D01*
X007692Y007094D01*
X007844Y006942D01*
X008043Y006860D01*
X008257Y006860D01*
X008456Y006942D01*
X008608Y007094D01*
X008690Y007293D01*
X008690Y007507D01*
X008608Y007706D01*
X008456Y007858D01*
X008257Y007940D01*
X008043Y007940D01*
X007804Y007818D02*
X003610Y007818D01*
X003610Y007719D02*
X007705Y007719D01*
X007657Y007621D02*
X003610Y007621D01*
X003610Y007522D02*
X007616Y007522D01*
X007610Y007424D02*
X003610Y007424D01*
X003610Y007325D02*
X007610Y007325D01*
X007637Y007227D02*
X003610Y007227D01*
X003610Y007128D02*
X007678Y007128D01*
X007757Y007030D02*
X003610Y007030D01*
X003610Y006931D02*
X007871Y006931D01*
X008429Y006931D02*
X010175Y006931D01*
X010200Y006918D02*
X010278Y006893D01*
X010350Y006881D01*
X010350Y007350D01*
X009881Y007350D01*
X009893Y007278D01*
X009918Y007200D01*
X009955Y007127D01*
X010003Y007061D01*
X010061Y007003D01*
X010127Y006955D01*
X010200Y006918D01*
X010350Y006931D02*
X010450Y006931D01*
X010450Y006881D02*
X010522Y006893D01*
X010600Y006918D01*
X010673Y006955D01*
X010739Y007003D01*
X010797Y007061D01*
X010845Y007127D01*
X010882Y007200D01*
X010907Y007278D01*
X010919Y007350D01*
X010450Y007350D01*
X010450Y007450D01*
X010350Y007450D01*
X010350Y007919D01*
X010278Y007907D01*
X010200Y007882D01*
X010127Y007845D01*
X010061Y007797D01*
X010003Y007739D01*
X009955Y007673D01*
X009918Y007600D01*
X009893Y007522D01*
X008684Y007522D01*
X008690Y007424D02*
X010350Y007424D01*
X010350Y007450D02*
X010350Y007350D01*
X010450Y007350D01*
X010450Y006881D01*
X010450Y007030D02*
X010350Y007030D01*
X010350Y007128D02*
X010450Y007128D01*
X010450Y007227D02*
X010350Y007227D01*
X010350Y007325D02*
X010450Y007325D01*
X010450Y007424D02*
X011400Y007424D01*
X011400Y007522D02*
X010907Y007522D01*
X010882Y007600D01*
X010845Y007673D01*
X010797Y007739D01*
X010739Y007797D01*
X010673Y007845D01*
X010600Y007882D01*
X010522Y007907D01*
X010450Y007919D01*
X010450Y007450D01*
X010919Y007450D01*
X010907Y007522D01*
X010871Y007621D02*
X011400Y007621D01*
X011400Y007719D02*
X010811Y007719D01*
X010710Y007818D02*
X011400Y007818D01*
X011400Y007916D02*
X010466Y007916D01*
X010450Y007916D02*
X010350Y007916D01*
X010334Y007916D02*
X008315Y007916D01*
X008496Y007818D02*
X010090Y007818D01*
X009989Y007719D02*
X008595Y007719D01*
X008643Y007621D02*
X009929Y007621D01*
X009893Y007522D02*
X009881Y007450D01*
X010350Y007450D01*
X010350Y007522D02*
X010450Y007522D01*
X010450Y007621D02*
X010350Y007621D01*
X010350Y007719D02*
X010450Y007719D01*
X010450Y007818D02*
X010350Y007818D01*
X009885Y007325D02*
X008690Y007325D01*
X008663Y007227D02*
X009910Y007227D01*
X009955Y007128D02*
X008622Y007128D01*
X008543Y007030D02*
X010035Y007030D01*
X010625Y006931D02*
X011400Y006931D01*
X011400Y006833D02*
X003610Y006833D01*
X003610Y006734D02*
X011400Y006734D01*
X011400Y006636D02*
X003610Y006636D01*
X003610Y006537D02*
X011400Y006537D01*
X011400Y006439D02*
X003610Y006439D01*
X003610Y006340D02*
X011400Y006340D01*
X011400Y006242D02*
X003610Y006242D01*
X003610Y006143D02*
X011400Y006143D01*
X011400Y006045D02*
X003610Y006045D01*
X003610Y002991D02*
X011303Y002991D01*
X011303Y002893D02*
X003610Y002893D01*
X003610Y002794D02*
X011313Y002794D01*
X014810Y004469D02*
X014830Y004469D01*
X014830Y004567D02*
X014810Y004567D01*
X014810Y004666D02*
X014830Y004666D01*
X014830Y004764D02*
X014810Y004764D01*
X014810Y004863D02*
X014830Y004863D01*
X014830Y004961D02*
X014810Y004961D01*
X014810Y005060D02*
X014830Y005060D01*
X014830Y005158D02*
X014810Y005158D01*
X014810Y005257D02*
X014830Y005257D01*
X014830Y005355D02*
X014810Y005355D01*
X014830Y005410D02*
X015270Y005410D01*
X015270Y005540D01*
X015260Y005578D01*
X015240Y005612D01*
X015212Y005640D01*
X015178Y005660D01*
X015140Y005670D01*
X014830Y005670D01*
X014830Y005410D01*
X014830Y005454D02*
X014810Y005454D01*
X014810Y005552D02*
X014830Y005552D01*
X014830Y005651D02*
X014810Y005651D01*
X015194Y005651D02*
X016570Y005651D01*
X016510Y005552D02*
X015267Y005552D01*
X015270Y005454D02*
X016510Y005454D01*
X016510Y005355D02*
X015270Y005355D01*
X015269Y005257D02*
X016510Y005257D01*
X016562Y005158D02*
X015209Y005158D01*
X015265Y005060D02*
X016510Y005060D01*
X016510Y004961D02*
X015270Y004961D01*
X015270Y004863D02*
X016510Y004863D01*
X016510Y004764D02*
X015270Y004764D01*
X015218Y004666D02*
X016554Y004666D01*
X016510Y004567D02*
X015263Y004567D01*
X015270Y004469D02*
X016510Y004469D01*
X016510Y004370D02*
X015270Y004370D01*
X015270Y004272D02*
X016510Y004272D01*
X016547Y004173D02*
X015225Y004173D01*
X015290Y004075D02*
X016221Y004075D01*
X016161Y003976D02*
X015290Y003976D01*
X015290Y003878D02*
X016150Y003878D01*
X016180Y003779D02*
X015290Y003779D01*
X015261Y003681D02*
X016277Y003681D01*
X011400Y007030D02*
X010765Y007030D01*
X010845Y007128D02*
X011400Y007128D01*
X011400Y007227D02*
X010890Y007227D01*
X010915Y007325D02*
X011400Y007325D01*
X011900Y011462D02*
X017600Y011462D01*
X017600Y011561D02*
X011900Y011561D01*
X011900Y011659D02*
X017600Y011659D01*
X017600Y011758D02*
X011900Y011758D01*
X011900Y011856D02*
X017616Y011856D01*
X017605Y011955D02*
X011900Y011955D01*
X011900Y012053D02*
X014570Y012053D01*
X014512Y012152D02*
X011900Y012152D01*
X011900Y012250D02*
X014512Y012250D01*
X014512Y012349D02*
X011900Y012349D01*
X011900Y012447D02*
X014512Y012447D01*
X014512Y012546D02*
X011900Y012546D01*
X011900Y012644D02*
X014512Y012644D01*
X014566Y012743D02*
X011900Y012743D01*
X011900Y012841D02*
X014650Y012841D01*
X014650Y012940D02*
X011900Y012940D01*
X011900Y013038D02*
X014650Y013038D01*
X014650Y013137D02*
X011900Y013137D01*
X011900Y013235D02*
X012605Y013235D01*
X012611Y013229D02*
X012645Y013209D01*
X012683Y013199D01*
X012852Y013199D01*
X012852Y013517D01*
X012553Y013517D01*
X012553Y013329D01*
X012563Y013291D01*
X012583Y013257D01*
X012611Y013229D01*
X012553Y013334D02*
X011900Y013334D01*
X011900Y013432D02*
X012553Y013432D01*
X012553Y013629D02*
X011900Y013629D01*
X011900Y013531D02*
X012852Y013531D01*
X012948Y013531D02*
X014650Y013531D01*
X014650Y013629D02*
X013247Y013629D01*
X013247Y013728D02*
X014650Y013728D01*
X014650Y013826D02*
X013240Y013826D01*
X013244Y013925D02*
X014650Y013925D01*
X014650Y013432D02*
X013247Y013432D01*
X013247Y013334D02*
X014650Y013334D01*
X014650Y013235D02*
X013195Y013235D01*
X012948Y013235D02*
X012852Y013235D01*
X012852Y013334D02*
X012948Y013334D01*
X012948Y013432D02*
X012852Y013432D01*
X012553Y013728D02*
X011900Y013728D01*
X011900Y013826D02*
X012560Y013826D01*
X012556Y013925D02*
X011900Y013925D01*
X011900Y014023D02*
X012533Y014023D01*
X012533Y014122D02*
X011900Y014122D01*
X011900Y014220D02*
X012533Y014220D01*
X012533Y014319D02*
X011900Y014319D01*
X011900Y014417D02*
X012533Y014417D01*
X012533Y014516D02*
X011900Y014516D01*
X011900Y014614D02*
X012626Y014614D01*
X012650Y014713D02*
X011900Y014713D01*
X011900Y014811D02*
X012650Y014811D01*
X012650Y014910D02*
X011900Y014910D01*
X011900Y015008D02*
X012650Y015008D01*
X012650Y015107D02*
X011900Y015107D01*
X011900Y015205D02*
X012650Y015205D01*
X012900Y015993D02*
X014375Y015993D01*
X014370Y016092D02*
X012900Y016092D01*
X012900Y016190D02*
X014370Y016190D01*
X014370Y016289D02*
X012900Y016289D01*
X012900Y016387D02*
X014425Y016387D01*
X014377Y016486D02*
X012900Y016486D01*
X012900Y016584D02*
X014370Y016584D01*
X014370Y016683D02*
X012900Y016683D01*
X012900Y016781D02*
X014370Y016781D01*
X014417Y016880D02*
X012900Y016880D01*
X012900Y016978D02*
X014379Y016978D01*
X014370Y017077D02*
X012900Y017077D01*
X012900Y017175D02*
X014370Y017175D01*
X014370Y017274D02*
X012900Y017274D01*
X012900Y017372D02*
X014410Y017372D01*
X014810Y017372D02*
X014830Y017372D01*
X014830Y017420D02*
X014830Y017160D01*
X015270Y017160D01*
X015270Y017290D01*
X015260Y017328D01*
X015240Y017362D01*
X015212Y017390D01*
X015178Y017410D01*
X015140Y017420D01*
X014830Y017420D01*
X014830Y017274D02*
X014810Y017274D01*
X014810Y017175D02*
X014830Y017175D01*
X014830Y017077D02*
X014810Y017077D01*
X014810Y016978D02*
X014830Y016978D01*
X014830Y016880D02*
X014810Y016880D01*
X014810Y016781D02*
X014830Y016781D01*
X014830Y016683D02*
X014810Y016683D01*
X014810Y016584D02*
X014830Y016584D01*
X014830Y016486D02*
X014810Y016486D01*
X014810Y016387D02*
X014830Y016387D01*
X014830Y016289D02*
X014810Y016289D01*
X014810Y016190D02*
X014830Y016190D01*
X015215Y016387D02*
X016557Y016387D01*
X016510Y016289D02*
X015270Y016289D01*
X015270Y016190D02*
X016510Y016190D01*
X016510Y016092D02*
X015270Y016092D01*
X015265Y015993D02*
X016510Y015993D01*
X016564Y015895D02*
X015236Y015895D01*
X015290Y015796D02*
X016510Y015796D01*
X016510Y015698D02*
X015290Y015698D01*
X015290Y015599D02*
X016510Y015599D01*
X016510Y015501D02*
X015290Y015501D01*
X015232Y015402D02*
X016568Y015402D01*
X017400Y015402D02*
X025048Y015402D01*
X024950Y015304D02*
X017400Y015304D01*
X017400Y015205D02*
X024851Y015205D01*
X024753Y015107D02*
X017400Y015107D01*
X017400Y015008D02*
X024654Y015008D01*
X024556Y014910D02*
X017400Y014910D01*
X017400Y014811D02*
X024457Y014811D01*
X024359Y014713D02*
X017400Y014713D01*
X017400Y014614D02*
X024260Y014614D01*
X024162Y014516D02*
X017400Y014516D01*
X017487Y014417D02*
X024063Y014417D01*
X023965Y014319D02*
X017585Y014319D01*
X017450Y015501D02*
X025147Y015501D01*
X025245Y015599D02*
X017450Y015599D01*
X017450Y015698D02*
X025344Y015698D01*
X025442Y015796D02*
X017450Y015796D01*
X017396Y015895D02*
X025541Y015895D01*
X025631Y015993D02*
X017450Y015993D01*
X017450Y016092D02*
X025610Y016092D01*
X025610Y016190D02*
X017450Y016190D01*
X017450Y016289D02*
X025623Y016289D01*
X025664Y016387D02*
X017403Y016387D01*
X017450Y016486D02*
X025722Y016486D01*
X025820Y016584D02*
X017450Y016584D01*
X017450Y016683D02*
X026025Y016683D01*
X026275Y016683D02*
X028764Y016683D01*
X028665Y016781D02*
X017450Y016781D01*
X017411Y016880D02*
X028567Y016880D01*
X028468Y016978D02*
X017450Y016978D01*
X017450Y017077D02*
X028370Y017077D01*
X028271Y017175D02*
X022363Y017175D01*
X022350Y017168D02*
X022423Y017205D01*
X022489Y017253D01*
X022547Y017311D01*
X022595Y017377D01*
X022632Y017450D01*
X022657Y017528D01*
X022669Y017600D01*
X022200Y017600D01*
X022200Y017700D01*
X022100Y017700D01*
X022100Y018169D01*
X022028Y018157D01*
X021950Y018132D01*
X021877Y018095D01*
X021811Y018047D01*
X021753Y017989D01*
X021705Y017923D01*
X021668Y017850D01*
X021643Y017772D01*
X021631Y017700D01*
X022100Y017700D01*
X022100Y017600D01*
X021631Y017600D01*
X021643Y017528D01*
X021668Y017450D01*
X021705Y017377D01*
X021753Y017311D01*
X021811Y017253D01*
X021877Y017205D01*
X021950Y017168D01*
X022028Y017143D01*
X022100Y017131D01*
X022100Y017600D01*
X022200Y017600D01*
X022200Y017131D01*
X022272Y017143D01*
X022350Y017168D01*
X022200Y017175D02*
X022100Y017175D01*
X022100Y017274D02*
X022200Y017274D01*
X022200Y017372D02*
X022100Y017372D01*
X022100Y017471D02*
X022200Y017471D01*
X022200Y017569D02*
X022100Y017569D01*
X022100Y017668D02*
X012900Y017668D01*
X012900Y017766D02*
X021642Y017766D01*
X021676Y017865D02*
X012900Y017865D01*
X012900Y017963D02*
X021735Y017963D01*
X021832Y018062D02*
X012900Y018062D01*
X012900Y018160D02*
X022046Y018160D01*
X022100Y018160D02*
X022200Y018160D01*
X022200Y018169D02*
X022200Y017700D01*
X022669Y017700D01*
X022657Y017772D01*
X022632Y017850D01*
X022595Y017923D01*
X022547Y017989D01*
X022489Y018047D01*
X022423Y018095D01*
X022350Y018132D01*
X022272Y018157D01*
X022200Y018169D01*
X022254Y018160D02*
X023600Y018160D01*
X023600Y018200D02*
X023600Y018100D01*
X023131Y018100D01*
X023143Y018028D01*
X023168Y017950D01*
X023205Y017877D01*
X023253Y017811D01*
X023311Y017753D01*
X023377Y017705D01*
X023450Y017668D01*
X023528Y017643D01*
X023600Y017631D01*
X023600Y018100D01*
X023700Y018100D01*
X023700Y018200D01*
X023600Y018200D01*
X023600Y018669D01*
X023528Y018657D01*
X023450Y018632D01*
X023377Y018595D01*
X023311Y018547D01*
X023253Y018489D01*
X023205Y018423D01*
X023168Y018350D01*
X023143Y018272D01*
X023131Y018200D01*
X023600Y018200D01*
X023600Y018259D02*
X023700Y018259D01*
X023700Y018200D02*
X023700Y018669D01*
X023772Y018657D01*
X023850Y018632D01*
X023923Y018595D01*
X023989Y018547D01*
X024047Y018489D01*
X024095Y018423D01*
X024132Y018350D01*
X024157Y018272D01*
X024169Y018200D01*
X023700Y018200D01*
X023700Y018160D02*
X027286Y018160D01*
X027188Y018259D02*
X024159Y018259D01*
X024128Y018357D02*
X027089Y018357D01*
X026991Y018456D02*
X024071Y018456D01*
X023979Y018554D02*
X026892Y018554D01*
X026794Y018653D02*
X023786Y018653D01*
X023700Y018653D02*
X023600Y018653D01*
X023514Y018653D02*
X012900Y018653D01*
X012900Y018751D02*
X026695Y018751D01*
X026597Y018850D02*
X012900Y018850D01*
X012900Y018948D02*
X026498Y018948D01*
X026400Y019047D02*
X012857Y019047D01*
X012712Y019145D02*
X026301Y019145D01*
X026615Y019539D02*
X028857Y019539D01*
X028759Y019638D02*
X026516Y019638D01*
X026418Y019736D02*
X028677Y019736D01*
X028650Y019835D02*
X026400Y019835D01*
X026400Y019933D02*
X028650Y019933D01*
X028650Y020032D02*
X026400Y020032D01*
X026400Y020130D02*
X028650Y020130D01*
X028650Y020229D02*
X026400Y020229D01*
X026400Y020327D02*
X028650Y020327D01*
X028650Y020426D02*
X026400Y020426D01*
X026400Y020524D02*
X028650Y020524D01*
X028650Y020623D02*
X026400Y020623D01*
X026400Y020721D02*
X028650Y020721D01*
X028650Y020820D02*
X026400Y020820D01*
X026400Y020918D02*
X028650Y020918D01*
X028650Y021017D02*
X026400Y021017D01*
X026400Y021115D02*
X028650Y021115D01*
X028650Y021214D02*
X026400Y021214D01*
X026400Y021312D02*
X028650Y021312D01*
X028650Y021411D02*
X026400Y021411D01*
X026400Y021509D02*
X028650Y021509D01*
X028650Y021608D02*
X026400Y021608D01*
X026400Y021706D02*
X028650Y021706D01*
X028650Y021805D02*
X026400Y021805D01*
X026400Y021903D02*
X028650Y021903D01*
X028650Y022002D02*
X026423Y022002D01*
X026440Y022100D02*
X028650Y022100D01*
X028650Y022199D02*
X026440Y022199D01*
X026424Y022297D02*
X028650Y022297D01*
X028650Y022396D02*
X026383Y022396D01*
X026320Y022494D02*
X028650Y022494D01*
X028650Y022593D02*
X026221Y022593D01*
X025579Y022593D02*
X023971Y022593D01*
X024070Y022494D02*
X025480Y022494D01*
X025482Y021805D02*
X024068Y021805D01*
X023970Y021706D02*
X025580Y021706D01*
X025900Y021608D02*
X017900Y021608D01*
X017900Y021706D02*
X023330Y021706D01*
X023232Y021805D02*
X017900Y021805D01*
X017862Y021509D02*
X025900Y021509D01*
X025900Y021411D02*
X017725Y021411D01*
X017900Y022494D02*
X023230Y022494D01*
X023329Y022593D02*
X017900Y022593D01*
X017900Y022691D02*
X028650Y022691D01*
X028650Y022790D02*
X017900Y022790D01*
X017900Y022888D02*
X028650Y022888D01*
X028650Y022987D02*
X017900Y022987D01*
X017900Y023085D02*
X028650Y023085D01*
X028650Y023184D02*
X019274Y023184D01*
X019300Y023282D02*
X028650Y023282D01*
X028650Y023381D02*
X019300Y023381D01*
X019300Y023479D02*
X028650Y023479D01*
X028650Y023578D02*
X019300Y023578D01*
X019266Y023676D02*
X028650Y023676D01*
X028650Y023775D02*
X019300Y023775D01*
X019300Y023873D02*
X028650Y023873D01*
X028650Y023972D02*
X019300Y023972D01*
X019300Y024070D02*
X028650Y024070D01*
X028650Y024169D02*
X019259Y024169D01*
X019300Y024267D02*
X028650Y024267D01*
X028650Y024366D02*
X019300Y024366D01*
X019300Y024464D02*
X028650Y024464D01*
X028650Y024563D02*
X019300Y024563D01*
X019251Y024661D02*
X028650Y024661D01*
X028650Y024760D02*
X019300Y024760D01*
X019300Y024858D02*
X028650Y024858D01*
X028650Y024957D02*
X019300Y024957D01*
X019300Y025055D02*
X028650Y025055D01*
X028650Y025154D02*
X019237Y025154D01*
X019080Y025252D02*
X028650Y025252D01*
X028650Y025351D02*
X019080Y025351D01*
X019080Y025449D02*
X028650Y025449D01*
X028650Y025548D02*
X019080Y025548D01*
X018514Y026040D02*
X013347Y026040D01*
X013347Y026139D02*
X018478Y026139D01*
X018443Y026237D02*
X013306Y026237D01*
X013367Y026336D02*
X018406Y026336D01*
X018400Y026434D02*
X013367Y026434D01*
X013367Y026533D02*
X018400Y026533D01*
X018400Y026631D02*
X013367Y026631D01*
X013367Y026730D02*
X018400Y026730D01*
X018400Y026828D02*
X013367Y026828D01*
X013312Y026927D02*
X016133Y026927D01*
X016050Y027518D02*
X008650Y027518D01*
X008650Y027616D02*
X016050Y027616D01*
X016050Y027715D02*
X008650Y027715D01*
X008650Y027813D02*
X016050Y027813D01*
X016050Y027890D02*
X016110Y027950D01*
X016050Y028010D01*
X016050Y028109D02*
X008650Y028109D01*
X008650Y028207D02*
X016050Y028207D01*
X016050Y028306D02*
X008650Y028306D01*
X008650Y028404D02*
X016064Y028404D01*
X015730Y028995D02*
X020201Y028995D01*
X020103Y029094D02*
X015730Y029094D01*
X015730Y029192D02*
X020004Y029192D01*
X019906Y029291D02*
X015730Y029291D01*
X015730Y029389D02*
X019807Y029389D01*
X019709Y029488D02*
X015730Y029488D01*
X015730Y029586D02*
X019610Y029586D01*
X019512Y029685D02*
X015730Y029685D01*
X015730Y029783D02*
X019413Y029783D01*
X019315Y029882D02*
X015730Y029882D01*
X015730Y029980D02*
X019216Y029980D01*
X019118Y030079D02*
X015730Y030079D01*
X015230Y030079D02*
X010767Y030079D01*
X010767Y029980D02*
X015230Y029980D01*
X015230Y029882D02*
X010767Y029882D01*
X010767Y029783D02*
X015230Y029783D01*
X015230Y029685D02*
X010767Y029685D01*
X010767Y029586D02*
X015230Y029586D01*
X015230Y029488D02*
X010707Y029488D01*
X010747Y029389D02*
X015230Y029389D01*
X015230Y029291D02*
X010747Y029291D01*
X010747Y029094D02*
X015230Y029094D01*
X015230Y029192D02*
X010448Y029192D01*
X010352Y029192D02*
X008650Y029192D01*
X008650Y029094D02*
X010053Y029094D01*
X010053Y029117D02*
X010053Y028929D01*
X010063Y028891D01*
X010083Y028857D01*
X010111Y028829D01*
X010145Y028809D01*
X010183Y028799D01*
X010352Y028799D01*
X010352Y029117D01*
X010053Y029117D01*
X010053Y028995D02*
X008650Y028995D01*
X008650Y028897D02*
X010062Y028897D01*
X010352Y028897D02*
X010448Y028897D01*
X010448Y028995D02*
X010352Y028995D01*
X010352Y029094D02*
X010448Y029094D01*
X010747Y028995D02*
X015230Y028995D01*
X015230Y028897D02*
X010738Y028897D01*
X010093Y029488D02*
X008650Y029488D01*
X008650Y029586D02*
X010033Y029586D01*
X010033Y029685D02*
X008650Y029685D01*
X008650Y029783D02*
X010033Y029783D01*
X010033Y029882D02*
X008650Y029882D01*
X008650Y029980D02*
X010033Y029980D01*
X010033Y030079D02*
X008650Y030079D01*
X008150Y030079D02*
X003610Y030079D01*
X003610Y030177D02*
X008150Y030177D01*
X008150Y030276D02*
X003610Y030276D01*
X003610Y030374D02*
X008150Y030374D01*
X008159Y030473D02*
X003610Y030473D01*
X003610Y030571D02*
X008218Y030571D01*
X008150Y029980D02*
X003610Y029980D01*
X003610Y029882D02*
X008150Y029882D01*
X008150Y029783D02*
X003610Y029783D01*
X003610Y029685D02*
X008150Y029685D01*
X008150Y029586D02*
X003610Y029586D01*
X003610Y029488D02*
X008150Y029488D01*
X008150Y029389D02*
X003610Y029389D01*
X003610Y029291D02*
X008150Y029291D01*
X008150Y029192D02*
X003610Y029192D01*
X003610Y029094D02*
X008150Y029094D01*
X008150Y028995D02*
X003610Y028995D01*
X003610Y028897D02*
X008150Y028897D01*
X008150Y028798D02*
X003610Y028798D01*
X003610Y028700D02*
X008150Y028700D01*
X008150Y028601D02*
X003610Y028601D01*
X003610Y028503D02*
X008150Y028503D01*
X008150Y028404D02*
X003610Y028404D01*
X003610Y028306D02*
X008150Y028306D01*
X008150Y028207D02*
X003610Y028207D01*
X003610Y028109D02*
X008150Y028109D01*
X008150Y028010D02*
X003610Y028010D01*
X003610Y027912D02*
X008150Y027912D01*
X008150Y027813D02*
X003610Y027813D01*
X003610Y027715D02*
X008150Y027715D01*
X008150Y027616D02*
X003610Y027616D01*
X003610Y027518D02*
X008150Y027518D01*
X008150Y027419D02*
X003610Y027419D01*
X003610Y027321D02*
X008150Y027321D01*
X008150Y027222D02*
X003610Y027222D01*
X003610Y027124D02*
X008150Y027124D01*
X008150Y027025D02*
X003610Y027025D01*
X003610Y026927D02*
X008150Y026927D01*
X008150Y026828D02*
X003610Y026828D01*
X003610Y026730D02*
X008150Y026730D01*
X008150Y026631D02*
X003610Y026631D01*
X003610Y026533D02*
X008150Y026533D01*
X008150Y026434D02*
X003610Y026434D01*
X003610Y026336D02*
X008150Y026336D01*
X008150Y026237D02*
X003610Y026237D01*
X003610Y026139D02*
X008150Y026139D01*
X008150Y026040D02*
X003610Y026040D01*
X003610Y025942D02*
X008150Y025942D01*
X008150Y025843D02*
X003610Y025843D01*
X003610Y025745D02*
X008150Y025745D01*
X008150Y025646D02*
X003610Y025646D01*
X003610Y025548D02*
X008150Y025548D01*
X008150Y025449D02*
X003610Y025449D01*
X003610Y025351D02*
X008150Y025351D01*
X008150Y025252D02*
X003610Y025252D01*
X003610Y025154D02*
X008150Y025154D01*
X008150Y025055D02*
X003610Y025055D01*
X003610Y024957D02*
X008150Y024957D01*
X008150Y024858D02*
X003610Y024858D01*
X003610Y024760D02*
X008150Y024760D01*
X008150Y024661D02*
X003610Y024661D01*
X003610Y024563D02*
X008150Y024563D01*
X008150Y024464D02*
X003610Y024464D01*
X003610Y024366D02*
X008150Y024366D01*
X008150Y024267D02*
X003610Y024267D01*
X003610Y024169D02*
X008150Y024169D01*
X008150Y024070D02*
X003610Y024070D01*
X003610Y023972D02*
X008150Y023972D01*
X008150Y023873D02*
X003610Y023873D01*
X003610Y023775D02*
X008150Y023775D01*
X008439Y023085D02*
X009038Y023085D01*
X008340Y022987D02*
X010400Y022987D01*
X010400Y023085D02*
X009762Y023085D01*
X009788Y023184D02*
X010400Y023184D01*
X010400Y023282D02*
X009788Y023282D01*
X009788Y023381D02*
X010400Y023381D01*
X010400Y023479D02*
X009788Y023479D01*
X009788Y023578D02*
X010400Y023578D01*
X010400Y023676D02*
X009788Y023676D01*
X009702Y023775D02*
X010400Y023775D01*
X010400Y022888D02*
X008242Y022888D01*
X008143Y022790D02*
X010400Y022790D01*
X010400Y022691D02*
X008045Y022691D01*
X007946Y022593D02*
X010400Y022593D01*
X010400Y022494D02*
X007848Y022494D01*
X007749Y022396D02*
X010400Y022396D01*
X010400Y022297D02*
X007651Y022297D01*
X007552Y022199D02*
X010400Y022199D01*
X010400Y022100D02*
X007454Y022100D01*
X007355Y022002D02*
X010400Y022002D01*
X010400Y021903D02*
X007257Y021903D01*
X007158Y021805D02*
X010400Y021805D01*
X010400Y021706D02*
X007060Y021706D01*
X006961Y021608D02*
X010400Y021608D01*
X010400Y021509D02*
X006863Y021509D01*
X006764Y021411D02*
X010400Y021411D01*
X010400Y021312D02*
X006666Y021312D01*
X006567Y021214D02*
X010400Y021214D01*
X010400Y021115D02*
X006469Y021115D01*
X006370Y021017D02*
X010400Y021017D01*
X010400Y020918D02*
X006272Y020918D01*
X006173Y020820D02*
X010400Y020820D01*
X010400Y020721D02*
X006075Y020721D01*
X005860Y021214D02*
X004850Y021214D01*
X004752Y021312D02*
X005958Y021312D01*
X006057Y021411D02*
X004579Y021411D01*
X004870Y020623D02*
X010400Y020623D01*
X010400Y020524D02*
X004788Y020524D01*
X004666Y020426D02*
X010400Y020426D01*
X010900Y020426D02*
X014062Y020426D01*
X014020Y020524D02*
X010900Y020524D01*
X010900Y020623D02*
X014020Y020623D01*
X014020Y020721D02*
X010900Y020721D01*
X010900Y020820D02*
X014028Y020820D01*
X014070Y020918D02*
X010900Y020918D01*
X010900Y021017D02*
X014020Y021017D01*
X014020Y021115D02*
X010900Y021115D01*
X010900Y021214D02*
X014020Y021214D01*
X014026Y021312D02*
X010900Y021312D01*
X010900Y021411D02*
X014077Y021411D01*
X014020Y021509D02*
X010900Y021509D01*
X010900Y021608D02*
X014020Y021608D01*
X014020Y021706D02*
X010900Y021706D01*
X010900Y021805D02*
X014024Y021805D01*
X014100Y021903D02*
X010900Y021903D01*
X012262Y023085D02*
X017400Y023085D01*
X017400Y023184D02*
X017114Y023184D01*
X017140Y023282D02*
X017400Y023282D01*
X017400Y023381D02*
X017140Y023381D01*
X017140Y023479D02*
X017400Y023479D01*
X017400Y023578D02*
X017140Y023578D01*
X017106Y023676D02*
X017400Y023676D01*
X017400Y023775D02*
X017140Y023775D01*
X017140Y023873D02*
X017400Y023873D01*
X017400Y023972D02*
X017140Y023972D01*
X017140Y024070D02*
X017400Y024070D01*
X017080Y024650D02*
X017080Y024650D01*
X017091Y024661D02*
X018409Y024661D01*
X018360Y024563D02*
X017841Y024563D01*
X017894Y024464D02*
X018360Y024464D01*
X018360Y024366D02*
X017900Y024366D01*
X017900Y024267D02*
X018360Y024267D01*
X018401Y024169D02*
X017900Y024169D01*
X017900Y024070D02*
X018360Y024070D01*
X018360Y023972D02*
X017900Y023972D01*
X017900Y023873D02*
X018360Y023873D01*
X018360Y023775D02*
X017900Y023775D01*
X017900Y023676D02*
X018394Y023676D01*
X018360Y023578D02*
X017900Y023578D01*
X017900Y023479D02*
X018360Y023479D01*
X018360Y023381D02*
X017900Y023381D01*
X017900Y023282D02*
X018360Y023282D01*
X018386Y023184D02*
X017900Y023184D01*
X018360Y024760D02*
X017140Y024760D01*
X017140Y024858D02*
X018360Y024858D01*
X018360Y024957D02*
X017140Y024957D01*
X017140Y025055D02*
X018360Y025055D01*
X018423Y025154D02*
X017077Y025154D01*
X016907Y026927D02*
X018293Y026927D01*
X018210Y027025D02*
X016990Y027025D01*
X016990Y027124D02*
X018210Y027124D01*
X018210Y027222D02*
X016990Y027222D01*
X016990Y027321D02*
X018210Y027321D01*
X018239Y027419D02*
X016961Y027419D01*
X016990Y027518D02*
X018210Y027518D01*
X018210Y027616D02*
X016990Y027616D01*
X016990Y027715D02*
X018210Y027715D01*
X018210Y027813D02*
X016990Y027813D01*
X016969Y027912D02*
X018231Y027912D01*
X018224Y028404D02*
X016976Y028404D01*
X016990Y028390D02*
X016990Y028010D01*
X016983Y028503D02*
X018217Y028503D01*
X018210Y028601D02*
X016990Y028601D01*
X016990Y028700D02*
X018210Y028700D01*
X018210Y028798D02*
X016990Y028798D01*
X016984Y028897D02*
X018216Y028897D01*
X019144Y028897D02*
X020300Y028897D01*
X020398Y028798D02*
X019150Y028798D01*
X019150Y028700D02*
X020497Y028700D01*
X020595Y028601D02*
X019150Y028601D01*
X019143Y028503D02*
X020694Y028503D01*
X019150Y027321D02*
X028650Y027321D01*
X028650Y027419D02*
X019121Y027419D01*
X019150Y027222D02*
X028650Y027222D01*
X028650Y027124D02*
X019150Y027124D01*
X019150Y027025D02*
X028650Y027025D01*
X028650Y026927D02*
X024290Y026927D01*
X024486Y026828D02*
X028650Y026828D01*
X028650Y026730D02*
X024584Y026730D01*
X024639Y026631D02*
X025650Y026631D01*
X025519Y026533D02*
X024680Y026533D01*
X024480Y025843D02*
X025443Y025843D01*
X025542Y025745D02*
X024443Y025745D01*
X024363Y025646D02*
X025706Y025646D01*
X026094Y025646D02*
X028650Y025646D01*
X028650Y025745D02*
X026258Y025745D01*
X026357Y025843D02*
X028650Y025843D01*
X028650Y025942D02*
X026398Y025942D01*
X026439Y026040D02*
X028650Y026040D01*
X028650Y026139D02*
X026440Y026139D01*
X026440Y026237D02*
X028650Y026237D01*
X028650Y026336D02*
X026408Y026336D01*
X026367Y026434D02*
X028650Y026434D01*
X028650Y026533D02*
X026281Y026533D01*
X026150Y026631D02*
X028650Y026631D01*
X031400Y026631D02*
X033190Y026631D01*
X033190Y026533D02*
X031531Y026533D01*
X031617Y026434D02*
X033190Y026434D01*
X033190Y026336D02*
X031658Y026336D01*
X031690Y026237D02*
X033190Y026237D01*
X033190Y026139D02*
X031690Y026139D01*
X031689Y026040D02*
X033190Y026040D01*
X033190Y025942D02*
X031648Y025942D01*
X031607Y025843D02*
X033190Y025843D01*
X033190Y025745D02*
X031508Y025745D01*
X031363Y025646D02*
X033190Y025646D01*
X033190Y025548D02*
X031516Y025548D01*
X031611Y025449D02*
X033190Y025449D01*
X033190Y025351D02*
X031651Y025351D01*
X031690Y025252D02*
X033190Y025252D01*
X033190Y025154D02*
X031690Y025154D01*
X031690Y025055D02*
X033190Y025055D01*
X033190Y024957D02*
X031654Y024957D01*
X031614Y024858D02*
X033190Y024858D01*
X033190Y024760D02*
X031523Y024760D01*
X031480Y024661D02*
X033190Y024661D01*
X033190Y024563D02*
X031480Y024563D01*
X031480Y024464D02*
X033190Y024464D01*
X033190Y024366D02*
X031480Y024366D01*
X031480Y024267D02*
X033190Y024267D01*
X033190Y024169D02*
X031480Y024169D01*
X031480Y024070D02*
X033190Y024070D01*
X033190Y023972D02*
X031480Y023972D01*
X031480Y023873D02*
X033190Y023873D01*
X033190Y023775D02*
X031480Y023775D01*
X031480Y023676D02*
X033190Y023676D01*
X033190Y023578D02*
X031480Y023578D01*
X031517Y023479D02*
X033190Y023479D01*
X033190Y023381D02*
X031517Y023381D01*
X031517Y023282D02*
X033190Y023282D01*
X033190Y023184D02*
X031517Y023184D01*
X031517Y023085D02*
X033190Y023085D01*
X033190Y022987D02*
X031517Y022987D01*
X031457Y022888D02*
X033190Y022888D01*
X033190Y022790D02*
X031497Y022790D01*
X031198Y022494D02*
X031102Y022494D01*
X031102Y022396D02*
X031198Y022396D01*
X031198Y022297D02*
X031102Y022297D01*
X028956Y019441D02*
X026713Y019441D01*
X026812Y019342D02*
X029054Y019342D01*
X029153Y019244D02*
X026910Y019244D01*
X027009Y019145D02*
X029251Y019145D01*
X029350Y019047D02*
X027107Y019047D01*
X027206Y018948D02*
X029448Y018948D01*
X029547Y018850D02*
X027304Y018850D01*
X027403Y018751D02*
X029645Y018751D01*
X029744Y018653D02*
X027501Y018653D01*
X027600Y018554D02*
X029842Y018554D01*
X029941Y018456D02*
X027698Y018456D01*
X027797Y018357D02*
X030039Y018357D01*
X030138Y018259D02*
X027895Y018259D01*
X027994Y018160D02*
X030236Y018160D01*
X030335Y018062D02*
X028092Y018062D01*
X028191Y017963D02*
X030433Y017963D01*
X030532Y017865D02*
X028289Y017865D01*
X028388Y017766D02*
X030630Y017766D01*
X030729Y017668D02*
X028486Y017668D01*
X028585Y017569D02*
X030827Y017569D01*
X030926Y017471D02*
X028683Y017471D01*
X028782Y017372D02*
X030988Y017372D01*
X030909Y017274D02*
X028880Y017274D01*
X028979Y017175D02*
X030868Y017175D01*
X030840Y017077D02*
X029077Y017077D01*
X029176Y016978D02*
X030840Y016978D01*
X030845Y016880D02*
X029274Y016880D01*
X029373Y016781D02*
X030886Y016781D01*
X030934Y016683D02*
X029471Y016683D01*
X029570Y016584D02*
X031032Y016584D01*
X031141Y016486D02*
X029668Y016486D01*
X029767Y016387D02*
X031003Y016387D01*
X030915Y016289D02*
X029865Y016289D01*
X029552Y015895D02*
X027009Y015895D01*
X026911Y015993D02*
X029453Y015993D01*
X029355Y016092D02*
X026812Y016092D01*
X026714Y016190D02*
X029256Y016190D01*
X029158Y016289D02*
X026677Y016289D01*
X026636Y016387D02*
X029059Y016387D01*
X028961Y016486D02*
X026578Y016486D01*
X026480Y016584D02*
X028862Y016584D01*
X028173Y017274D02*
X022509Y017274D01*
X022591Y017372D02*
X028074Y017372D01*
X027976Y017471D02*
X022638Y017471D01*
X022664Y017569D02*
X027877Y017569D01*
X027779Y017668D02*
X023848Y017668D01*
X023850Y017668D02*
X023923Y017705D01*
X023989Y017753D01*
X024047Y017811D01*
X024095Y017877D01*
X024132Y017950D01*
X024157Y018028D01*
X024169Y018100D01*
X023700Y018100D01*
X023700Y017631D01*
X023772Y017643D01*
X023850Y017668D01*
X023700Y017668D02*
X023600Y017668D01*
X023600Y017766D02*
X023700Y017766D01*
X023700Y017865D02*
X023600Y017865D01*
X023600Y017963D02*
X023700Y017963D01*
X023700Y018062D02*
X023600Y018062D01*
X023600Y018357D02*
X023700Y018357D01*
X023700Y018456D02*
X023600Y018456D01*
X023600Y018554D02*
X023700Y018554D01*
X023321Y018554D02*
X012900Y018554D01*
X012900Y018456D02*
X023229Y018456D01*
X023172Y018357D02*
X012900Y018357D01*
X012900Y018259D02*
X023141Y018259D01*
X023138Y018062D02*
X022468Y018062D01*
X022565Y017963D02*
X023164Y017963D01*
X023215Y017865D02*
X022624Y017865D01*
X022658Y017766D02*
X023299Y017766D01*
X023452Y017668D02*
X022200Y017668D01*
X022200Y017766D02*
X022100Y017766D01*
X022100Y017865D02*
X022200Y017865D01*
X022200Y017963D02*
X022100Y017963D01*
X022100Y018062D02*
X022200Y018062D01*
X021636Y017569D02*
X012900Y017569D01*
X012900Y017471D02*
X021662Y017471D01*
X021709Y017372D02*
X017418Y017372D01*
X017450Y017274D02*
X021791Y017274D01*
X021937Y017175D02*
X017450Y017175D01*
X016542Y017372D02*
X015230Y017372D01*
X015270Y017274D02*
X016510Y017274D01*
X016510Y017175D02*
X015270Y017175D01*
X015270Y017077D02*
X016510Y017077D01*
X016510Y016978D02*
X015261Y016978D01*
X015223Y016880D02*
X016549Y016880D01*
X016510Y016781D02*
X015270Y016781D01*
X015270Y016683D02*
X016510Y016683D01*
X016510Y016584D02*
X015270Y016584D01*
X015263Y016486D02*
X016510Y016486D01*
X016187Y019933D02*
X014913Y019933D01*
X014940Y020032D02*
X016160Y020032D01*
X016160Y020130D02*
X014940Y020130D01*
X014940Y020229D02*
X016160Y020229D01*
X016160Y020327D02*
X014940Y020327D01*
X014878Y020426D02*
X016194Y020426D01*
X016160Y020524D02*
X014920Y020524D01*
X014920Y020623D02*
X016160Y020623D01*
X016160Y020721D02*
X014920Y020721D01*
X014912Y020820D02*
X016160Y020820D01*
X016202Y020918D02*
X014870Y020918D01*
X014920Y021017D02*
X016160Y021017D01*
X016160Y021115D02*
X014920Y021115D01*
X014920Y021214D02*
X016160Y021214D01*
X016160Y021312D02*
X014914Y021312D01*
X014863Y021411D02*
X016209Y021411D01*
X016160Y021509D02*
X014920Y021509D01*
X014920Y021608D02*
X016160Y021608D01*
X016160Y021706D02*
X014920Y021706D01*
X014920Y021660D02*
X014920Y021790D01*
X014910Y021828D01*
X014890Y021862D01*
X014862Y021890D01*
X014828Y021910D01*
X014790Y021920D01*
X014480Y021920D01*
X014480Y021660D01*
X014920Y021660D01*
X014916Y021805D02*
X016160Y021805D01*
X016223Y021903D02*
X014840Y021903D01*
X014480Y021903D02*
X014460Y021903D01*
X014460Y021805D02*
X014480Y021805D01*
X014480Y021706D02*
X014460Y021706D01*
X014460Y021608D02*
X014480Y021608D01*
X014480Y021509D02*
X014460Y021509D01*
X014460Y021411D02*
X014480Y021411D01*
X014480Y021312D02*
X014460Y021312D01*
X014460Y021214D02*
X014480Y021214D01*
X014480Y021115D02*
X014460Y021115D01*
X014460Y021017D02*
X014480Y021017D01*
X014480Y020918D02*
X014460Y020918D01*
X014460Y020820D02*
X014480Y020820D01*
X014480Y020721D02*
X014460Y020721D01*
X018974Y026237D02*
X023633Y026237D01*
X023610Y026336D02*
X018939Y026336D01*
X018903Y026434D02*
X023610Y026434D01*
X023620Y026533D02*
X018900Y026533D01*
X018900Y026631D02*
X023661Y026631D01*
X023716Y026730D02*
X018900Y026730D01*
X018900Y026828D02*
X023814Y026828D01*
X024010Y026927D02*
X019067Y026927D01*
X015950Y030670D02*
X023677Y030670D01*
X023754Y030768D02*
X015950Y030768D01*
X015907Y030867D02*
X023865Y030867D01*
X024435Y030867D02*
X033190Y030867D01*
X033190Y030965D02*
X015950Y030965D01*
X015950Y031064D02*
X033190Y031064D01*
X033190Y031162D02*
X015950Y031162D01*
X015950Y031261D02*
X033190Y031261D01*
X033190Y031359D02*
X015899Y031359D01*
X015950Y031458D02*
X033190Y031458D01*
X033190Y031556D02*
X015950Y031556D01*
X015061Y031359D02*
X013711Y031359D01*
X013764Y031261D02*
X015010Y031261D01*
X015010Y031162D02*
X013770Y031162D01*
X013770Y031064D02*
X015010Y031064D01*
X015010Y030965D02*
X013770Y030965D01*
X013719Y030867D02*
X015053Y030867D01*
X015010Y030768D02*
X013790Y030768D01*
X013790Y030670D02*
X015010Y030670D01*
X015010Y030571D02*
X013790Y030571D01*
X013790Y030473D02*
X015010Y030473D01*
X015046Y030374D02*
X013754Y030374D01*
X013349Y030276D02*
X015230Y030276D01*
X015230Y030177D02*
X013235Y030177D01*
X012850Y030670D02*
X003610Y030670D01*
X003610Y030768D02*
X012850Y030768D01*
X012921Y030867D02*
X003610Y030867D01*
X003610Y030965D02*
X012870Y030965D01*
X012870Y031064D02*
X003610Y031064D01*
X003610Y031162D02*
X012870Y031162D01*
X012876Y031261D02*
X003610Y031261D01*
X003610Y031359D02*
X012929Y031359D01*
X012871Y031458D02*
X003610Y031458D01*
X003610Y031556D02*
X012870Y031556D01*
X012870Y031655D02*
X003610Y031655D01*
X003610Y031753D02*
X012874Y031753D01*
X012942Y031852D02*
X003610Y031852D01*
X003610Y031950D02*
X012873Y031950D01*
X012870Y032049D02*
X003610Y032049D01*
X003610Y032147D02*
X012870Y032147D01*
X012872Y032246D02*
X003610Y032246D01*
X003610Y032344D02*
X012935Y032344D01*
X013310Y032344D02*
X013330Y032344D01*
X013330Y032370D02*
X013330Y032110D01*
X013770Y032110D01*
X013770Y032240D01*
X013760Y032278D01*
X013740Y032312D01*
X013712Y032340D01*
X013678Y032360D01*
X013640Y032370D01*
X013330Y032370D01*
X013330Y032246D02*
X013310Y032246D01*
X013310Y032147D02*
X013330Y032147D01*
X013330Y032049D02*
X013310Y032049D01*
X013310Y031950D02*
X013330Y031950D01*
X013330Y031852D02*
X013310Y031852D01*
X013310Y031753D02*
X013330Y031753D01*
X013330Y031655D02*
X013310Y031655D01*
X013310Y031556D02*
X013330Y031556D01*
X013330Y031458D02*
X013310Y031458D01*
X013310Y031359D02*
X013330Y031359D01*
X013330Y031261D02*
X013310Y031261D01*
X013310Y031162D02*
X013330Y031162D01*
X013769Y031458D02*
X015010Y031458D01*
X015010Y031556D02*
X013770Y031556D01*
X013770Y031655D02*
X015010Y031655D01*
X015010Y031753D02*
X013766Y031753D01*
X013698Y031852D02*
X015068Y031852D01*
X015010Y031950D02*
X013767Y031950D01*
X013770Y032049D02*
X015010Y032049D01*
X015010Y032147D02*
X013770Y032147D01*
X013768Y032246D02*
X015010Y032246D01*
X015064Y032344D02*
X013705Y032344D01*
X015230Y028798D02*
X008650Y028798D01*
X008650Y028700D02*
X015230Y028700D01*
X015250Y028601D02*
X008650Y028601D01*
X008650Y028503D02*
X015324Y028503D01*
X010053Y029291D02*
X008650Y029291D01*
X008650Y029389D02*
X010053Y029389D01*
X009046Y034019D02*
X003610Y034019D01*
X003610Y034117D02*
X005700Y034117D01*
X005462Y034216D02*
X003610Y034216D01*
X003610Y034314D02*
X005355Y034314D01*
X005256Y034413D02*
X003610Y034413D01*
X003610Y034511D02*
X005195Y034511D01*
X005154Y034610D02*
X003610Y034610D01*
X003610Y034708D02*
X005114Y034708D01*
X005100Y034807D02*
X003610Y034807D01*
X003610Y034905D02*
X005100Y034905D01*
X005100Y035004D02*
X003610Y035004D01*
X003610Y035102D02*
X005118Y035102D01*
X005159Y035201D02*
X003610Y035201D01*
X003610Y035299D02*
X005199Y035299D01*
X005266Y035398D02*
X003610Y035398D01*
X003610Y035496D02*
X005365Y035496D01*
X005487Y035595D02*
X003610Y035595D01*
X003610Y035693D02*
X005724Y035693D01*
X006445Y034314D02*
X008887Y034314D01*
X008913Y034216D02*
X006338Y034216D01*
X006100Y034117D02*
X008963Y034117D01*
X003610Y033329D02*
X033190Y033329D01*
X033190Y033231D02*
X003610Y033231D01*
X003610Y033132D02*
X033190Y033132D01*
X033190Y033034D02*
X003610Y033034D01*
X003610Y032935D02*
X033190Y032935D01*
X033190Y032837D02*
X003610Y032837D01*
X003610Y035792D02*
X033190Y035792D01*
X033190Y035890D02*
X003610Y035890D01*
X003610Y035989D02*
X033190Y035989D01*
X033190Y036087D02*
X003610Y036087D01*
X003610Y036186D02*
X033190Y036186D01*
X033190Y036284D02*
X003610Y036284D01*
X003610Y036383D02*
X033190Y036383D01*
X033190Y036481D02*
X003610Y036481D01*
X003610Y036580D02*
X033190Y036580D01*
X033190Y036678D02*
X003610Y036678D01*
X003610Y036777D02*
X033190Y036777D01*
X033190Y036875D02*
X003610Y036875D01*
X003610Y036974D02*
X033190Y036974D01*
X033190Y037072D02*
X003610Y037072D01*
X003610Y037171D02*
X033190Y037171D01*
X033190Y037269D02*
X003610Y037269D01*
X003610Y037368D02*
X033190Y037368D01*
X033190Y037466D02*
X003610Y037466D01*
X003610Y037565D02*
X033190Y037565D01*
X033190Y037663D02*
X003610Y037663D01*
X003610Y037690D02*
X033190Y037690D01*
X033190Y002610D01*
X003610Y002610D01*
X003610Y037690D01*
X004737Y020327D02*
X007223Y020327D01*
X007162Y020229D02*
X004835Y020229D01*
X015150Y013038D02*
X017820Y013038D01*
X017699Y012940D02*
X015150Y012940D01*
X015150Y012841D02*
X017601Y012841D01*
X017600Y012743D02*
X015234Y012743D01*
X015288Y012644D02*
X017600Y012644D01*
X017600Y012546D02*
X015288Y012546D01*
X015288Y012447D02*
X017613Y012447D01*
X017608Y012349D02*
X015288Y012349D01*
X015288Y012250D02*
X017600Y012250D01*
X017600Y012152D02*
X015288Y012152D01*
X015230Y012053D02*
X017600Y012053D01*
X021900Y006833D02*
X022204Y006833D01*
X022302Y006734D02*
X021900Y006734D01*
X021900Y006636D02*
X022481Y006636D01*
X022600Y003582D02*
X022700Y003582D01*
X022700Y003484D02*
X022600Y003484D01*
X022600Y003385D02*
X022700Y003385D01*
X022700Y003287D02*
X022600Y003287D01*
X022600Y002991D02*
X022700Y002991D01*
X022700Y002893D02*
X022600Y002893D01*
X022600Y002794D02*
X022700Y002794D01*
X022700Y002696D02*
X022600Y002696D01*
X022397Y002696D02*
X003610Y002696D01*
X022903Y002696D02*
X033190Y002696D01*
X033190Y002794D02*
X023029Y002794D01*
X023102Y002893D02*
X033190Y002893D01*
X033190Y002991D02*
X023145Y002991D01*
X023050Y003484D02*
X033190Y003484D01*
X033190Y003582D02*
X022940Y003582D01*
X023777Y013432D02*
X031400Y013432D01*
X031102Y013531D02*
X023884Y013531D01*
X023983Y013629D02*
X030987Y013629D01*
X030908Y013728D02*
X024081Y013728D01*
X024180Y013826D02*
X030868Y013826D01*
X030840Y013925D02*
X024278Y013925D01*
X024377Y014023D02*
X030840Y014023D01*
X030846Y014122D02*
X024475Y014122D01*
X024574Y014220D02*
X030887Y014220D01*
X030935Y014319D02*
X024672Y014319D01*
X024771Y014417D02*
X031033Y014417D01*
X031139Y014516D02*
X024869Y014516D01*
X024968Y014614D02*
X031002Y014614D01*
X030880Y015205D02*
X027699Y015205D01*
X027600Y015304D02*
X030921Y015304D01*
X031018Y015402D02*
X027502Y015402D01*
X027403Y015501D02*
X031175Y015501D01*
X031017Y015599D02*
X027305Y015599D01*
X027206Y015698D02*
X030921Y015698D01*
X029650Y015796D02*
X027108Y015796D01*
X026794Y015402D02*
X025756Y015402D01*
X025854Y015501D02*
X026696Y015501D01*
X026597Y015599D02*
X025953Y015599D01*
X025657Y015304D02*
X026893Y015304D01*
X026991Y015205D02*
X025559Y015205D01*
X025460Y015107D02*
X027090Y015107D01*
X027188Y015008D02*
X025362Y015008D01*
X025263Y014910D02*
X027287Y014910D01*
X027385Y014811D02*
X025165Y014811D01*
X025066Y014713D02*
X027484Y014713D01*
X026499Y015698D02*
X026461Y015698D01*
X027680Y017766D02*
X024001Y017766D01*
X024085Y017865D02*
X027582Y017865D01*
X027483Y017963D02*
X024136Y017963D01*
X024162Y018062D02*
X027385Y018062D01*
X024623Y030670D02*
X033190Y030670D01*
X033190Y030768D02*
X024546Y030768D01*
D18*
X024150Y030400D02*
X026650Y030400D01*
X028900Y028150D01*
X028900Y019850D01*
X031750Y017000D01*
X031750Y016000D02*
X029800Y016000D01*
X026150Y019650D01*
X026150Y021900D01*
X025900Y022150D01*
X023650Y022150D01*
X017650Y022150D01*
X017650Y024400D01*
X016670Y024400D01*
X016670Y023900D01*
X016670Y023400D02*
X011900Y023400D01*
X009400Y023400D02*
X008400Y023400D01*
X008400Y030400D01*
X010400Y030400D01*
X010400Y029835D01*
X010400Y030400D02*
X013120Y030400D01*
X013320Y030600D01*
X015480Y030600D02*
X015480Y030400D01*
X019150Y030400D01*
X021400Y028150D01*
X024150Y030400D01*
X018650Y026400D02*
X018830Y025900D01*
X018830Y024900D01*
X018830Y024400D01*
X018830Y023900D01*
X018830Y023400D01*
X017650Y022150D02*
X017650Y021650D01*
X016630Y021650D01*
X016630Y021150D01*
X016630Y020650D01*
X016630Y020150D01*
X014470Y020150D02*
X010650Y020150D01*
X010650Y027200D01*
X013150Y027200D01*
X013000Y027050D01*
X013000Y026585D01*
X013150Y027200D02*
X016520Y027200D01*
X016520Y027700D02*
X016520Y028200D01*
X016520Y028700D01*
X015480Y028700D01*
X015480Y030400D01*
X015480Y030600D02*
X015480Y031100D01*
X015480Y031600D01*
X015480Y032100D01*
X016150Y034150D02*
X016150Y034350D01*
X015850Y034350D01*
X016150Y034150D02*
X017400Y034400D01*
X018650Y028700D02*
X018650Y026400D01*
X018680Y027200D02*
X018680Y027700D01*
X018680Y028200D01*
X018680Y028700D01*
X018650Y028700D01*
X016670Y024900D02*
X016670Y024400D01*
X012650Y018900D02*
X012650Y015650D01*
X014820Y015650D01*
X012900Y015650D01*
X012900Y014235D01*
X014900Y014235D01*
X014900Y012400D01*
X017150Y014400D02*
X017150Y015480D01*
X016980Y015650D01*
X016980Y016150D01*
X016980Y016650D01*
X016980Y017150D01*
X017150Y014400D02*
X017900Y013650D01*
X022150Y013650D01*
X023650Y013650D01*
X026150Y016150D01*
X026400Y016150D01*
X027650Y014900D01*
X031650Y014900D01*
X031750Y015000D01*
X031750Y014000D02*
X031650Y013900D01*
X031650Y010150D01*
X027400Y005900D01*
X026150Y005900D01*
X021650Y005900D01*
X021650Y007150D01*
X022650Y007150D01*
X021650Y005900D02*
X016980Y005900D01*
X016980Y004900D01*
X016980Y004400D01*
X016980Y003900D01*
X016400Y003900D01*
X016980Y004900D02*
X016980Y005400D01*
X016980Y005900D02*
X016980Y008150D01*
X018070Y008150D01*
X018070Y007650D01*
X018070Y007150D02*
X017900Y007150D01*
X017900Y006650D01*
X018070Y008150D02*
X018070Y008650D01*
X019900Y007400D02*
X019900Y007150D01*
X020230Y007150D01*
X020230Y007650D01*
X020230Y008150D01*
X020230Y008650D01*
X020230Y007650D02*
X020230Y007400D01*
X020400Y007400D01*
X020400Y007150D01*
X020230Y007150D01*
X020400Y007400D02*
X020400Y009900D01*
X020400Y011150D01*
X020230Y011150D01*
X020230Y011650D01*
X020230Y012150D01*
X020230Y012650D01*
X018070Y012650D02*
X018070Y012150D01*
X018070Y011650D01*
X018070Y011150D02*
X011650Y011150D01*
X011650Y017900D01*
X004400Y017900D01*
X004400Y018900D02*
X012650Y018900D01*
X010650Y020150D02*
X007400Y020150D01*
X007400Y019900D01*
X004400Y019900D01*
X004400Y020900D02*
X005900Y020900D01*
X008400Y023400D01*
X017900Y013650D02*
X018070Y013480D01*
X018070Y012650D01*
X011650Y011150D02*
X011650Y010900D01*
X011650Y003735D01*
X011650Y003900D01*
X014820Y003900D01*
D19*
X020400Y009900D02*
X026150Y009900D01*
X026150Y012150D01*
X031150Y023235D02*
X031150Y025150D01*
X024150Y025900D02*
X024150Y026400D01*
X024150Y025900D02*
X018830Y025900D01*
D20*
X024150Y026400D02*
X024400Y026150D01*
X025900Y026150D01*
D21*
X014900Y012400D03*
X017900Y006650D03*
X011900Y023400D03*
X009400Y023400D03*
M02*
