G75*
%MOIN*%
%OFA0B0*%
%FSLAX24Y24*%
%IPPOS*%
%LPD*%
%AMOC8*
5,1,8,0,0,1.08239X$1,22.5*
%
%ADD10C,0.0060*%
D10*
X020048Y020750D02*
X020475Y020750D01*
X020693Y020644D02*
X020693Y021071D01*
X021120Y021071D02*
X021120Y020644D01*
X020906Y020430D01*
X020693Y020644D01*
X020262Y020537D02*
X020262Y020964D01*
X022512Y027537D02*
X022512Y027964D01*
X022725Y027750D02*
X022298Y027750D01*
X022943Y027644D02*
X022943Y028071D01*
X023370Y028071D02*
X023370Y027644D01*
X023156Y027430D01*
X022943Y027644D01*
X027180Y027857D02*
X027821Y027857D01*
X027714Y028075D02*
X027287Y028075D01*
X027180Y028181D01*
X027180Y028395D01*
X027287Y028502D01*
X027714Y028502D01*
X027821Y028395D01*
X027821Y028181D01*
X027714Y028075D01*
X027180Y027857D02*
X027821Y027430D01*
X027180Y027430D01*
X028230Y027430D02*
X028871Y027430D01*
X028230Y027857D01*
X028871Y027857D01*
X028764Y028075D02*
X028871Y028181D01*
X028871Y028395D01*
X028764Y028502D01*
X028337Y028502D01*
X028230Y028395D01*
X028230Y028181D01*
X028337Y028075D01*
X028764Y028075D01*
X029280Y028181D02*
X029387Y028075D01*
X029921Y028075D01*
X029814Y027857D02*
X029921Y027750D01*
X029921Y027430D01*
X029280Y027430D01*
X029494Y027430D02*
X029494Y027750D01*
X029600Y027857D01*
X029814Y027857D01*
X029280Y028181D02*
X029280Y028395D01*
X029387Y028502D01*
X029921Y028502D01*
X029921Y028719D02*
X029921Y029039D01*
X029814Y029146D01*
X029707Y029146D01*
X029600Y029039D01*
X029600Y028719D01*
X029280Y028719D02*
X029280Y029039D01*
X029387Y029146D01*
X029494Y029146D01*
X029600Y029039D01*
X029280Y028719D02*
X029921Y028719D01*
X030330Y028826D02*
X030864Y028826D01*
X030971Y028933D01*
X031166Y028933D02*
X031166Y029039D01*
X031273Y029146D01*
X031807Y029146D01*
X031807Y028826D01*
X031700Y028719D01*
X031487Y028719D01*
X031380Y028826D01*
X031380Y029146D01*
X031487Y029364D02*
X031380Y029470D01*
X031380Y029791D01*
X031807Y029791D01*
X031700Y030008D02*
X031807Y030115D01*
X031807Y030435D01*
X031807Y030653D02*
X031807Y030866D01*
X031914Y030760D02*
X031487Y030760D01*
X031380Y030866D01*
X030971Y030758D02*
X030971Y030545D01*
X030864Y030438D01*
X030757Y030438D01*
X030650Y030545D01*
X030650Y030758D01*
X030544Y030865D01*
X030437Y030865D01*
X030330Y030758D01*
X030330Y030545D01*
X030437Y030438D01*
X029921Y030545D02*
X029814Y030438D01*
X029387Y030438D01*
X029280Y030545D01*
X029280Y030758D01*
X029387Y030865D01*
X029814Y030865D02*
X029921Y030758D01*
X029921Y030545D01*
X029921Y030222D02*
X029921Y030008D01*
X029921Y030115D02*
X029280Y030115D01*
X029280Y030008D02*
X029280Y030222D01*
X028871Y030328D02*
X028764Y030435D01*
X028337Y030435D01*
X028230Y030328D01*
X028230Y030115D01*
X028337Y030008D01*
X028764Y030008D01*
X028871Y030115D01*
X028871Y030328D01*
X028871Y030653D02*
X028871Y030973D01*
X028764Y031080D01*
X028550Y031080D01*
X028444Y030973D01*
X028444Y030653D01*
X028230Y030653D02*
X028871Y030653D01*
X028871Y031297D02*
X028764Y031297D01*
X028550Y031511D01*
X028230Y031511D01*
X028550Y031511D02*
X028764Y031724D01*
X028871Y031724D01*
X028871Y031942D02*
X028871Y032262D01*
X028764Y032369D01*
X028550Y032369D01*
X028444Y032262D01*
X028444Y031942D01*
X028444Y032155D02*
X028230Y032369D01*
X028230Y032586D02*
X028230Y032800D01*
X028230Y032693D02*
X028871Y032693D01*
X028871Y032586D02*
X028871Y032800D01*
X028764Y033016D02*
X028871Y033123D01*
X028871Y033336D01*
X028764Y033443D01*
X028550Y033443D02*
X028550Y033230D01*
X028550Y033443D02*
X028337Y033443D01*
X028230Y033336D01*
X028230Y033123D01*
X028337Y033016D01*
X028764Y033016D01*
X029280Y033016D02*
X029921Y033016D01*
X029707Y033230D01*
X029921Y033443D01*
X029280Y033443D01*
X029280Y033661D02*
X029707Y033661D01*
X029921Y033874D01*
X029707Y034088D01*
X029280Y034088D01*
X029280Y034305D02*
X029280Y034519D01*
X029280Y034412D02*
X029921Y034412D01*
X029921Y034305D02*
X029921Y034519D01*
X029921Y034735D02*
X029280Y035162D01*
X029921Y035162D01*
X029921Y034735D02*
X029280Y034735D01*
X028871Y034732D02*
X028871Y034305D01*
X028871Y034519D02*
X028230Y034519D01*
X028230Y034088D02*
X028871Y034088D01*
X028550Y034088D02*
X028550Y033661D01*
X028230Y033661D02*
X028871Y033661D01*
X029600Y033661D02*
X029600Y034088D01*
X030330Y033658D02*
X030330Y033231D01*
X030757Y033658D01*
X030757Y033231D01*
X030757Y033015D02*
X030757Y032801D01*
X030864Y032908D02*
X030437Y032908D01*
X030330Y033015D01*
X030544Y032584D02*
X030544Y032157D01*
X030650Y032157D02*
X030757Y032263D01*
X030757Y032477D01*
X030650Y032584D01*
X030544Y032584D01*
X030330Y032477D02*
X030330Y032263D01*
X030437Y032157D01*
X030650Y032157D01*
X030757Y031834D02*
X030330Y031834D01*
X030330Y031727D02*
X030330Y031941D01*
X029921Y032047D02*
X029921Y031727D01*
X029280Y031727D01*
X029280Y032047D01*
X029387Y032154D01*
X029814Y032154D01*
X029921Y032047D01*
X029814Y032372D02*
X029921Y032478D01*
X029921Y032692D01*
X029814Y032799D01*
X029387Y032799D01*
X029280Y032692D01*
X029280Y032478D01*
X029387Y032372D01*
X029814Y032372D01*
X028871Y031942D02*
X028230Y031942D01*
X027821Y031942D02*
X027180Y032369D01*
X027821Y032369D01*
X027821Y032586D02*
X027821Y033013D01*
X027821Y032800D02*
X027180Y032800D01*
X027287Y033231D02*
X027180Y033338D01*
X027180Y033551D01*
X027287Y033658D01*
X027394Y033658D01*
X027500Y033551D01*
X027500Y033338D01*
X027607Y033231D01*
X027714Y033231D01*
X027821Y033338D01*
X027821Y033551D01*
X027714Y033658D01*
X027821Y031942D02*
X027180Y031942D01*
X027180Y031724D02*
X027180Y031297D01*
X027821Y031297D01*
X027821Y031724D01*
X027500Y031511D02*
X027500Y031297D01*
X027821Y031080D02*
X027821Y030653D01*
X027821Y030866D02*
X027180Y030866D01*
X027180Y030435D02*
X027607Y030435D01*
X027821Y030222D01*
X027607Y030008D01*
X027180Y030008D01*
X027500Y030008D02*
X027500Y030435D01*
X027500Y029791D02*
X027394Y029684D01*
X027394Y029364D01*
X027180Y029364D02*
X027821Y029364D01*
X027821Y029684D01*
X027714Y029791D01*
X027500Y029791D01*
X028230Y029684D02*
X028230Y029470D01*
X028337Y029364D01*
X028764Y029364D01*
X028871Y029470D01*
X028871Y029684D01*
X028764Y029791D01*
X028337Y029791D02*
X028230Y029684D01*
X029280Y029791D02*
X029280Y029364D01*
X029921Y029364D01*
X030330Y029469D02*
X030330Y029256D01*
X030437Y029149D01*
X030650Y029149D01*
X030757Y029256D01*
X030757Y029469D01*
X030650Y029576D01*
X030544Y029576D01*
X030544Y029149D01*
X030650Y028933D02*
X030650Y028719D01*
X030650Y028502D02*
X030330Y028502D01*
X030330Y028181D01*
X030437Y028075D01*
X030544Y028181D01*
X030544Y028502D01*
X030650Y028502D02*
X030757Y028395D01*
X030757Y028181D01*
X030330Y027857D02*
X030330Y027430D01*
X030971Y027430D01*
X031380Y027430D02*
X031807Y027430D01*
X032021Y027644D01*
X031807Y027857D01*
X031380Y027857D01*
X031487Y028075D02*
X031380Y028181D01*
X031380Y028502D01*
X031807Y028502D01*
X031807Y028075D02*
X031487Y028075D01*
X031700Y027857D02*
X031700Y027430D01*
X032430Y027430D02*
X032430Y027750D01*
X032537Y027857D01*
X032964Y027857D01*
X033071Y027750D01*
X033071Y027430D01*
X032430Y027430D01*
X032537Y028075D02*
X032430Y028181D01*
X032430Y028502D01*
X032857Y028502D01*
X032857Y028826D02*
X032857Y029039D01*
X032750Y029146D01*
X032430Y029146D01*
X032430Y028826D01*
X032537Y028719D01*
X032644Y028826D01*
X032644Y029146D01*
X032430Y029364D02*
X032430Y029577D01*
X032430Y029470D02*
X033071Y029470D01*
X033071Y029364D01*
X033071Y030438D02*
X032430Y030438D01*
X032750Y030438D02*
X032750Y030865D01*
X032750Y031082D02*
X032750Y031509D01*
X032750Y031727D02*
X032750Y032047D01*
X032644Y032154D01*
X032537Y032154D01*
X032430Y032047D01*
X032430Y031727D01*
X033071Y031727D01*
X033071Y032047D01*
X032964Y032154D01*
X032857Y032154D01*
X032750Y032047D01*
X032644Y032372D02*
X032857Y032585D01*
X032857Y032692D01*
X032857Y032909D02*
X032857Y033015D01*
X032430Y033015D01*
X032430Y032909D02*
X032430Y033122D01*
X032537Y033338D02*
X032750Y033338D01*
X032857Y033445D01*
X032857Y033765D01*
X033071Y033765D02*
X032430Y033765D01*
X032430Y033445D01*
X032537Y033338D01*
X032021Y033230D02*
X031380Y033230D01*
X031380Y033443D02*
X031380Y033016D01*
X031487Y032799D02*
X031380Y032692D01*
X031380Y032478D01*
X031487Y032372D01*
X031914Y032799D01*
X031487Y032799D01*
X031807Y033016D02*
X032021Y033230D01*
X032021Y033661D02*
X032021Y034088D01*
X031914Y034088D01*
X031487Y033661D01*
X031380Y033661D01*
X031914Y032799D02*
X032021Y032692D01*
X032021Y032478D01*
X031914Y032372D01*
X031487Y032372D01*
X031380Y032154D02*
X031380Y031727D01*
X031807Y032154D01*
X031914Y032154D01*
X032021Y032047D01*
X032021Y031834D01*
X031914Y031727D01*
X032430Y032372D02*
X032857Y032372D01*
X033071Y033015D02*
X033177Y033015D01*
X032750Y033983D02*
X032537Y033983D01*
X032430Y034090D01*
X032430Y034410D01*
X032323Y034410D02*
X032857Y034410D01*
X032857Y034090D01*
X032750Y033983D01*
X032216Y034196D02*
X032216Y034303D01*
X032323Y034410D01*
X032537Y034627D02*
X032750Y034627D01*
X032857Y034734D01*
X032857Y034948D01*
X032750Y035055D01*
X032644Y035055D01*
X032644Y034627D01*
X032537Y034627D02*
X032430Y034734D01*
X032430Y034948D01*
X031077Y031834D02*
X030971Y031834D01*
X030757Y031834D02*
X030757Y031727D01*
X030650Y031509D02*
X030437Y031509D01*
X030330Y031403D01*
X030330Y031082D01*
X030116Y031082D02*
X030757Y031082D01*
X030757Y031403D01*
X030650Y031509D01*
X030864Y030865D02*
X030971Y030758D01*
X031380Y030328D02*
X031487Y030435D01*
X031594Y030328D01*
X031594Y030115D01*
X031700Y030008D01*
X031380Y030008D02*
X031380Y030328D01*
X031487Y029364D02*
X031807Y029364D01*
X032537Y028075D02*
X032857Y028075D01*
X033071Y030865D02*
X032430Y030865D01*
X024120Y033144D02*
X023906Y032930D01*
X023693Y033144D01*
X023693Y033571D01*
X023475Y033250D02*
X023048Y033250D01*
X023262Y033037D02*
X023262Y033464D01*
X024120Y033571D02*
X024120Y033144D01*
X019120Y033894D02*
X018906Y033680D01*
X018693Y033894D01*
X018693Y034321D01*
X018475Y034107D02*
X018369Y034107D01*
X018369Y033680D01*
X018475Y033680D02*
X018262Y033680D01*
X018046Y033680D02*
X018046Y034107D01*
X017725Y034107D01*
X017619Y034000D01*
X017619Y033680D01*
X018369Y034321D02*
X018369Y034427D01*
X019120Y034321D02*
X019120Y033894D01*
X023693Y011071D02*
X023693Y010644D01*
X023906Y010430D01*
X024120Y010644D01*
X024120Y011071D01*
X023475Y010750D02*
X023048Y010750D01*
X023262Y010537D02*
X023262Y010964D01*
M02*
