G75*
%MOIN*%
%OFA0B0*%
%FSLAX24Y24*%
%IPPOS*%
%LPD*%
%AMOC8*
5,1,8,0,0,1.08239X$1,22.5*
%
%ADD10R,0.0600X0.0240*%
%ADD11R,0.0394X0.0433*%
D10*
X014820Y003900D03*
X014820Y004400D03*
X014820Y004900D03*
X014820Y005400D03*
X016980Y005400D03*
X016980Y004900D03*
X016980Y004400D03*
X016980Y003900D03*
X018070Y007150D03*
X018070Y007650D03*
X018070Y008150D03*
X018070Y008650D03*
X018070Y011150D03*
X018070Y011650D03*
X018070Y012150D03*
X018070Y012650D03*
X020230Y012650D03*
X020230Y012150D03*
X020230Y011650D03*
X020230Y011150D03*
X020230Y008650D03*
X020230Y008150D03*
X020230Y007650D03*
X020230Y007150D03*
X016980Y015650D03*
X016980Y016150D03*
X016980Y016650D03*
X016980Y017150D03*
X014820Y017150D03*
X014820Y016650D03*
X014820Y016150D03*
X014820Y015650D03*
X014470Y020150D03*
X014470Y020650D03*
X014470Y021150D03*
X014470Y021650D03*
X016630Y021650D03*
X016630Y021150D03*
X016630Y020650D03*
X016630Y020150D03*
X016670Y023400D03*
X016670Y023900D03*
X016670Y024400D03*
X016670Y024900D03*
X016520Y027200D03*
X016520Y027700D03*
X016520Y028200D03*
X016520Y028700D03*
X015480Y030600D03*
X015480Y031100D03*
X015480Y031600D03*
X015480Y032100D03*
X013320Y032100D03*
X013320Y031600D03*
X013320Y031100D03*
X013320Y030600D03*
X018680Y028700D03*
X018680Y028200D03*
X018680Y027700D03*
X018680Y027200D03*
X018830Y024900D03*
X018830Y024400D03*
X018830Y023900D03*
X018830Y023400D03*
D11*
X011650Y003065D03*
X011650Y003735D03*
X012900Y013565D03*
X012900Y014235D03*
X013000Y025915D03*
X013000Y026585D03*
X010400Y029165D03*
X010400Y029835D03*
X031150Y023235D03*
X031150Y022565D03*
M02*
