G75*
%MOIN*%
%OFA0B0*%
%FSLAX24Y24*%
%IPPOS*%
%LPD*%
%AMOC8*
5,1,8,0,0,1.08239X$1,22.5*
%
%ADD10C,0.0060*%
%ADD11C,0.0160*%
%ADD12C,0.0050*%
%ADD13C,0.0020*%
%ADD14C,0.0040*%
%ADD15C,0.0080*%
%ADD16R,0.0300X0.0180*%
%ADD17C,0.0100*%
%ADD18C,0.0010*%
D10*
X003979Y008430D02*
X003979Y008750D01*
X004086Y008857D01*
X004513Y008857D01*
X004620Y008750D01*
X004620Y008430D01*
X003979Y008430D01*
X004193Y009075D02*
X004513Y009075D01*
X004620Y009181D01*
X004620Y009502D01*
X004193Y009502D01*
X004193Y009826D02*
X004193Y010039D01*
X004300Y010146D01*
X004620Y010146D01*
X004620Y009826D01*
X004513Y009719D01*
X004406Y009826D01*
X004406Y010146D01*
X004620Y010364D02*
X004620Y010577D01*
X004620Y010470D02*
X003979Y010470D01*
X003979Y010364D01*
X003979Y011438D02*
X004620Y011438D01*
X004300Y011438D02*
X004300Y011865D01*
X004300Y012082D02*
X004300Y012509D01*
X004300Y012727D02*
X004300Y013047D01*
X004406Y013154D01*
X004513Y013154D01*
X004620Y013047D01*
X004620Y012727D01*
X003979Y012727D01*
X003979Y013047D01*
X004086Y013154D01*
X004193Y013154D01*
X004300Y013047D01*
X004406Y013372D02*
X004193Y013585D01*
X004193Y013692D01*
X004193Y013909D02*
X004193Y014015D01*
X004620Y014015D01*
X004620Y013909D02*
X004620Y014122D01*
X004513Y014338D02*
X004300Y014338D01*
X004193Y014445D01*
X004193Y014765D01*
X003979Y014765D02*
X004620Y014765D01*
X004620Y014445D01*
X004513Y014338D01*
X005029Y014230D02*
X005670Y014230D01*
X005670Y014443D02*
X005670Y014016D01*
X005563Y013799D02*
X005136Y013799D01*
X005563Y013372D01*
X005670Y013478D01*
X005670Y013692D01*
X005563Y013799D01*
X005243Y014016D02*
X005029Y014230D01*
X005136Y013799D02*
X005029Y013692D01*
X005029Y013478D01*
X005136Y013372D01*
X005563Y013372D01*
X005670Y013154D02*
X005670Y012727D01*
X005243Y013154D01*
X005136Y013154D01*
X005029Y013047D01*
X005029Y012834D01*
X005136Y012727D01*
X004620Y013372D02*
X004193Y013372D01*
X003979Y014015D02*
X003873Y014015D01*
X004300Y014983D02*
X004513Y014983D01*
X004620Y015090D01*
X004620Y015410D01*
X004727Y015410D02*
X004193Y015410D01*
X004193Y015090D01*
X004300Y014983D01*
X004834Y015196D02*
X004834Y015303D01*
X004727Y015410D01*
X004513Y015627D02*
X004300Y015627D01*
X004193Y015734D01*
X004193Y015948D01*
X004300Y016055D01*
X004406Y016055D01*
X004406Y015627D01*
X004513Y015627D02*
X004620Y015734D01*
X004620Y015948D01*
X005180Y016537D02*
X005287Y016430D01*
X005500Y016430D01*
X005607Y016537D01*
X005607Y016750D01*
X005394Y016750D01*
X005607Y016964D02*
X005500Y017071D01*
X005287Y017071D01*
X005180Y016964D01*
X005180Y016537D01*
X005825Y016430D02*
X005825Y017071D01*
X006252Y016430D01*
X006252Y017071D01*
X006469Y017071D02*
X006789Y017071D01*
X006896Y016964D01*
X006896Y016537D01*
X006789Y016430D01*
X006469Y016430D01*
X006469Y017071D01*
X007129Y016162D02*
X007770Y016162D01*
X007129Y015735D01*
X007770Y015735D01*
X007770Y015519D02*
X007770Y015305D01*
X007770Y015412D02*
X007129Y015412D01*
X007129Y015305D02*
X007129Y015519D01*
X007343Y015088D02*
X007770Y015088D01*
X007450Y015088D02*
X007450Y014661D01*
X007343Y014661D02*
X007129Y014874D01*
X007343Y015088D01*
X007343Y014661D02*
X007770Y014661D01*
X007770Y014443D02*
X007129Y014443D01*
X007343Y014230D01*
X007129Y014016D01*
X007770Y014016D01*
X007663Y013799D02*
X007236Y013799D01*
X007129Y013692D01*
X007129Y013478D01*
X007236Y013372D01*
X007663Y013372D01*
X007770Y013478D01*
X007770Y013692D01*
X007663Y013799D01*
X007663Y013154D02*
X007236Y013154D01*
X007129Y013047D01*
X007129Y012727D01*
X007770Y012727D01*
X007770Y013047D01*
X007663Y013154D01*
X008179Y013262D02*
X008179Y012942D01*
X008820Y012942D01*
X008606Y012942D02*
X008606Y013262D01*
X008500Y013369D01*
X008286Y013369D01*
X008179Y013262D01*
X008179Y013586D02*
X008179Y013800D01*
X008179Y013693D02*
X008820Y013693D01*
X008820Y013586D02*
X008820Y013800D01*
X008713Y014016D02*
X008820Y014123D01*
X008820Y014336D01*
X008713Y014443D01*
X008500Y014443D01*
X008500Y014230D01*
X008286Y014443D02*
X008179Y014336D01*
X008179Y014123D01*
X008286Y014016D01*
X008713Y014016D01*
X009229Y014013D02*
X009229Y013586D01*
X009229Y013800D02*
X009870Y013800D01*
X009870Y013369D02*
X009229Y013369D01*
X008820Y013369D02*
X008606Y013155D01*
X008286Y012724D02*
X008179Y012724D01*
X008286Y012724D02*
X008500Y012511D01*
X008820Y012511D01*
X008500Y012511D02*
X008286Y012297D01*
X008179Y012297D01*
X008286Y012080D02*
X008500Y012080D01*
X008606Y011973D01*
X008606Y011653D01*
X008820Y011653D02*
X008179Y011653D01*
X008179Y011973D01*
X008286Y012080D01*
X007770Y011758D02*
X007663Y011865D01*
X007770Y011758D02*
X007770Y011545D01*
X007663Y011438D01*
X007236Y011438D01*
X007129Y011545D01*
X007129Y011758D01*
X007236Y011865D01*
X006934Y012082D02*
X006293Y012082D01*
X006293Y012403D01*
X006400Y012509D01*
X006613Y012509D01*
X006720Y012403D01*
X006720Y012082D01*
X006613Y011865D02*
X006720Y011758D01*
X006720Y011545D01*
X006613Y011438D01*
X006400Y011545D02*
X006400Y011758D01*
X006506Y011865D01*
X006613Y011865D01*
X006400Y011545D02*
X006293Y011438D01*
X006186Y011438D01*
X006079Y011545D01*
X006079Y011758D01*
X006186Y011865D01*
X005670Y011866D02*
X005563Y011760D01*
X005136Y011760D01*
X005243Y011866D02*
X005243Y011653D01*
X005243Y011435D02*
X005243Y011115D01*
X005350Y011008D01*
X005456Y011115D01*
X005456Y011328D01*
X005563Y011435D01*
X005670Y011328D01*
X005670Y011008D01*
X005670Y010791D02*
X005243Y010791D01*
X005670Y010791D02*
X005670Y010470D01*
X005563Y010364D01*
X005243Y010364D01*
X005243Y010146D02*
X005243Y009826D01*
X005350Y009719D01*
X005563Y009719D01*
X005670Y009826D01*
X005670Y010146D01*
X005777Y010146D02*
X005243Y010146D01*
X005777Y010146D02*
X005884Y010039D01*
X005884Y009933D01*
X006079Y009933D02*
X006186Y009826D01*
X006720Y009826D01*
X006720Y009502D02*
X006400Y009502D01*
X006293Y009395D01*
X006293Y009181D01*
X006506Y009181D02*
X006506Y009502D01*
X006720Y009502D02*
X006720Y009181D01*
X006613Y009075D01*
X006506Y009181D01*
X006720Y008857D02*
X006720Y008430D01*
X006079Y008430D01*
X005670Y008430D02*
X005243Y008430D01*
X005029Y008644D01*
X005243Y008857D01*
X005670Y008857D01*
X005563Y009075D02*
X005243Y009075D01*
X005350Y008857D02*
X005350Y008430D01*
X005563Y009075D02*
X005670Y009181D01*
X005670Y009502D01*
X005243Y009502D01*
X006293Y010256D02*
X006293Y010469D01*
X006400Y010576D01*
X006506Y010576D01*
X006506Y010149D01*
X006400Y010149D02*
X006293Y010256D01*
X006400Y010149D02*
X006613Y010149D01*
X006720Y010256D01*
X006720Y010469D01*
X007129Y010364D02*
X007770Y010364D01*
X007770Y010791D01*
X007770Y011008D02*
X007770Y011222D01*
X007770Y011115D02*
X007129Y011115D01*
X007129Y011008D02*
X007129Y011222D01*
X008179Y011328D02*
X008179Y011115D01*
X008286Y011008D01*
X008713Y011008D01*
X008820Y011115D01*
X008820Y011328D01*
X008713Y011435D01*
X008286Y011435D01*
X008179Y011328D01*
X008286Y010791D02*
X008179Y010684D01*
X008179Y010470D01*
X008286Y010364D01*
X008713Y010364D01*
X008820Y010470D01*
X008820Y010684D01*
X008713Y010791D01*
X009229Y010684D02*
X009229Y010364D01*
X009870Y010364D01*
X009656Y010364D02*
X009656Y010684D01*
X009550Y010791D01*
X009336Y010791D01*
X009229Y010684D01*
X009443Y011008D02*
X009229Y011222D01*
X009443Y011435D01*
X009870Y011435D01*
X009550Y011435D02*
X009550Y011008D01*
X009443Y011008D02*
X009870Y011008D01*
X009870Y011866D02*
X009229Y011866D01*
X009229Y011653D02*
X009229Y012080D01*
X009229Y012297D02*
X009870Y012297D01*
X009870Y012724D01*
X009870Y012942D02*
X009229Y012942D01*
X009870Y013369D01*
X009763Y014231D02*
X009870Y014338D01*
X009870Y014551D01*
X009763Y014658D01*
X009656Y014658D01*
X009550Y014551D01*
X009550Y014338D01*
X009443Y014231D01*
X009336Y014231D01*
X009229Y014338D01*
X009229Y014551D01*
X009336Y014658D01*
X008820Y014661D02*
X008179Y014661D01*
X008500Y014661D02*
X008500Y015088D01*
X008820Y015088D02*
X008179Y015088D01*
X008179Y015305D02*
X008179Y015732D01*
X008179Y015519D02*
X008820Y015519D01*
X010250Y017430D02*
X010250Y018071D01*
X009930Y017750D01*
X010357Y017750D01*
X009107Y019037D02*
X009000Y018930D01*
X008787Y018930D01*
X008680Y019037D01*
X008894Y019250D02*
X009000Y019250D01*
X009107Y019144D01*
X009107Y019037D01*
X009000Y019250D02*
X009107Y019357D01*
X009107Y019464D01*
X009000Y019571D01*
X008787Y019571D01*
X008680Y019464D01*
X007607Y019680D02*
X007180Y019680D01*
X007607Y020107D01*
X007607Y020214D01*
X007500Y020321D01*
X007287Y020321D01*
X007180Y020214D01*
X005857Y020930D02*
X005430Y020930D01*
X005644Y020930D02*
X005644Y021571D01*
X005430Y021357D01*
X007430Y024680D02*
X007857Y024680D01*
X007644Y024680D02*
X007644Y025321D01*
X007430Y025107D01*
X006370Y025787D02*
X006370Y026000D01*
X006263Y026107D01*
X005836Y026107D01*
X005729Y026000D01*
X005729Y025787D01*
X005836Y025680D01*
X006263Y025680D01*
X006370Y025787D01*
X006370Y026325D02*
X005729Y026325D01*
X006370Y026752D01*
X005729Y026752D01*
X005320Y026752D02*
X004893Y026752D01*
X004679Y026538D01*
X004893Y026325D01*
X005320Y026325D01*
X005320Y026107D02*
X004679Y026107D01*
X004893Y025894D01*
X004679Y025680D01*
X005320Y025680D01*
X005000Y026325D02*
X005000Y026752D01*
X005320Y026969D02*
X004679Y027396D01*
X004679Y027614D02*
X004679Y027827D01*
X004679Y027720D02*
X005320Y027720D01*
X005320Y027614D02*
X005320Y027827D01*
X005320Y028043D02*
X004679Y028043D01*
X004893Y028257D01*
X004679Y028470D01*
X005320Y028470D01*
X005213Y028688D02*
X005320Y028795D01*
X005320Y029008D01*
X005213Y029115D01*
X004679Y029115D01*
X004679Y029332D02*
X004893Y029546D01*
X004679Y029759D01*
X005320Y029759D01*
X005320Y029332D02*
X004679Y029332D01*
X004270Y029223D02*
X004163Y029330D01*
X004270Y029223D02*
X004270Y029010D01*
X004163Y028903D01*
X003736Y028903D01*
X003629Y029010D01*
X003629Y029223D01*
X003736Y029330D01*
X003736Y028685D02*
X003629Y028578D01*
X003629Y028258D01*
X004270Y028258D01*
X004270Y028578D01*
X004163Y028685D01*
X003736Y028685D01*
X003629Y028041D02*
X004056Y028041D01*
X004270Y027827D01*
X004056Y027614D01*
X003629Y027614D01*
X003736Y026752D02*
X003629Y026645D01*
X003629Y026431D01*
X003736Y026325D01*
X004163Y026325D01*
X003736Y026752D01*
X004163Y026752D01*
X004270Y026645D01*
X004270Y026431D01*
X004163Y026325D01*
X004270Y026107D02*
X004270Y025680D01*
X003843Y026107D01*
X003736Y026107D01*
X003629Y026000D01*
X003629Y025787D01*
X003736Y025680D01*
X004679Y026969D02*
X005320Y027396D01*
X005729Y027720D02*
X005836Y027614D01*
X006263Y027614D01*
X006370Y027720D01*
X006370Y027934D01*
X006263Y028041D01*
X006050Y028041D01*
X006050Y027827D01*
X005836Y028041D02*
X005729Y027934D01*
X005729Y027720D01*
X005943Y028258D02*
X005729Y028472D01*
X005943Y028685D01*
X006370Y028685D01*
X006050Y028685D02*
X006050Y028258D01*
X005943Y028258D02*
X006370Y028258D01*
X005729Y028903D02*
X005729Y029330D01*
X005729Y029116D02*
X006370Y029116D01*
X006370Y029547D02*
X005729Y029547D01*
X005729Y029974D01*
X005836Y030192D02*
X005943Y030192D01*
X006050Y030299D01*
X006050Y030512D01*
X006156Y030619D01*
X006263Y030619D01*
X006370Y030512D01*
X006370Y030299D01*
X006263Y030192D01*
X006370Y029974D02*
X006370Y029547D01*
X006050Y029547D02*
X006050Y029761D01*
X005836Y030192D02*
X005729Y030299D01*
X005729Y030512D01*
X005836Y030619D01*
X005213Y028688D02*
X004679Y028688D01*
X008680Y028714D02*
X008680Y028287D01*
X009107Y028714D01*
X009107Y028287D01*
X009000Y028180D01*
X008787Y028180D01*
X008680Y028287D01*
X008680Y028714D02*
X008787Y028821D01*
X009000Y028821D01*
X009107Y028714D01*
X009325Y028500D02*
X009645Y028500D01*
X009752Y028394D01*
X009752Y028287D01*
X009645Y028180D01*
X009431Y028180D01*
X009325Y028287D01*
X009325Y028500D01*
X009538Y028714D01*
X009752Y028821D01*
X009969Y028714D02*
X010076Y028821D01*
X010289Y028821D01*
X010396Y028714D01*
X009969Y028287D01*
X010076Y028180D01*
X010289Y028180D01*
X010396Y028287D01*
X010396Y028714D01*
X010614Y028714D02*
X010720Y028821D01*
X010934Y028821D01*
X011041Y028714D01*
X011041Y028607D01*
X010934Y028500D01*
X011041Y028394D01*
X011041Y028287D01*
X010934Y028180D01*
X010720Y028180D01*
X010614Y028287D01*
X010827Y028500D02*
X010934Y028500D01*
X010930Y029180D02*
X011357Y029180D01*
X011144Y029180D02*
X011144Y029821D01*
X010930Y029607D01*
X011575Y029714D02*
X011575Y029287D01*
X012002Y029714D01*
X012002Y029287D01*
X011895Y029180D01*
X011681Y029180D01*
X011575Y029287D01*
X011903Y028821D02*
X012223Y028821D01*
X012330Y028714D01*
X012330Y028500D01*
X012223Y028394D01*
X011903Y028394D01*
X011903Y028180D02*
X011903Y028821D01*
X012219Y029180D02*
X012219Y029821D01*
X012002Y029714D02*
X011895Y029821D01*
X011681Y029821D01*
X011575Y029714D01*
X012219Y029394D02*
X012539Y029607D01*
X012219Y029394D02*
X012539Y029180D01*
X012547Y028821D02*
X012547Y028180D01*
X012547Y028394D02*
X012974Y028821D01*
X013192Y028714D02*
X013192Y028287D01*
X013299Y028180D01*
X013512Y028180D01*
X013619Y028287D01*
X013619Y028500D01*
X013405Y028500D01*
X013192Y028714D02*
X013299Y028821D01*
X013512Y028821D01*
X013619Y028714D01*
X012974Y028180D02*
X012654Y028500D01*
X014180Y027464D02*
X014287Y027571D01*
X014500Y027571D01*
X014607Y027464D01*
X014607Y027357D01*
X014180Y026930D01*
X014607Y026930D01*
X012539Y026357D02*
X012219Y026144D01*
X012539Y025930D01*
X012219Y025930D02*
X012219Y026571D01*
X012002Y026464D02*
X012002Y026037D01*
X011895Y025930D01*
X011681Y025930D01*
X011575Y026037D01*
X012002Y026464D01*
X011895Y026571D01*
X011681Y026571D01*
X011575Y026464D01*
X011575Y026037D01*
X011357Y025930D02*
X010930Y025930D01*
X011144Y025930D02*
X011144Y026571D01*
X010930Y026357D01*
X009969Y028287D02*
X009969Y028714D01*
X009857Y030930D02*
X009430Y030930D01*
X009644Y030930D02*
X009644Y031571D01*
X009430Y031357D01*
X011246Y032087D02*
X011353Y031980D01*
X011567Y031980D01*
X011673Y032087D01*
X011673Y032300D01*
X011460Y032300D01*
X011246Y032087D02*
X011246Y032514D01*
X011353Y032621D01*
X011567Y032621D01*
X011673Y032514D01*
X011891Y032621D02*
X012318Y031980D01*
X012318Y032621D01*
X012535Y032621D02*
X012856Y032621D01*
X012962Y032514D01*
X012962Y032087D01*
X012856Y031980D01*
X012535Y031980D01*
X012535Y032621D01*
X011891Y032621D02*
X011891Y031980D01*
X010606Y035230D02*
X010285Y035230D01*
X010285Y035871D01*
X010606Y035871D01*
X010712Y035764D01*
X010712Y035337D01*
X010606Y035230D01*
X010068Y035230D02*
X010068Y035871D01*
X009641Y035871D02*
X009641Y035230D01*
X009423Y035337D02*
X009423Y035550D01*
X009210Y035550D01*
X009423Y035337D02*
X009317Y035230D01*
X009103Y035230D01*
X008996Y035337D01*
X008996Y035764D01*
X009103Y035871D01*
X009317Y035871D01*
X009423Y035764D01*
X009641Y035871D02*
X010068Y035230D01*
X012930Y035644D02*
X012930Y035857D01*
X013144Y036071D01*
X013360Y035964D02*
X013466Y036071D01*
X013680Y036071D01*
X013787Y035964D01*
X013787Y035857D01*
X013680Y035750D01*
X013787Y035644D01*
X013787Y035537D01*
X013680Y035430D01*
X013466Y035430D01*
X013360Y035537D01*
X013144Y035430D02*
X012930Y035644D01*
X013573Y035750D02*
X013680Y035750D01*
X014004Y035537D02*
X014004Y035964D01*
X014111Y036071D01*
X014325Y036071D01*
X014431Y035964D01*
X014004Y035537D01*
X014111Y035430D01*
X014325Y035430D01*
X014431Y035537D01*
X014431Y035964D01*
X014649Y036071D02*
X014649Y035644D01*
X014862Y035430D01*
X015076Y035644D01*
X015076Y036071D01*
X015293Y036071D02*
X015614Y036071D01*
X015720Y035964D01*
X015720Y035537D01*
X015614Y035430D01*
X015293Y035430D01*
X015293Y036071D01*
X015291Y036480D02*
X014864Y036480D01*
X014864Y037121D01*
X015291Y037121D01*
X015508Y037121D02*
X015828Y037121D01*
X015935Y037014D01*
X015935Y036800D01*
X015828Y036694D01*
X015508Y036694D01*
X015722Y036694D02*
X015935Y036480D01*
X016045Y036071D02*
X015938Y035964D01*
X015938Y035537D01*
X016045Y035430D01*
X016258Y035430D01*
X016365Y035537D01*
X016365Y035964D02*
X016258Y036071D01*
X016045Y036071D01*
X015508Y036480D02*
X015508Y037121D01*
X015077Y036800D02*
X014864Y036800D01*
X014646Y036480D02*
X014646Y037121D01*
X014219Y037121D02*
X014219Y036480D01*
X014433Y036694D01*
X014646Y036480D01*
X014002Y036587D02*
X014002Y037014D01*
X013895Y037121D01*
X013681Y037121D01*
X013575Y037014D01*
X013575Y036587D01*
X013681Y036480D01*
X013895Y036480D01*
X014002Y036587D01*
X013357Y036800D02*
X013357Y037014D01*
X013250Y037121D01*
X012930Y037121D01*
X012930Y036480D01*
X012930Y036694D02*
X013250Y036694D01*
X013357Y036800D01*
X016797Y036480D02*
X017011Y036480D01*
X016904Y036480D02*
X016904Y037121D01*
X016797Y037121D02*
X017011Y037121D01*
X017227Y037121D02*
X017654Y036480D01*
X017654Y037121D01*
X017227Y037121D02*
X017227Y036480D01*
X017227Y036071D02*
X017441Y035857D01*
X017654Y036071D01*
X017654Y035430D01*
X017872Y035430D02*
X017872Y035857D01*
X018085Y036071D01*
X018299Y035857D01*
X018299Y035430D01*
X018516Y035430D02*
X018943Y036071D01*
X019161Y036071D02*
X019374Y035857D01*
X019374Y035644D01*
X019161Y035430D01*
X018943Y035430D02*
X018516Y036071D01*
X018299Y035750D02*
X017872Y035750D01*
X017227Y035430D02*
X017227Y036071D01*
X017644Y030821D02*
X017430Y030607D01*
X017430Y030180D01*
X017430Y030500D02*
X017857Y030500D01*
X017857Y030607D02*
X017857Y030180D01*
X018075Y030500D02*
X018502Y030500D01*
X018288Y030287D02*
X018288Y030714D01*
X017857Y030607D02*
X017644Y030821D01*
X017680Y026321D02*
X017680Y025894D01*
X017894Y025680D01*
X018107Y025894D01*
X018107Y026321D01*
X018325Y026000D02*
X018752Y026000D01*
X018538Y025787D02*
X018538Y026214D01*
X015107Y022930D02*
X014680Y022930D01*
X014894Y022930D02*
X014894Y023571D01*
X014680Y023357D01*
X013856Y022121D02*
X013535Y022121D01*
X013535Y021480D01*
X013856Y021480D01*
X013962Y021587D01*
X013962Y022014D01*
X013856Y022121D01*
X013318Y022121D02*
X013318Y021480D01*
X012891Y022121D01*
X012891Y021480D01*
X012673Y021587D02*
X012673Y021800D01*
X012460Y021800D01*
X012673Y021587D02*
X012567Y021480D01*
X012353Y021480D01*
X012246Y021587D01*
X012246Y022014D01*
X012353Y022121D01*
X012567Y022121D01*
X012673Y022014D01*
X012500Y020571D02*
X012287Y020571D01*
X012180Y020464D01*
X012500Y020571D02*
X012607Y020464D01*
X012607Y020357D01*
X012180Y019930D01*
X012607Y019930D01*
X013603Y018121D02*
X013496Y018014D01*
X013496Y017587D01*
X013603Y017480D01*
X013817Y017480D01*
X013923Y017587D01*
X013923Y017800D01*
X013710Y017800D01*
X013923Y018014D02*
X013817Y018121D01*
X013603Y018121D01*
X014141Y018121D02*
X014141Y017480D01*
X014568Y017480D02*
X014568Y018121D01*
X014785Y018121D02*
X015106Y018121D01*
X015212Y018014D01*
X015212Y017587D01*
X015106Y017480D01*
X014785Y017480D01*
X014785Y018121D01*
X014141Y018121D02*
X014568Y017480D01*
X014000Y016571D02*
X014107Y016464D01*
X014107Y016357D01*
X014000Y016250D01*
X014107Y016144D01*
X014107Y016037D01*
X014000Y015930D01*
X013787Y015930D01*
X013680Y016037D01*
X013894Y016250D02*
X014000Y016250D01*
X014000Y016571D02*
X013787Y016571D01*
X013680Y016464D01*
X013931Y013821D02*
X014145Y013821D01*
X014252Y013714D01*
X013825Y013287D01*
X013931Y013180D01*
X014145Y013180D01*
X014252Y013287D01*
X014252Y013714D01*
X014469Y013821D02*
X014469Y013180D01*
X014469Y013394D02*
X014789Y013607D01*
X014469Y013394D02*
X014789Y013180D01*
X013825Y013287D02*
X013825Y013714D01*
X013931Y013821D01*
X013607Y013180D02*
X013180Y013180D01*
X013394Y013180D02*
X013394Y013821D01*
X013180Y013607D01*
X009550Y012511D02*
X009550Y012297D01*
X009229Y012297D02*
X009229Y012724D01*
X006720Y012727D02*
X006720Y012941D01*
X006720Y012834D02*
X006293Y012834D01*
X006293Y012727D01*
X006079Y012834D02*
X005973Y012834D01*
X006400Y013157D02*
X006293Y013263D01*
X006293Y013477D01*
X006400Y013584D01*
X006506Y013584D01*
X006506Y013157D01*
X006400Y013157D02*
X006613Y013157D01*
X006720Y013263D01*
X006720Y013477D01*
X006613Y013908D02*
X006186Y013908D01*
X006293Y013801D02*
X006293Y014015D01*
X006293Y014231D02*
X006293Y014658D01*
X006720Y014231D01*
X006720Y014658D01*
X006720Y014015D02*
X006613Y013908D01*
X005670Y014661D02*
X005563Y014661D01*
X005136Y015088D01*
X005029Y015088D01*
X005029Y014661D01*
X004620Y011865D02*
X003979Y011865D01*
X006400Y009933D02*
X006400Y009719D01*
X007129Y009719D02*
X007129Y010039D01*
X007236Y010146D01*
X007343Y010146D01*
X007450Y010039D01*
X007450Y009719D01*
X007663Y009502D02*
X007129Y009502D01*
X007129Y009719D02*
X007770Y009719D01*
X007770Y010039D01*
X007663Y010146D01*
X007556Y010146D01*
X007450Y010039D01*
X007663Y009502D02*
X007770Y009395D01*
X007770Y009181D01*
X007663Y009075D01*
X007129Y009075D01*
X007236Y008857D02*
X007450Y008857D01*
X007556Y008750D01*
X007556Y008430D01*
X007770Y008430D02*
X007129Y008430D01*
X007129Y008750D01*
X007236Y008857D01*
X008179Y008857D02*
X008820Y008857D01*
X008179Y008430D01*
X008820Y008430D01*
X009229Y008430D02*
X009870Y008857D01*
X009229Y008857D01*
X009336Y009075D02*
X009763Y009075D01*
X009870Y009181D01*
X009870Y009395D01*
X009763Y009502D01*
X009336Y009502D01*
X009229Y009395D01*
X009229Y009181D01*
X009336Y009075D01*
X008820Y009181D02*
X008820Y009395D01*
X008713Y009502D01*
X008286Y009502D01*
X008179Y009395D01*
X008179Y009181D01*
X008286Y009075D01*
X008713Y009075D01*
X008820Y009181D01*
X009229Y008430D02*
X009870Y008430D01*
X010536Y006712D02*
X010429Y006606D01*
X010429Y006285D01*
X011070Y006285D01*
X011070Y006606D01*
X010963Y006712D01*
X010536Y006712D01*
X010429Y006068D02*
X011070Y006068D01*
X010429Y005641D01*
X011070Y005641D01*
X010963Y005423D02*
X010750Y005423D01*
X010750Y005210D01*
X010963Y005423D02*
X011070Y005317D01*
X011070Y005103D01*
X010963Y004996D01*
X010536Y004996D01*
X010429Y005103D01*
X010429Y005317D01*
X010536Y005423D01*
X010431Y003821D02*
X010325Y003714D01*
X010325Y003287D01*
X010752Y003714D01*
X010752Y003287D01*
X010645Y003180D01*
X010431Y003180D01*
X010325Y003287D01*
X010107Y003180D02*
X009680Y003180D01*
X009894Y003180D02*
X009894Y003821D01*
X009680Y003607D01*
X010431Y003821D02*
X010645Y003821D01*
X010752Y003714D01*
X010969Y003821D02*
X010969Y003180D01*
X010969Y003394D02*
X011289Y003607D01*
X010969Y003394D02*
X011289Y003180D01*
X012180Y004500D02*
X012607Y004500D01*
X012500Y004180D02*
X012500Y004821D01*
X012180Y004500D01*
X012853Y005480D02*
X012746Y005587D01*
X012746Y006014D01*
X012853Y006121D01*
X013067Y006121D01*
X013173Y006014D01*
X013173Y005800D02*
X012960Y005800D01*
X013173Y005800D02*
X013173Y005587D01*
X013067Y005480D01*
X012853Y005480D01*
X013391Y005480D02*
X013391Y006121D01*
X013818Y005480D01*
X013818Y006121D01*
X014035Y006121D02*
X014356Y006121D01*
X014462Y006014D01*
X014462Y005587D01*
X014356Y005480D01*
X014035Y005480D01*
X014035Y006121D01*
X015680Y006537D02*
X015787Y006430D01*
X016000Y006430D01*
X016107Y006537D01*
X016107Y006644D01*
X016000Y006750D01*
X015894Y006750D01*
X016000Y006750D02*
X016107Y006857D01*
X016107Y006964D01*
X016000Y007071D01*
X015787Y007071D01*
X015680Y006964D01*
X018180Y005071D02*
X018180Y004430D01*
X018500Y004430D01*
X018607Y004537D01*
X018607Y004644D01*
X018500Y004750D01*
X018180Y004750D01*
X018500Y004750D02*
X018607Y004857D01*
X018607Y004964D01*
X018500Y005071D01*
X018180Y005071D01*
X018825Y004750D02*
X019252Y004750D01*
X019391Y003621D02*
X019711Y003621D01*
X019818Y003514D01*
X019818Y003407D01*
X019711Y003300D01*
X019391Y003300D01*
X019173Y003300D02*
X019067Y003194D01*
X018746Y003194D01*
X018746Y002980D02*
X018746Y003621D01*
X019067Y003621D01*
X019173Y003514D01*
X019173Y003300D01*
X019391Y002980D02*
X019711Y002980D01*
X019818Y003087D01*
X019818Y003194D01*
X019711Y003300D01*
X020035Y003300D02*
X020249Y003300D01*
X020035Y002980D02*
X020035Y003621D01*
X020462Y003621D01*
X019391Y003621D02*
X019391Y002980D01*
X018529Y002980D02*
X018315Y003194D01*
X018422Y003194D02*
X018102Y003194D01*
X018102Y002980D02*
X018102Y003621D01*
X018422Y003621D01*
X018529Y003514D01*
X018529Y003300D01*
X018422Y003194D01*
X017884Y003621D02*
X017457Y003621D01*
X017671Y003621D02*
X017671Y002980D01*
X017240Y002980D02*
X016813Y002980D01*
X017240Y003407D01*
X017240Y003514D01*
X017133Y003621D01*
X016919Y003621D01*
X016813Y003514D01*
X016595Y003621D02*
X016382Y003514D01*
X016168Y003300D01*
X016488Y003300D01*
X016595Y003194D01*
X016595Y003087D01*
X016488Y002980D01*
X016275Y002980D01*
X016168Y003087D01*
X016168Y003300D01*
X015951Y003194D02*
X015951Y003087D01*
X015844Y002980D01*
X015630Y002980D01*
X015524Y003087D01*
X015524Y003194D01*
X015630Y003300D01*
X015844Y003300D01*
X015951Y003194D01*
X015844Y003300D02*
X015951Y003407D01*
X015951Y003514D01*
X015844Y003621D01*
X015630Y003621D01*
X015524Y003514D01*
X015524Y003407D01*
X015630Y003300D01*
X015306Y003514D02*
X014879Y003087D01*
X014879Y002980D01*
X014448Y003300D02*
X014234Y003300D01*
X014017Y003300D02*
X014017Y003514D01*
X013910Y003621D01*
X013590Y003621D01*
X013590Y002980D01*
X013590Y003194D02*
X013910Y003194D01*
X014017Y003300D01*
X013803Y003194D02*
X014017Y002980D01*
X014234Y002980D02*
X014234Y003621D01*
X014662Y003621D01*
X014879Y003621D02*
X015306Y003621D01*
X015306Y003514D01*
X013374Y003621D02*
X013160Y003621D01*
X013267Y003621D02*
X013267Y002980D01*
X013160Y002980D02*
X013374Y002980D01*
X008070Y004996D02*
X007429Y004996D01*
X007429Y005317D01*
X007536Y005423D01*
X007750Y005423D01*
X007856Y005317D01*
X007856Y004996D01*
X008070Y005641D02*
X007429Y005641D01*
X007429Y006068D02*
X008070Y006068D01*
X007856Y005854D01*
X008070Y005641D01*
X008070Y006285D02*
X007429Y006285D01*
X007429Y006606D01*
X007536Y006712D01*
X007750Y006712D01*
X007856Y006606D01*
X007856Y006285D01*
X007856Y006499D02*
X008070Y006712D01*
X017180Y010500D02*
X017607Y010500D01*
X017500Y010180D02*
X017500Y010821D01*
X017180Y010500D01*
X018180Y014680D02*
X018500Y014680D01*
X018607Y014787D01*
X018607Y014894D01*
X018500Y015000D01*
X018180Y015000D01*
X018180Y014680D02*
X018180Y015321D01*
X018500Y015321D01*
X018607Y015214D01*
X018607Y015107D01*
X018500Y015000D01*
X018825Y015000D02*
X019252Y015000D01*
X019038Y014787D02*
X019038Y015214D01*
X021603Y018230D02*
X021817Y018230D01*
X021923Y018337D01*
X021923Y018550D01*
X021710Y018550D01*
X021496Y018337D02*
X021496Y018764D01*
X021603Y018871D01*
X021817Y018871D01*
X021923Y018764D01*
X022141Y018871D02*
X022568Y018230D01*
X022568Y018871D01*
X022785Y018871D02*
X023106Y018871D01*
X023212Y018764D01*
X023212Y018337D01*
X023106Y018230D01*
X022785Y018230D01*
X022785Y018871D01*
X022141Y018871D02*
X022141Y018230D01*
X021603Y018230D02*
X021496Y018337D01*
X019752Y021000D02*
X019325Y021000D01*
X019107Y021000D02*
X018680Y021000D01*
X018680Y021107D02*
X018894Y021321D01*
X019107Y021107D01*
X019107Y020680D01*
X018680Y020680D02*
X018680Y021107D01*
X023680Y025394D02*
X023894Y025180D01*
X024107Y025394D01*
X024107Y025821D01*
X024325Y025500D02*
X024752Y025500D01*
X024538Y025287D02*
X024538Y025714D01*
X023680Y025821D02*
X023680Y025394D01*
X023606Y031730D02*
X023285Y031730D01*
X023285Y032371D01*
X023606Y032371D01*
X023712Y032264D01*
X023712Y031837D01*
X023606Y031730D01*
X023068Y031730D02*
X023068Y032371D01*
X022641Y032371D02*
X022641Y031730D01*
X022423Y031837D02*
X022423Y032050D01*
X022210Y032050D01*
X022423Y031837D02*
X022317Y031730D01*
X022103Y031730D01*
X021996Y031837D01*
X021996Y032264D01*
X022103Y032371D01*
X022317Y032371D01*
X022423Y032264D01*
X022641Y032371D02*
X023068Y031730D01*
X024537Y033430D02*
X024430Y033537D01*
X024537Y033430D02*
X024750Y033430D01*
X024857Y033537D01*
X024857Y033644D01*
X024750Y033750D01*
X024537Y033750D01*
X024430Y033857D01*
X024430Y033964D01*
X024537Y034071D01*
X024750Y034071D01*
X024857Y033964D01*
X025075Y034071D02*
X025075Y033430D01*
X025288Y033644D01*
X025502Y033430D01*
X025502Y034071D01*
X025719Y034071D02*
X025933Y034071D01*
X025826Y034071D02*
X025826Y033430D01*
X025719Y033430D02*
X025933Y033430D01*
X026362Y033430D02*
X026362Y034071D01*
X026149Y034071D02*
X026576Y034071D01*
X026793Y033964D02*
X026793Y033537D01*
X026900Y033430D01*
X027114Y033430D01*
X027220Y033537D01*
X027438Y033430D02*
X027438Y034071D01*
X027220Y033964D02*
X027114Y034071D01*
X026900Y034071D01*
X026793Y033964D01*
X026684Y034480D02*
X026470Y034480D01*
X026364Y034587D01*
X026364Y035014D01*
X026470Y035121D01*
X026684Y035121D01*
X026791Y035014D01*
X026791Y034587D01*
X026684Y034480D01*
X027008Y034480D02*
X027008Y035121D01*
X027435Y035121D01*
X027653Y035121D02*
X028080Y035121D01*
X027866Y034800D02*
X027653Y034800D01*
X027653Y034480D02*
X027653Y035121D01*
X027222Y034800D02*
X027008Y034800D01*
X026146Y035121D02*
X025719Y034480D01*
X025502Y034480D02*
X025502Y035121D01*
X025075Y035121D02*
X025075Y034480D01*
X024857Y034587D02*
X024857Y035014D01*
X024750Y035121D01*
X024537Y035121D01*
X024430Y035014D01*
X024430Y034587D01*
X024537Y034480D01*
X024750Y034480D01*
X024857Y034587D01*
X025075Y035121D02*
X025502Y034480D01*
X027438Y033750D02*
X027865Y033750D01*
X027865Y033430D02*
X027865Y034071D01*
X030180Y027821D02*
X030180Y027180D01*
X030607Y027180D01*
X030825Y027180D02*
X031252Y027180D01*
X031469Y027180D02*
X031789Y027180D01*
X031896Y027287D01*
X031896Y027714D01*
X031789Y027821D01*
X031469Y027821D01*
X031469Y027180D01*
X031038Y027500D02*
X030825Y027500D01*
X030825Y027180D02*
X030825Y027821D01*
X031252Y027821D01*
X030150Y025650D02*
X030152Y025713D01*
X030158Y025775D01*
X030168Y025837D01*
X030181Y025899D01*
X030199Y025959D01*
X030220Y026018D01*
X030245Y026076D01*
X030274Y026132D01*
X030306Y026186D01*
X030341Y026238D01*
X030379Y026287D01*
X030421Y026335D01*
X030465Y026379D01*
X030513Y026421D01*
X030562Y026459D01*
X030614Y026494D01*
X030668Y026526D01*
X030724Y026555D01*
X030782Y026580D01*
X030841Y026601D01*
X030901Y026619D01*
X030963Y026632D01*
X031025Y026642D01*
X031087Y026648D01*
X031150Y026650D01*
X031213Y026648D01*
X031275Y026642D01*
X031337Y026632D01*
X031399Y026619D01*
X031459Y026601D01*
X031518Y026580D01*
X031576Y026555D01*
X031632Y026526D01*
X031686Y026494D01*
X031738Y026459D01*
X031787Y026421D01*
X031835Y026379D01*
X031879Y026335D01*
X031921Y026287D01*
X031959Y026238D01*
X031994Y026186D01*
X032026Y026132D01*
X032055Y026076D01*
X032080Y026018D01*
X032101Y025959D01*
X032119Y025899D01*
X032132Y025837D01*
X032142Y025775D01*
X032148Y025713D01*
X032150Y025650D01*
X032148Y025587D01*
X032142Y025525D01*
X032132Y025463D01*
X032119Y025401D01*
X032101Y025341D01*
X032080Y025282D01*
X032055Y025224D01*
X032026Y025168D01*
X031994Y025114D01*
X031959Y025062D01*
X031921Y025013D01*
X031879Y024965D01*
X031835Y024921D01*
X031787Y024879D01*
X031738Y024841D01*
X031686Y024806D01*
X031632Y024774D01*
X031576Y024745D01*
X031518Y024720D01*
X031459Y024699D01*
X031399Y024681D01*
X031337Y024668D01*
X031275Y024658D01*
X031213Y024652D01*
X031150Y024650D01*
X031087Y024652D01*
X031025Y024658D01*
X030963Y024668D01*
X030901Y024681D01*
X030841Y024699D01*
X030782Y024720D01*
X030724Y024745D01*
X030668Y024774D01*
X030614Y024806D01*
X030562Y024841D01*
X030513Y024879D01*
X030465Y024921D01*
X030421Y024965D01*
X030379Y025013D01*
X030341Y025062D01*
X030306Y025114D01*
X030274Y025168D01*
X030245Y025224D01*
X030220Y025282D01*
X030199Y025341D01*
X030181Y025401D01*
X030168Y025463D01*
X030158Y025525D01*
X030152Y025587D01*
X030150Y025650D01*
X030143Y023963D02*
X030356Y023643D01*
X030570Y023963D01*
X030570Y023643D02*
X029929Y023643D01*
X030036Y023425D02*
X030143Y023425D01*
X030250Y023319D01*
X030356Y023425D01*
X030463Y023425D01*
X030570Y023319D01*
X030570Y023105D01*
X030463Y022998D01*
X030463Y022783D02*
X030570Y022783D01*
X030570Y022676D01*
X030463Y022676D01*
X030463Y022783D01*
X030463Y022459D02*
X030570Y022352D01*
X030570Y022138D01*
X030463Y022031D01*
X030250Y022245D02*
X030250Y022352D01*
X030356Y022459D01*
X030463Y022459D01*
X030250Y022352D02*
X030143Y022459D01*
X030036Y022459D01*
X029929Y022352D01*
X029929Y022138D01*
X030036Y022031D01*
X030036Y022998D02*
X029929Y023105D01*
X029929Y023319D01*
X030036Y023425D01*
X030250Y023319D02*
X030250Y023212D01*
X031680Y024037D02*
X031787Y023930D01*
X032000Y023930D01*
X032107Y024037D01*
X032107Y024464D01*
X032000Y024571D01*
X031787Y024571D01*
X031680Y024464D01*
X031680Y024037D01*
X032325Y023930D02*
X032325Y024571D01*
X032752Y023930D01*
X032752Y024571D01*
X030788Y017464D02*
X030788Y017037D01*
X030575Y017250D02*
X031002Y017250D01*
X030357Y017250D02*
X029930Y017250D01*
X029930Y017357D02*
X029930Y016930D01*
X030357Y016930D02*
X030357Y017357D01*
X030144Y017571D01*
X029930Y017357D01*
X029894Y016321D02*
X030107Y016107D01*
X030107Y015680D01*
X030107Y016000D02*
X029680Y016000D01*
X029680Y016107D02*
X029894Y016321D01*
X029680Y016107D02*
X029680Y015680D01*
X029680Y015321D02*
X030000Y015321D01*
X030107Y015214D01*
X030107Y015107D01*
X030000Y015000D01*
X029680Y015000D01*
X029680Y014680D02*
X030000Y014680D01*
X030107Y014787D01*
X030107Y014894D01*
X030000Y015000D01*
X030325Y015000D02*
X030752Y015000D01*
X030538Y014787D02*
X030538Y015214D01*
X030325Y016000D02*
X030752Y016000D01*
X029680Y015321D02*
X029680Y014680D01*
X029680Y014321D02*
X030000Y014321D01*
X030107Y014214D01*
X030107Y014107D01*
X030000Y014000D01*
X029680Y014000D01*
X029680Y013680D02*
X030000Y013680D01*
X030107Y013787D01*
X030107Y013894D01*
X030000Y014000D01*
X030325Y014000D02*
X030752Y014000D01*
X029680Y013680D02*
X029680Y014321D01*
X025502Y010750D02*
X025075Y010750D01*
X024857Y010644D02*
X024857Y011071D01*
X024857Y010644D02*
X024644Y010430D01*
X024430Y010644D01*
X024430Y011071D01*
X025288Y010964D02*
X025288Y010537D01*
X022252Y010750D02*
X021825Y010750D01*
X021607Y010644D02*
X021607Y011071D01*
X021180Y011071D02*
X021180Y010644D01*
X021394Y010430D01*
X021607Y010644D01*
X022038Y010537D02*
X022038Y010964D01*
X023644Y004321D02*
X023644Y003680D01*
X023857Y003680D02*
X023430Y003680D01*
X023353Y003371D02*
X023246Y003264D01*
X023246Y002837D01*
X023353Y002730D01*
X023567Y002730D01*
X023673Y002837D01*
X023673Y003050D01*
X023460Y003050D01*
X023673Y003264D02*
X023567Y003371D01*
X023353Y003371D01*
X023891Y003371D02*
X023891Y002730D01*
X024318Y002730D02*
X023891Y003371D01*
X024075Y003680D02*
X024075Y004321D01*
X024502Y003680D01*
X024502Y004321D01*
X024719Y004000D02*
X025146Y004000D01*
X025364Y003787D02*
X025791Y004214D01*
X025791Y003787D01*
X025684Y003680D01*
X025470Y003680D01*
X025364Y003787D01*
X025364Y004214D01*
X025470Y004321D01*
X025684Y004321D01*
X025791Y004214D01*
X026008Y004214D02*
X026008Y003787D01*
X026435Y004214D01*
X026435Y003787D01*
X026328Y003680D01*
X026115Y003680D01*
X026008Y003787D01*
X026008Y004214D02*
X026115Y004321D01*
X026328Y004321D01*
X026435Y004214D01*
X026653Y004107D02*
X026866Y004321D01*
X026866Y003680D01*
X026653Y003680D02*
X027080Y003680D01*
X027297Y003787D02*
X027297Y004214D01*
X027404Y004321D01*
X027618Y004321D01*
X027724Y004214D01*
X027724Y004000D02*
X027511Y004000D01*
X027724Y004000D02*
X027724Y003787D01*
X027618Y003680D01*
X027404Y003680D01*
X027297Y003787D01*
X027942Y003894D02*
X028262Y003894D01*
X028369Y004000D01*
X028369Y004214D01*
X028262Y004321D01*
X027942Y004321D01*
X027942Y003680D01*
X028586Y004000D02*
X029013Y004000D01*
X029231Y004000D02*
X029444Y004000D01*
X029231Y003680D02*
X029658Y003680D01*
X029875Y003787D02*
X029982Y003680D01*
X030196Y003680D01*
X030303Y003787D01*
X030303Y003894D01*
X030196Y004000D01*
X030089Y004000D01*
X030196Y004000D02*
X030303Y004107D01*
X030303Y004214D01*
X030196Y004321D01*
X029982Y004321D01*
X029875Y004214D01*
X029658Y004321D02*
X029231Y004321D01*
X029231Y003680D01*
X025039Y003680D02*
X025039Y004321D01*
X024719Y004000D01*
X024856Y003371D02*
X024535Y003371D01*
X024535Y002730D01*
X024856Y002730D01*
X024962Y002837D01*
X024962Y003264D01*
X024856Y003371D01*
X024318Y003371D02*
X024318Y002730D01*
X023430Y004107D02*
X023644Y004321D01*
D11*
X020900Y007150D02*
X020900Y010150D01*
X020900Y012650D01*
X020900Y010150D02*
X025650Y010150D01*
X025650Y011650D01*
X023400Y014150D02*
X026150Y016900D01*
X028150Y014900D01*
X029400Y014900D01*
X029400Y015900D02*
X026150Y019150D01*
X026150Y021650D01*
X017400Y021650D01*
X017400Y023650D01*
X016400Y023150D02*
X015400Y023150D01*
X014400Y023150D02*
X011150Y023150D01*
X010150Y023150D02*
X008150Y023150D01*
X005900Y023150D01*
X005900Y021400D01*
X005150Y020900D02*
X004900Y020900D01*
X005150Y019900D02*
X006900Y019900D01*
X006150Y019150D02*
X006150Y018900D01*
X005400Y018900D01*
X006150Y019150D02*
X008400Y019150D01*
X007900Y019900D02*
X010400Y019900D01*
X010400Y027150D01*
X013900Y027150D01*
X014900Y027150D02*
X015900Y027150D01*
X016650Y028900D02*
X016650Y029900D01*
X018900Y029900D01*
X021400Y027400D01*
X024900Y030150D01*
X026650Y030150D01*
X028900Y027900D01*
X028900Y018650D01*
X029650Y017900D01*
X029900Y013150D02*
X029900Y007900D01*
X027400Y005400D01*
X017400Y005400D01*
X017400Y003900D01*
X017400Y005400D02*
X017400Y007900D01*
X017650Y006650D02*
X018400Y006650D01*
X018400Y006900D01*
X016650Y006650D02*
X016150Y006650D01*
X015650Y006650D02*
X015400Y006650D01*
X015400Y010900D01*
X015400Y011650D02*
X015400Y014650D01*
X012900Y014650D01*
X012900Y015400D01*
X014650Y015400D01*
X012900Y015400D02*
X012900Y019150D01*
X009400Y019150D01*
X010400Y019900D02*
X011900Y019900D01*
X012900Y019900D02*
X014150Y019900D01*
X017150Y020900D02*
X017400Y020900D01*
X017400Y021650D01*
X018900Y025150D02*
X018900Y026150D01*
X023650Y026150D01*
X024650Y026150D02*
X025400Y026150D01*
X029150Y029900D02*
X032400Y029900D01*
X032400Y030650D01*
X031900Y030650D01*
X031900Y030150D02*
X031400Y030150D01*
X031650Y030150D02*
X031650Y031150D01*
X029900Y031150D01*
X029900Y030150D01*
X030150Y030150D01*
X029900Y030150D02*
X029650Y030150D01*
X029650Y030650D02*
X029150Y030650D01*
X029150Y031150D01*
X029650Y031150D01*
X029900Y031150D02*
X029900Y031650D01*
X031650Y031650D01*
X031650Y031150D01*
X031900Y031150D02*
X032400Y031150D01*
X032400Y030650D01*
X032400Y031150D02*
X032400Y031650D01*
X031900Y031650D01*
X031650Y031650D02*
X031650Y032650D01*
X031400Y032650D01*
X031650Y032650D02*
X031900Y032650D01*
X031900Y032150D02*
X032400Y032150D01*
X032400Y031650D01*
X032400Y032150D02*
X032400Y032900D01*
X029150Y032900D01*
X029150Y032150D01*
X029650Y032150D01*
X029650Y031650D02*
X029150Y031650D01*
X029150Y032150D01*
X029150Y031650D02*
X029150Y031150D01*
X029150Y030650D02*
X029150Y029900D01*
X029900Y031650D02*
X029900Y032650D01*
X030150Y032650D01*
X029900Y032650D02*
X029650Y032650D01*
X018900Y026650D02*
X018900Y026150D01*
X016650Y029900D02*
X016150Y029900D01*
X016150Y032150D01*
X012650Y030650D02*
X008150Y030650D01*
X008150Y023150D01*
X009650Y017650D02*
X005150Y017650D01*
X010650Y017650D02*
X011400Y017650D01*
X011400Y011150D01*
X017400Y011150D01*
X017400Y011900D02*
X017400Y012900D01*
X017650Y012900D01*
X017650Y014150D01*
X023400Y014150D01*
X017650Y014150D02*
X017650Y017400D01*
X011400Y011150D02*
X011400Y004150D01*
X014150Y004150D01*
D12*
X015190Y003720D02*
X016610Y003720D01*
X016610Y005580D01*
X015190Y005580D01*
X015190Y003720D01*
X018440Y006970D02*
X019860Y006970D01*
X019860Y008830D01*
X018440Y008830D01*
X018440Y006970D01*
X018440Y010970D02*
X019860Y010970D01*
X019860Y012830D01*
X018440Y012830D01*
X018440Y010970D01*
X016610Y015470D02*
X015190Y015470D01*
X015190Y017330D01*
X016610Y017330D01*
X016610Y015470D01*
X016260Y019970D02*
X014840Y019970D01*
X014840Y021830D01*
X016260Y021830D01*
X016260Y019970D01*
X017040Y023220D02*
X018460Y023220D01*
X018460Y025080D01*
X017040Y025080D01*
X017040Y023220D01*
X016890Y027020D02*
X018310Y027020D01*
X018310Y028880D01*
X016890Y028880D01*
X016890Y027020D01*
X015110Y030420D02*
X015110Y032280D01*
X013690Y032280D01*
X013690Y030420D01*
X015110Y030420D01*
X019540Y033120D02*
X019540Y035680D01*
X024260Y035680D01*
X024260Y033120D01*
X019540Y033120D01*
D13*
X016970Y028660D02*
X016972Y028683D01*
X016978Y028705D01*
X016987Y028727D01*
X017000Y028746D01*
X017015Y028763D01*
X017033Y028777D01*
X017054Y028788D01*
X017076Y028796D01*
X017098Y028800D01*
X017122Y028800D01*
X017144Y028796D01*
X017166Y028788D01*
X017187Y028777D01*
X017205Y028763D01*
X017220Y028746D01*
X017233Y028727D01*
X017242Y028705D01*
X017248Y028683D01*
X017250Y028660D01*
X017248Y028637D01*
X017242Y028615D01*
X017233Y028593D01*
X017220Y028574D01*
X017205Y028557D01*
X017187Y028543D01*
X017166Y028532D01*
X017144Y028524D01*
X017122Y028520D01*
X017098Y028520D01*
X017076Y028524D01*
X017054Y028532D01*
X017033Y028543D01*
X017015Y028557D01*
X017000Y028574D01*
X016987Y028593D01*
X016978Y028615D01*
X016972Y028637D01*
X016970Y028660D01*
X013770Y032060D02*
X013772Y032083D01*
X013778Y032105D01*
X013787Y032127D01*
X013800Y032146D01*
X013815Y032163D01*
X013833Y032177D01*
X013854Y032188D01*
X013876Y032196D01*
X013898Y032200D01*
X013922Y032200D01*
X013944Y032196D01*
X013966Y032188D01*
X013987Y032177D01*
X014005Y032163D01*
X014020Y032146D01*
X014033Y032127D01*
X014042Y032105D01*
X014048Y032083D01*
X014050Y032060D01*
X014048Y032037D01*
X014042Y032015D01*
X014033Y031993D01*
X014020Y031974D01*
X014005Y031957D01*
X013987Y031943D01*
X013966Y031932D01*
X013944Y031924D01*
X013922Y031920D01*
X013898Y031920D01*
X013876Y031924D01*
X013854Y031932D01*
X013833Y031943D01*
X013815Y031957D01*
X013800Y031974D01*
X013787Y031993D01*
X013778Y032015D01*
X013772Y032037D01*
X013770Y032060D01*
X017120Y024860D02*
X017122Y024883D01*
X017128Y024905D01*
X017137Y024927D01*
X017150Y024946D01*
X017165Y024963D01*
X017183Y024977D01*
X017204Y024988D01*
X017226Y024996D01*
X017248Y025000D01*
X017272Y025000D01*
X017294Y024996D01*
X017316Y024988D01*
X017337Y024977D01*
X017355Y024963D01*
X017370Y024946D01*
X017383Y024927D01*
X017392Y024905D01*
X017398Y024883D01*
X017400Y024860D01*
X017398Y024837D01*
X017392Y024815D01*
X017383Y024793D01*
X017370Y024774D01*
X017355Y024757D01*
X017337Y024743D01*
X017316Y024732D01*
X017294Y024724D01*
X017272Y024720D01*
X017248Y024720D01*
X017226Y024724D01*
X017204Y024732D01*
X017183Y024743D01*
X017165Y024757D01*
X017150Y024774D01*
X017137Y024793D01*
X017128Y024815D01*
X017122Y024837D01*
X017120Y024860D01*
X014920Y021610D02*
X014922Y021633D01*
X014928Y021655D01*
X014937Y021677D01*
X014950Y021696D01*
X014965Y021713D01*
X014983Y021727D01*
X015004Y021738D01*
X015026Y021746D01*
X015048Y021750D01*
X015072Y021750D01*
X015094Y021746D01*
X015116Y021738D01*
X015137Y021727D01*
X015155Y021713D01*
X015170Y021696D01*
X015183Y021677D01*
X015192Y021655D01*
X015198Y021633D01*
X015200Y021610D01*
X015198Y021587D01*
X015192Y021565D01*
X015183Y021543D01*
X015170Y021524D01*
X015155Y021507D01*
X015137Y021493D01*
X015116Y021482D01*
X015094Y021474D01*
X015072Y021470D01*
X015048Y021470D01*
X015026Y021474D01*
X015004Y021482D01*
X014983Y021493D01*
X014965Y021507D01*
X014950Y021524D01*
X014937Y021543D01*
X014928Y021565D01*
X014922Y021587D01*
X014920Y021610D01*
X015270Y017110D02*
X015272Y017133D01*
X015278Y017155D01*
X015287Y017177D01*
X015300Y017196D01*
X015315Y017213D01*
X015333Y017227D01*
X015354Y017238D01*
X015376Y017246D01*
X015398Y017250D01*
X015422Y017250D01*
X015444Y017246D01*
X015466Y017238D01*
X015487Y017227D01*
X015505Y017213D01*
X015520Y017196D01*
X015533Y017177D01*
X015542Y017155D01*
X015548Y017133D01*
X015550Y017110D01*
X015548Y017087D01*
X015542Y017065D01*
X015533Y017043D01*
X015520Y017024D01*
X015505Y017007D01*
X015487Y016993D01*
X015466Y016982D01*
X015444Y016974D01*
X015422Y016970D01*
X015398Y016970D01*
X015376Y016974D01*
X015354Y016982D01*
X015333Y016993D01*
X015315Y017007D01*
X015300Y017024D01*
X015287Y017043D01*
X015278Y017065D01*
X015272Y017087D01*
X015270Y017110D01*
X018520Y012610D02*
X018522Y012633D01*
X018528Y012655D01*
X018537Y012677D01*
X018550Y012696D01*
X018565Y012713D01*
X018583Y012727D01*
X018604Y012738D01*
X018626Y012746D01*
X018648Y012750D01*
X018672Y012750D01*
X018694Y012746D01*
X018716Y012738D01*
X018737Y012727D01*
X018755Y012713D01*
X018770Y012696D01*
X018783Y012677D01*
X018792Y012655D01*
X018798Y012633D01*
X018800Y012610D01*
X018798Y012587D01*
X018792Y012565D01*
X018783Y012543D01*
X018770Y012524D01*
X018755Y012507D01*
X018737Y012493D01*
X018716Y012482D01*
X018694Y012474D01*
X018672Y012470D01*
X018648Y012470D01*
X018626Y012474D01*
X018604Y012482D01*
X018583Y012493D01*
X018565Y012507D01*
X018550Y012524D01*
X018537Y012543D01*
X018528Y012565D01*
X018522Y012587D01*
X018520Y012610D01*
X018520Y008610D02*
X018522Y008633D01*
X018528Y008655D01*
X018537Y008677D01*
X018550Y008696D01*
X018565Y008713D01*
X018583Y008727D01*
X018604Y008738D01*
X018626Y008746D01*
X018648Y008750D01*
X018672Y008750D01*
X018694Y008746D01*
X018716Y008738D01*
X018737Y008727D01*
X018755Y008713D01*
X018770Y008696D01*
X018783Y008677D01*
X018792Y008655D01*
X018798Y008633D01*
X018800Y008610D01*
X018798Y008587D01*
X018792Y008565D01*
X018783Y008543D01*
X018770Y008524D01*
X018755Y008507D01*
X018737Y008493D01*
X018716Y008482D01*
X018694Y008474D01*
X018672Y008470D01*
X018648Y008470D01*
X018626Y008474D01*
X018604Y008482D01*
X018583Y008493D01*
X018565Y008507D01*
X018550Y008524D01*
X018537Y008543D01*
X018528Y008565D01*
X018522Y008587D01*
X018520Y008610D01*
X015270Y005360D02*
X015272Y005383D01*
X015278Y005405D01*
X015287Y005427D01*
X015300Y005446D01*
X015315Y005463D01*
X015333Y005477D01*
X015354Y005488D01*
X015376Y005496D01*
X015398Y005500D01*
X015422Y005500D01*
X015444Y005496D01*
X015466Y005488D01*
X015487Y005477D01*
X015505Y005463D01*
X015520Y005446D01*
X015533Y005427D01*
X015542Y005405D01*
X015548Y005383D01*
X015550Y005360D01*
X015548Y005337D01*
X015542Y005315D01*
X015533Y005293D01*
X015520Y005274D01*
X015505Y005257D01*
X015487Y005243D01*
X015466Y005232D01*
X015444Y005224D01*
X015422Y005220D01*
X015398Y005220D01*
X015376Y005224D01*
X015354Y005232D01*
X015333Y005243D01*
X015315Y005257D01*
X015300Y005274D01*
X015287Y005293D01*
X015278Y005315D01*
X015272Y005337D01*
X015270Y005360D01*
D14*
X016220Y005360D02*
X016220Y005420D01*
X016280Y005480D01*
X016400Y005480D01*
X016460Y005420D01*
X016460Y005360D01*
X016400Y005300D01*
X016280Y005300D01*
X016220Y005360D01*
X016280Y005300D02*
X016220Y005240D01*
X016220Y005180D01*
X016280Y005120D01*
X016400Y005120D01*
X016460Y005180D01*
X016460Y005240D01*
X016400Y005300D01*
X019470Y008430D02*
X019470Y008490D01*
X019530Y008550D01*
X019650Y008550D01*
X019710Y008490D01*
X019710Y008430D01*
X019650Y008370D01*
X019530Y008370D01*
X019470Y008430D01*
X019530Y008550D02*
X019470Y008610D01*
X019470Y008670D01*
X019530Y008730D01*
X019650Y008730D01*
X019710Y008670D01*
X019710Y008610D01*
X019650Y008550D01*
X019650Y012370D02*
X019530Y012370D01*
X019470Y012430D01*
X019470Y012490D01*
X019530Y012550D01*
X019650Y012550D01*
X019710Y012490D01*
X019710Y012430D01*
X019650Y012370D01*
X019650Y012550D02*
X019710Y012610D01*
X019710Y012670D01*
X019650Y012730D01*
X019530Y012730D01*
X019470Y012670D01*
X019470Y012610D01*
X019530Y012550D01*
X016400Y016870D02*
X016280Y016870D01*
X016220Y016930D01*
X016220Y016990D01*
X016280Y017050D01*
X016400Y017050D01*
X016460Y016990D01*
X016460Y016930D01*
X016400Y016870D01*
X016400Y017050D02*
X016460Y017110D01*
X016460Y017170D01*
X016400Y017230D01*
X016280Y017230D01*
X016220Y017170D01*
X016220Y017110D01*
X016280Y017050D01*
X016050Y021370D02*
X015930Y021370D01*
X015870Y021430D01*
X015870Y021490D01*
X015930Y021550D01*
X016050Y021550D01*
X016110Y021490D01*
X016110Y021430D01*
X016050Y021370D01*
X016050Y021550D02*
X016110Y021610D01*
X016110Y021670D01*
X016050Y021730D01*
X015930Y021730D01*
X015870Y021670D01*
X015870Y021610D01*
X015930Y021550D01*
X018130Y024620D02*
X018070Y024680D01*
X018070Y024740D01*
X018130Y024800D01*
X018250Y024800D01*
X018310Y024740D01*
X018310Y024680D01*
X018250Y024620D01*
X018130Y024620D01*
X018130Y024800D02*
X018070Y024860D01*
X018070Y024920D01*
X018130Y024980D01*
X018250Y024980D01*
X018310Y024920D01*
X018310Y024860D01*
X018250Y024800D01*
X018100Y028420D02*
X017980Y028420D01*
X017920Y028480D01*
X017920Y028540D01*
X017980Y028600D01*
X018100Y028600D01*
X018160Y028540D01*
X018160Y028480D01*
X018100Y028420D01*
X018100Y028600D02*
X018160Y028660D01*
X018160Y028720D01*
X018100Y028780D01*
X017980Y028780D01*
X017920Y028720D01*
X017920Y028660D01*
X017980Y028600D01*
X014900Y031820D02*
X014780Y031820D01*
X014720Y031880D01*
X014720Y031940D01*
X014780Y032000D01*
X014900Y032000D01*
X014960Y031940D01*
X014960Y031880D01*
X014900Y031820D01*
X014900Y032000D02*
X014960Y032060D01*
X014960Y032120D01*
X014900Y032180D01*
X014780Y032180D01*
X014720Y032120D01*
X014720Y032060D01*
X014780Y032000D01*
D15*
X015600Y033850D02*
X016100Y033850D01*
X016350Y034100D01*
X016350Y034600D01*
X016100Y034850D01*
X015600Y034850D01*
X015350Y034600D01*
X015350Y034100D01*
X015600Y033850D01*
X016900Y034150D02*
X017150Y033900D01*
X017650Y033900D01*
X017900Y034150D01*
X017900Y034650D01*
X017650Y034900D01*
X017150Y034900D01*
X016900Y034650D01*
X016900Y034150D01*
X011050Y034100D02*
X010800Y033850D01*
X010300Y033850D01*
X010050Y034100D01*
X010050Y034600D01*
X010300Y034850D01*
X010800Y034850D01*
X011050Y034600D01*
X011050Y034100D01*
X009900Y034150D02*
X009900Y034650D01*
X009650Y034900D01*
X009150Y034900D01*
X008900Y034650D01*
X008900Y034150D01*
X009150Y033900D01*
X009650Y033900D01*
X009900Y034150D01*
X004650Y021400D02*
X004150Y021400D01*
X003900Y021150D01*
X003900Y020650D01*
X004150Y020400D01*
X003900Y020150D01*
X003900Y019650D01*
X004150Y019400D01*
X003900Y019150D01*
X003900Y018650D01*
X004150Y018400D01*
X003900Y018150D01*
X003900Y017650D01*
X004150Y017400D01*
X003900Y017150D01*
X003900Y016650D01*
X004150Y016400D01*
X004650Y016400D01*
X004900Y016650D01*
X004900Y017150D01*
X004650Y017400D01*
X004900Y017650D01*
X004900Y018150D01*
X004650Y018400D01*
X004900Y018650D01*
X004900Y019150D01*
X004650Y019400D01*
X004900Y019650D01*
X004900Y020150D01*
X004650Y020400D01*
X004900Y020650D01*
X004900Y021150D01*
X004650Y021400D01*
X007900Y007900D02*
X007650Y007650D01*
X007650Y007150D01*
X007900Y006900D01*
X008400Y006900D01*
X008650Y007150D01*
X008650Y007650D01*
X008400Y007900D01*
X007900Y007900D01*
X009900Y007650D02*
X009900Y007150D01*
X010150Y006900D01*
X010650Y006900D01*
X010900Y007150D01*
X010900Y007650D01*
X010650Y007900D01*
X010150Y007900D01*
X009900Y007650D01*
X030400Y024650D02*
X031900Y024650D01*
X032000Y017500D02*
X031500Y017500D01*
X031500Y013500D02*
X032000Y013500D01*
D16*
X031150Y022900D03*
X013000Y026250D03*
X010400Y029500D03*
X012900Y013900D03*
X011650Y003400D03*
D17*
X021650Y014400D02*
X021650Y014900D01*
X022650Y014900D01*
X022650Y016900D01*
X022150Y016900D01*
X022150Y017150D01*
X022150Y016900D02*
X021650Y016900D01*
X021650Y014900D01*
X021650Y014400D02*
X022150Y014400D01*
X022150Y014150D01*
X022150Y014400D02*
X022650Y014400D01*
X022650Y014900D01*
X025650Y015400D02*
X025650Y013400D01*
X026650Y013400D01*
X026650Y015400D01*
X026150Y015400D01*
X026150Y015650D01*
X026150Y015400D02*
X025650Y015400D01*
X025650Y013400D02*
X025650Y012900D01*
X026150Y012900D01*
X026150Y012650D01*
X026150Y012900D02*
X026650Y012900D01*
X026650Y013400D01*
X026150Y009400D02*
X026150Y009150D01*
X025650Y009150D01*
X025650Y008650D01*
X026650Y008650D01*
X026650Y009150D01*
X026150Y009150D01*
X025650Y008650D02*
X025650Y006650D01*
X026150Y006650D01*
X026150Y006400D01*
X026150Y006650D02*
X026650Y006650D01*
X026650Y008650D01*
X023150Y006400D02*
X023150Y005900D01*
X022150Y005900D01*
X022150Y003900D01*
X022650Y003900D01*
X022650Y003650D01*
X022650Y003900D02*
X023150Y003900D01*
X023150Y005900D01*
X023150Y006400D02*
X022650Y006400D01*
X022650Y006650D01*
X022650Y006400D02*
X022150Y006400D01*
X022150Y005900D01*
X023650Y018650D02*
X023650Y018900D01*
X024150Y018900D01*
X024150Y020900D01*
X023150Y020900D01*
X023150Y018900D01*
X023650Y018900D01*
X023150Y020900D02*
X023150Y021400D01*
X023650Y021400D01*
X023650Y021650D01*
X023650Y021400D02*
X024150Y021400D01*
X024150Y020900D01*
X025400Y022900D02*
X025900Y022900D01*
X025900Y022650D01*
X025900Y022900D02*
X026400Y022900D01*
X026400Y024900D01*
X025400Y024900D01*
X025400Y022900D01*
X025400Y024900D02*
X025400Y025400D01*
X025900Y025400D01*
X025900Y025650D01*
X025900Y025400D02*
X026400Y025400D01*
X026400Y024900D01*
X024650Y027150D02*
X024150Y027150D01*
X024150Y026900D01*
X024150Y027150D02*
X023650Y027150D01*
X023650Y027650D01*
X024650Y027650D01*
X024650Y029650D01*
X024150Y029650D01*
X024150Y029900D01*
X024150Y029650D02*
X023650Y029650D01*
X023650Y027650D01*
X024650Y027650D02*
X024650Y027150D01*
X021900Y028900D02*
X021400Y028900D01*
X021400Y028650D01*
X021400Y028900D02*
X020900Y028900D01*
X020900Y029400D01*
X021900Y029400D01*
X021900Y031400D01*
X021400Y031400D01*
X021400Y031650D01*
X021400Y031400D02*
X020900Y031400D01*
X020900Y029400D01*
X021900Y029400D02*
X021900Y028900D01*
D18*
X031930Y024618D02*
X031876Y024690D01*
X031877Y024689D02*
X031930Y024732D01*
X031981Y024777D01*
X032029Y024826D01*
X032074Y024877D01*
X032117Y024931D01*
X032156Y024987D01*
X032192Y025045D01*
X032225Y025105D01*
X032254Y025166D01*
X032279Y025230D01*
X032301Y025294D01*
X032320Y025360D01*
X032334Y025427D01*
X032345Y025494D01*
X032352Y025562D01*
X032355Y025630D01*
X032354Y025699D01*
X032349Y025767D01*
X032341Y025835D01*
X032328Y025902D01*
X032312Y025968D01*
X032292Y026033D01*
X032269Y026098D01*
X032242Y026160D01*
X032211Y026221D01*
X032177Y026280D01*
X032140Y026338D01*
X032099Y026393D01*
X032055Y026445D01*
X032009Y026495D01*
X031960Y026542D01*
X031908Y026587D01*
X031854Y026628D01*
X031797Y026667D01*
X031738Y026702D01*
X031678Y026733D01*
X031616Y026761D01*
X031552Y026786D01*
X031487Y026807D01*
X031421Y026824D01*
X031354Y026838D01*
X031286Y026847D01*
X031218Y026853D01*
X031150Y026855D01*
X031082Y026853D01*
X031014Y026847D01*
X030946Y026838D01*
X030879Y026824D01*
X030813Y026807D01*
X030748Y026786D01*
X030684Y026761D01*
X030622Y026733D01*
X030562Y026702D01*
X030503Y026667D01*
X030446Y026628D01*
X030392Y026587D01*
X030340Y026542D01*
X030291Y026495D01*
X030245Y026445D01*
X030201Y026393D01*
X030160Y026338D01*
X030123Y026280D01*
X030089Y026221D01*
X030058Y026160D01*
X030031Y026098D01*
X030008Y026033D01*
X029988Y025968D01*
X029972Y025902D01*
X029959Y025835D01*
X029951Y025767D01*
X029946Y025699D01*
X029945Y025630D01*
X029948Y025562D01*
X029955Y025494D01*
X029966Y025427D01*
X029980Y025360D01*
X029999Y025294D01*
X030021Y025230D01*
X030046Y025166D01*
X030075Y025105D01*
X030108Y025045D01*
X030144Y024987D01*
X030183Y024931D01*
X030226Y024877D01*
X030271Y024826D01*
X030319Y024777D01*
X030370Y024732D01*
X030423Y024689D01*
X030370Y024618D01*
X030369Y024617D01*
X030314Y024661D01*
X030261Y024709D01*
X030210Y024759D01*
X030163Y024812D01*
X030119Y024867D01*
X030077Y024925D01*
X030039Y024985D01*
X030004Y025046D01*
X029973Y025110D01*
X029945Y025175D01*
X029921Y025242D01*
X029900Y025310D01*
X029884Y025379D01*
X029871Y025449D01*
X029862Y025519D01*
X029856Y025590D01*
X029855Y025661D01*
X029858Y025732D01*
X029864Y025803D01*
X029874Y025873D01*
X029888Y025942D01*
X029906Y026011D01*
X029928Y026079D01*
X029953Y026145D01*
X029982Y026210D01*
X030015Y026273D01*
X030051Y026334D01*
X030090Y026393D01*
X030132Y026450D01*
X030177Y026505D01*
X030226Y026557D01*
X030277Y026606D01*
X030330Y026653D01*
X030387Y026696D01*
X030445Y026736D01*
X030506Y026773D01*
X030568Y026807D01*
X030632Y026837D01*
X030698Y026864D01*
X030765Y026887D01*
X030834Y026906D01*
X030903Y026921D01*
X030973Y026933D01*
X031044Y026941D01*
X031115Y026945D01*
X031185Y026945D01*
X031256Y026941D01*
X031327Y026933D01*
X031397Y026921D01*
X031466Y026906D01*
X031535Y026887D01*
X031602Y026864D01*
X031668Y026837D01*
X031732Y026807D01*
X031794Y026773D01*
X031855Y026736D01*
X031913Y026696D01*
X031970Y026653D01*
X032023Y026606D01*
X032074Y026557D01*
X032123Y026505D01*
X032168Y026450D01*
X032210Y026393D01*
X032249Y026334D01*
X032285Y026273D01*
X032318Y026210D01*
X032347Y026145D01*
X032372Y026079D01*
X032394Y026011D01*
X032412Y025942D01*
X032426Y025873D01*
X032436Y025803D01*
X032442Y025732D01*
X032445Y025661D01*
X032444Y025590D01*
X032438Y025519D01*
X032429Y025449D01*
X032416Y025379D01*
X032400Y025310D01*
X032379Y025242D01*
X032355Y025175D01*
X032327Y025110D01*
X032296Y025046D01*
X032261Y024985D01*
X032223Y024925D01*
X032181Y024867D01*
X032137Y024812D01*
X032090Y024759D01*
X032039Y024709D01*
X031986Y024661D01*
X031931Y024617D01*
X031926Y024624D01*
X031981Y024669D01*
X032034Y024716D01*
X032085Y024767D01*
X032132Y024820D01*
X032177Y024876D01*
X032218Y024934D01*
X032256Y024994D01*
X032291Y025056D01*
X032322Y025120D01*
X032349Y025186D01*
X032373Y025253D01*
X032393Y025322D01*
X032410Y025391D01*
X032422Y025461D01*
X032431Y025532D01*
X032435Y025603D01*
X032436Y025674D01*
X032432Y025745D01*
X032425Y025816D01*
X032414Y025887D01*
X032399Y025956D01*
X032380Y026025D01*
X032357Y026093D01*
X032331Y026159D01*
X032301Y026224D01*
X032267Y026286D01*
X032231Y026347D01*
X032190Y026406D01*
X032147Y026463D01*
X032100Y026517D01*
X032051Y026568D01*
X031998Y026616D01*
X031944Y026662D01*
X031886Y026704D01*
X031827Y026743D01*
X031765Y026779D01*
X031702Y026812D01*
X031637Y026840D01*
X031570Y026866D01*
X031502Y026887D01*
X031433Y026905D01*
X031363Y026918D01*
X031292Y026928D01*
X031221Y026934D01*
X031150Y026936D01*
X031079Y026934D01*
X031008Y026928D01*
X030937Y026918D01*
X030867Y026905D01*
X030798Y026887D01*
X030730Y026866D01*
X030663Y026840D01*
X030598Y026812D01*
X030535Y026779D01*
X030473Y026743D01*
X030414Y026704D01*
X030356Y026662D01*
X030302Y026616D01*
X030249Y026568D01*
X030200Y026517D01*
X030153Y026463D01*
X030110Y026406D01*
X030069Y026347D01*
X030033Y026286D01*
X029999Y026224D01*
X029969Y026159D01*
X029943Y026093D01*
X029920Y026025D01*
X029901Y025956D01*
X029886Y025887D01*
X029875Y025816D01*
X029868Y025745D01*
X029864Y025674D01*
X029865Y025603D01*
X029869Y025532D01*
X029878Y025461D01*
X029890Y025391D01*
X029907Y025322D01*
X029927Y025253D01*
X029951Y025186D01*
X029978Y025120D01*
X030009Y025056D01*
X030044Y024994D01*
X030082Y024934D01*
X030123Y024876D01*
X030168Y024820D01*
X030215Y024767D01*
X030266Y024716D01*
X030319Y024669D01*
X030374Y024624D01*
X030380Y024631D01*
X030325Y024676D01*
X030272Y024723D01*
X030222Y024773D01*
X030175Y024826D01*
X030131Y024881D01*
X030089Y024939D01*
X030052Y024998D01*
X030017Y025060D01*
X029986Y025124D01*
X029959Y025189D01*
X029935Y025256D01*
X029915Y025324D01*
X029899Y025393D01*
X029887Y025462D01*
X029878Y025533D01*
X029874Y025603D01*
X029873Y025674D01*
X029877Y025745D01*
X029884Y025815D01*
X029895Y025885D01*
X029910Y025954D01*
X029929Y026022D01*
X029951Y026090D01*
X029977Y026155D01*
X030007Y026220D01*
X030040Y026282D01*
X030077Y026342D01*
X030117Y026401D01*
X030160Y026457D01*
X030206Y026511D01*
X030256Y026561D01*
X030307Y026610D01*
X030362Y026655D01*
X030419Y026697D01*
X030478Y026736D01*
X030539Y026771D01*
X030602Y026804D01*
X030667Y026832D01*
X030733Y026857D01*
X030801Y026878D01*
X030869Y026896D01*
X030939Y026909D01*
X031009Y026919D01*
X031079Y026925D01*
X031150Y026927D01*
X031221Y026925D01*
X031291Y026919D01*
X031361Y026909D01*
X031431Y026896D01*
X031499Y026878D01*
X031567Y026857D01*
X031633Y026832D01*
X031698Y026804D01*
X031761Y026771D01*
X031822Y026736D01*
X031881Y026697D01*
X031938Y026655D01*
X031993Y026610D01*
X032044Y026561D01*
X032094Y026511D01*
X032140Y026457D01*
X032183Y026401D01*
X032223Y026342D01*
X032260Y026282D01*
X032293Y026220D01*
X032323Y026155D01*
X032349Y026090D01*
X032371Y026022D01*
X032390Y025954D01*
X032405Y025885D01*
X032416Y025815D01*
X032423Y025745D01*
X032427Y025674D01*
X032426Y025603D01*
X032422Y025533D01*
X032413Y025462D01*
X032401Y025393D01*
X032385Y025324D01*
X032365Y025256D01*
X032341Y025189D01*
X032314Y025124D01*
X032283Y025060D01*
X032248Y024998D01*
X032211Y024939D01*
X032169Y024881D01*
X032125Y024826D01*
X032078Y024773D01*
X032028Y024723D01*
X031975Y024676D01*
X031920Y024631D01*
X031915Y024639D01*
X031970Y024683D01*
X032023Y024731D01*
X032073Y024781D01*
X032121Y024834D01*
X032165Y024890D01*
X032206Y024948D01*
X032243Y025008D01*
X032278Y025070D01*
X032308Y025134D01*
X032335Y025200D01*
X032359Y025267D01*
X032378Y025335D01*
X032394Y025405D01*
X032406Y025475D01*
X032414Y025545D01*
X032418Y025616D01*
X032417Y025687D01*
X032413Y025758D01*
X032405Y025829D01*
X032393Y025899D01*
X032377Y025968D01*
X032358Y026036D01*
X032334Y026104D01*
X032307Y026169D01*
X032276Y026233D01*
X032242Y026295D01*
X032204Y026355D01*
X032162Y026413D01*
X032118Y026469D01*
X032071Y026522D01*
X032020Y026572D01*
X031967Y026619D01*
X031912Y026664D01*
X031854Y026705D01*
X031794Y026742D01*
X031731Y026777D01*
X031667Y026808D01*
X031602Y026835D01*
X031535Y026858D01*
X031466Y026878D01*
X031397Y026894D01*
X031327Y026906D01*
X031256Y026914D01*
X031186Y026918D01*
X031114Y026918D01*
X031044Y026914D01*
X030973Y026906D01*
X030903Y026894D01*
X030834Y026878D01*
X030765Y026858D01*
X030698Y026835D01*
X030633Y026808D01*
X030569Y026777D01*
X030506Y026742D01*
X030446Y026705D01*
X030388Y026664D01*
X030333Y026619D01*
X030280Y026572D01*
X030229Y026522D01*
X030182Y026469D01*
X030138Y026413D01*
X030096Y026355D01*
X030058Y026295D01*
X030024Y026233D01*
X029993Y026169D01*
X029966Y026104D01*
X029942Y026036D01*
X029923Y025968D01*
X029907Y025899D01*
X029895Y025829D01*
X029887Y025758D01*
X029883Y025687D01*
X029882Y025616D01*
X029886Y025545D01*
X029894Y025475D01*
X029906Y025405D01*
X029922Y025335D01*
X029941Y025267D01*
X029965Y025200D01*
X029992Y025134D01*
X030022Y025070D01*
X030057Y025008D01*
X030094Y024948D01*
X030135Y024890D01*
X030179Y024834D01*
X030227Y024781D01*
X030277Y024731D01*
X030330Y024683D01*
X030385Y024639D01*
X030391Y024646D01*
X030336Y024690D01*
X030283Y024737D01*
X030233Y024787D01*
X030186Y024840D01*
X030142Y024895D01*
X030102Y024953D01*
X030064Y025012D01*
X030030Y025074D01*
X030000Y025138D01*
X029973Y025203D01*
X029950Y025270D01*
X029930Y025338D01*
X029915Y025406D01*
X029903Y025476D01*
X029895Y025546D01*
X029891Y025617D01*
X029892Y025687D01*
X029896Y025758D01*
X029904Y025828D01*
X029916Y025897D01*
X029931Y025966D01*
X029951Y026034D01*
X029974Y026100D01*
X030001Y026165D01*
X030032Y026229D01*
X030066Y026291D01*
X030104Y026350D01*
X030145Y026408D01*
X030189Y026463D01*
X030236Y026516D01*
X030286Y026565D01*
X030338Y026612D01*
X030394Y026656D01*
X030451Y026697D01*
X030511Y026735D01*
X030573Y026769D01*
X030636Y026799D01*
X030701Y026826D01*
X030768Y026850D01*
X030836Y026869D01*
X030905Y026885D01*
X030974Y026897D01*
X031044Y026905D01*
X031115Y026909D01*
X031185Y026909D01*
X031256Y026905D01*
X031326Y026897D01*
X031395Y026885D01*
X031464Y026869D01*
X031532Y026850D01*
X031599Y026826D01*
X031664Y026799D01*
X031727Y026769D01*
X031789Y026735D01*
X031849Y026697D01*
X031906Y026656D01*
X031962Y026612D01*
X032014Y026565D01*
X032064Y026516D01*
X032111Y026463D01*
X032155Y026408D01*
X032196Y026350D01*
X032234Y026291D01*
X032268Y026229D01*
X032299Y026165D01*
X032326Y026100D01*
X032349Y026034D01*
X032369Y025966D01*
X032384Y025897D01*
X032396Y025828D01*
X032404Y025758D01*
X032408Y025687D01*
X032409Y025617D01*
X032405Y025546D01*
X032397Y025476D01*
X032385Y025406D01*
X032370Y025338D01*
X032350Y025270D01*
X032327Y025203D01*
X032300Y025138D01*
X032270Y025074D01*
X032236Y025012D01*
X032198Y024953D01*
X032158Y024895D01*
X032114Y024840D01*
X032067Y024787D01*
X032017Y024737D01*
X031964Y024690D01*
X031909Y024646D01*
X031904Y024653D01*
X031959Y024697D01*
X032011Y024744D01*
X032060Y024793D01*
X032107Y024846D01*
X032150Y024900D01*
X032191Y024958D01*
X032228Y025017D01*
X032262Y025078D01*
X032292Y025142D01*
X032319Y025206D01*
X032342Y025273D01*
X032361Y025340D01*
X032376Y025408D01*
X032388Y025477D01*
X032396Y025547D01*
X032400Y025617D01*
X032399Y025687D01*
X032395Y025757D01*
X032387Y025826D01*
X032376Y025895D01*
X032360Y025964D01*
X032341Y026031D01*
X032317Y026097D01*
X032290Y026162D01*
X032260Y026225D01*
X032226Y026286D01*
X032189Y026345D01*
X032148Y026403D01*
X032104Y026457D01*
X032058Y026509D01*
X032008Y026559D01*
X031956Y026606D01*
X031901Y026649D01*
X031844Y026690D01*
X031785Y026727D01*
X031723Y026761D01*
X031660Y026791D01*
X031595Y026818D01*
X031529Y026841D01*
X031462Y026860D01*
X031394Y026876D01*
X031325Y026888D01*
X031255Y026896D01*
X031185Y026900D01*
X031115Y026900D01*
X031045Y026896D01*
X030975Y026888D01*
X030906Y026876D01*
X030838Y026860D01*
X030771Y026841D01*
X030705Y026818D01*
X030640Y026791D01*
X030577Y026761D01*
X030515Y026727D01*
X030456Y026690D01*
X030399Y026649D01*
X030344Y026606D01*
X030292Y026559D01*
X030242Y026509D01*
X030196Y026457D01*
X030152Y026403D01*
X030111Y026345D01*
X030074Y026286D01*
X030040Y026225D01*
X030010Y026162D01*
X029983Y026097D01*
X029959Y026031D01*
X029940Y025964D01*
X029924Y025895D01*
X029913Y025826D01*
X029905Y025757D01*
X029901Y025687D01*
X029900Y025617D01*
X029904Y025547D01*
X029912Y025477D01*
X029924Y025408D01*
X029939Y025340D01*
X029958Y025273D01*
X029981Y025206D01*
X030008Y025142D01*
X030038Y025078D01*
X030072Y025017D01*
X030109Y024958D01*
X030150Y024900D01*
X030193Y024846D01*
X030240Y024793D01*
X030289Y024744D01*
X030341Y024697D01*
X030396Y024653D01*
X030401Y024660D01*
X030347Y024704D01*
X030295Y024750D01*
X030246Y024799D01*
X030200Y024851D01*
X030157Y024906D01*
X030117Y024963D01*
X030080Y025022D01*
X030046Y025083D01*
X030016Y025145D01*
X029990Y025210D01*
X029967Y025275D01*
X029948Y025342D01*
X029932Y025410D01*
X029921Y025479D01*
X029913Y025548D01*
X029909Y025617D01*
X029910Y025687D01*
X029914Y025756D01*
X029921Y025825D01*
X029933Y025894D01*
X029949Y025961D01*
X029968Y026028D01*
X029991Y026094D01*
X030018Y026158D01*
X030048Y026221D01*
X030082Y026282D01*
X030119Y026340D01*
X030159Y026397D01*
X030202Y026451D01*
X030249Y026503D01*
X030298Y026552D01*
X030350Y026599D01*
X030404Y026642D01*
X030461Y026682D01*
X030520Y026719D01*
X030581Y026753D01*
X030644Y026783D01*
X030708Y026810D01*
X030773Y026833D01*
X030840Y026852D01*
X030908Y026867D01*
X030977Y026879D01*
X031046Y026887D01*
X031115Y026891D01*
X031185Y026891D01*
X031254Y026887D01*
X031323Y026879D01*
X031392Y026867D01*
X031460Y026852D01*
X031527Y026833D01*
X031592Y026810D01*
X031656Y026783D01*
X031719Y026753D01*
X031780Y026719D01*
X031839Y026682D01*
X031896Y026642D01*
X031950Y026599D01*
X032002Y026552D01*
X032051Y026503D01*
X032098Y026451D01*
X032141Y026397D01*
X032181Y026340D01*
X032218Y026282D01*
X032252Y026221D01*
X032282Y026158D01*
X032309Y026094D01*
X032332Y026028D01*
X032351Y025961D01*
X032367Y025894D01*
X032379Y025825D01*
X032386Y025756D01*
X032390Y025687D01*
X032391Y025617D01*
X032387Y025548D01*
X032379Y025479D01*
X032368Y025410D01*
X032352Y025342D01*
X032333Y025275D01*
X032310Y025210D01*
X032284Y025145D01*
X032254Y025083D01*
X032220Y025022D01*
X032183Y024963D01*
X032143Y024906D01*
X032100Y024851D01*
X032054Y024799D01*
X032005Y024750D01*
X031953Y024704D01*
X031899Y024660D01*
X031893Y024667D01*
X031947Y024711D01*
X031998Y024757D01*
X032047Y024806D01*
X032093Y024857D01*
X032136Y024911D01*
X032176Y024968D01*
X032212Y025026D01*
X032246Y025087D01*
X032276Y025149D01*
X032302Y025213D01*
X032324Y025278D01*
X032343Y025344D01*
X032359Y025412D01*
X032370Y025480D01*
X032378Y025548D01*
X032382Y025617D01*
X032381Y025686D01*
X032377Y025755D01*
X032370Y025824D01*
X032358Y025892D01*
X032343Y025959D01*
X032323Y026026D01*
X032300Y026091D01*
X032274Y026154D01*
X032244Y026217D01*
X032211Y026277D01*
X032174Y026335D01*
X032134Y026392D01*
X032091Y026446D01*
X032045Y026497D01*
X031996Y026546D01*
X031944Y026592D01*
X031890Y026635D01*
X031834Y026675D01*
X031775Y026711D01*
X031715Y026745D01*
X031653Y026775D01*
X031589Y026801D01*
X031524Y026824D01*
X031457Y026843D01*
X031390Y026858D01*
X031322Y026870D01*
X031253Y026878D01*
X031185Y026882D01*
X031115Y026882D01*
X031047Y026878D01*
X030978Y026870D01*
X030910Y026858D01*
X030843Y026843D01*
X030776Y026824D01*
X030711Y026801D01*
X030647Y026775D01*
X030585Y026745D01*
X030525Y026711D01*
X030466Y026675D01*
X030410Y026635D01*
X030356Y026592D01*
X030304Y026546D01*
X030255Y026497D01*
X030209Y026446D01*
X030166Y026392D01*
X030126Y026335D01*
X030089Y026277D01*
X030056Y026217D01*
X030026Y026154D01*
X030000Y026091D01*
X029977Y026026D01*
X029957Y025959D01*
X029942Y025892D01*
X029930Y025824D01*
X029923Y025755D01*
X029919Y025686D01*
X029918Y025617D01*
X029922Y025548D01*
X029930Y025480D01*
X029941Y025412D01*
X029957Y025344D01*
X029976Y025278D01*
X029998Y025213D01*
X030024Y025149D01*
X030054Y025087D01*
X030088Y025026D01*
X030124Y024968D01*
X030164Y024911D01*
X030207Y024857D01*
X030253Y024806D01*
X030302Y024757D01*
X030353Y024711D01*
X030407Y024667D01*
X030412Y024675D01*
X030358Y024718D01*
X030307Y024764D01*
X030258Y024814D01*
X030212Y024865D01*
X030169Y024920D01*
X030129Y024977D01*
X030093Y025035D01*
X030059Y025096D01*
X030030Y025159D01*
X030004Y025223D01*
X029982Y025289D01*
X029963Y025356D01*
X029948Y025423D01*
X029937Y025492D01*
X029930Y025561D01*
X029927Y025630D01*
X029928Y025699D01*
X029933Y025769D01*
X029941Y025837D01*
X029954Y025905D01*
X029970Y025973D01*
X029991Y026039D01*
X030014Y026104D01*
X030042Y026168D01*
X030073Y026230D01*
X030108Y026290D01*
X030146Y026348D01*
X030187Y026404D01*
X030231Y026457D01*
X030278Y026508D01*
X030328Y026556D01*
X030381Y026601D01*
X030436Y026643D01*
X030493Y026682D01*
X030553Y026717D01*
X030614Y026749D01*
X030677Y026778D01*
X030742Y026803D01*
X030808Y026824D01*
X030875Y026842D01*
X030943Y026855D01*
X031012Y026865D01*
X031081Y026871D01*
X031150Y026873D01*
X031219Y026871D01*
X031288Y026865D01*
X031357Y026855D01*
X031425Y026842D01*
X031492Y026824D01*
X031558Y026803D01*
X031623Y026778D01*
X031686Y026749D01*
X031747Y026717D01*
X031807Y026682D01*
X031864Y026643D01*
X031919Y026601D01*
X031972Y026556D01*
X032022Y026508D01*
X032069Y026457D01*
X032113Y026404D01*
X032154Y026348D01*
X032192Y026290D01*
X032227Y026230D01*
X032258Y026168D01*
X032286Y026104D01*
X032309Y026039D01*
X032330Y025973D01*
X032346Y025905D01*
X032359Y025837D01*
X032367Y025769D01*
X032372Y025699D01*
X032373Y025630D01*
X032370Y025561D01*
X032363Y025492D01*
X032352Y025423D01*
X032337Y025356D01*
X032318Y025289D01*
X032296Y025223D01*
X032270Y025159D01*
X032241Y025096D01*
X032207Y025035D01*
X032171Y024977D01*
X032131Y024920D01*
X032088Y024865D01*
X032042Y024814D01*
X031993Y024764D01*
X031942Y024718D01*
X031888Y024675D01*
X031882Y024682D01*
X031936Y024725D01*
X031987Y024771D01*
X032036Y024820D01*
X032081Y024871D01*
X032124Y024925D01*
X032163Y024982D01*
X032200Y025040D01*
X032233Y025100D01*
X032262Y025163D01*
X032288Y025226D01*
X032310Y025292D01*
X032328Y025358D01*
X032343Y025425D01*
X032354Y025493D01*
X032361Y025562D01*
X032364Y025630D01*
X032363Y025699D01*
X032358Y025768D01*
X032350Y025836D01*
X032337Y025904D01*
X032321Y025970D01*
X032301Y026036D01*
X032277Y026101D01*
X032250Y026164D01*
X032219Y026225D01*
X032185Y026285D01*
X032147Y026343D01*
X032106Y026398D01*
X032062Y026451D01*
X032015Y026501D01*
X031966Y026549D01*
X031914Y026594D01*
X031859Y026636D01*
X031802Y026674D01*
X031743Y026709D01*
X031682Y026741D01*
X031619Y026770D01*
X031555Y026794D01*
X031489Y026816D01*
X031423Y026833D01*
X031355Y026846D01*
X031287Y026856D01*
X031219Y026862D01*
X031150Y026864D01*
X031081Y026862D01*
X031013Y026856D01*
X030945Y026846D01*
X030877Y026833D01*
X030811Y026816D01*
X030745Y026794D01*
X030681Y026770D01*
X030618Y026741D01*
X030557Y026709D01*
X030498Y026674D01*
X030441Y026636D01*
X030386Y026594D01*
X030334Y026549D01*
X030285Y026501D01*
X030238Y026451D01*
X030194Y026398D01*
X030153Y026343D01*
X030115Y026285D01*
X030081Y026225D01*
X030050Y026164D01*
X030023Y026101D01*
X029999Y026036D01*
X029979Y025970D01*
X029963Y025904D01*
X029950Y025836D01*
X029942Y025768D01*
X029937Y025699D01*
X029936Y025630D01*
X029939Y025562D01*
X029946Y025493D01*
X029957Y025425D01*
X029972Y025358D01*
X029990Y025292D01*
X030012Y025226D01*
X030038Y025163D01*
X030067Y025100D01*
X030100Y025040D01*
X030137Y024982D01*
X030176Y024925D01*
X030219Y024871D01*
X030264Y024820D01*
X030313Y024771D01*
X030364Y024725D01*
X030418Y024682D01*
M02*
