G75*
%MOIN*%
%OFA0B0*%
%FSLAX24Y24*%
%IPPOS*%
%LPD*%
%AMOC8*
5,1,8,0,0,1.08239X$1,22.5*
%
%ADD10C,0.1340*%
%ADD11C,0.0820*%
%ADD12C,0.0820*%
%ADD13C,0.1580*%
%ADD14C,0.0780*%
D10*
X005900Y004900D03*
X009400Y005150D03*
X030900Y004900D03*
X012900Y034400D03*
X005900Y034900D03*
X030900Y034900D03*
D11*
X031380Y017000D02*
X032120Y017000D01*
X032120Y016000D02*
X031380Y016000D01*
X031380Y015000D02*
X032120Y015000D01*
X032120Y014000D02*
X031380Y014000D01*
D12*
X031150Y025150D03*
X031150Y026150D03*
X017400Y034400D03*
X015850Y034350D03*
X010550Y034350D03*
X009400Y034400D03*
X004400Y020900D03*
X004400Y019900D03*
X004400Y018900D03*
X004400Y017900D03*
X004400Y016900D03*
X008150Y007400D03*
X010400Y007400D03*
D13*
X020860Y034400D03*
X022940Y034400D03*
D14*
X021400Y032150D03*
X024150Y030400D03*
X021400Y028150D03*
X024150Y026400D03*
X025900Y026150D03*
X025900Y022150D03*
X023650Y022150D03*
X023650Y018150D03*
X022150Y017650D03*
X022150Y013650D03*
X026150Y012150D03*
X026150Y009900D03*
X026150Y005900D03*
X022650Y007150D03*
X022650Y003150D03*
X026150Y016150D03*
M02*
